<svg width="140" height="140" viewBox="0 0 140 140" fill="none" xmlns="http://www.w3.org/2000/svg">
<path d="M104.633 12.1133H34.8778C28.457 12.1133 23.252 17.3184 23.252 23.7392V116.746C23.252 123.167 28.457 128.372 34.8778 128.372H104.633C111.054 128.372 116.259 123.167 116.259 116.746V23.7392C116.259 17.3184 111.054 12.1133 104.633 12.1133Z" stroke="black" stroke-width="11.6259" stroke-linecap="round" stroke-linejoin="round"/>
<path d="M52.3164 128.373V105.121H87.1941V128.373" stroke="black" stroke-width="11.6259" stroke-linecap="round" stroke-linejoin="round"/>
<path d="M46.5034 35.3652H46.5615" stroke="black" stroke-width="11.6259" stroke-linecap="round" stroke-linejoin="round"/>
<path d="M93.0073 35.3652H93.0655" stroke="black" stroke-width="11.6259" stroke-linecap="round" stroke-linejoin="round"/>
<path d="M69.7554 35.3652H69.8135" stroke="black" stroke-width="11.6259" stroke-linecap="round" stroke-linejoin="round"/>
<path d="M69.7554 58.6172H69.8135" stroke="black" stroke-width="11.6259" stroke-linecap="round" stroke-linejoin="round"/>
<path d="M69.7554 81.8691H69.8135" stroke="black" stroke-width="11.6259" stroke-linecap="round" stroke-linejoin="round"/>
<path d="M93.0073 58.6172H93.0655" stroke="black" stroke-width="11.6259" stroke-linecap="round" stroke-linejoin="round"/>
<path d="M93.0073 81.8691H93.0655" stroke="black" stroke-width="11.6259" stroke-linecap="round" stroke-linejoin="round"/>
<path d="M46.5034 58.6172H46.5615" stroke="black" stroke-width="11.6259" stroke-linecap="round" stroke-linejoin="round"/>
<path d="M46.5034 81.8691H46.5615" stroke="black" stroke-width="11.6259" stroke-linecap="round" stroke-linejoin="round"/>
</svg>
