<svg width="157" height="62" viewBox="0 0 157 62" fill="none" xmlns="http://www.w3.org/2000/svg">
<path d="M11.1557 13.9692C11.1041 14.0209 10.76 14.0897 10.3814 14.1413C9.65866 14.2274 7.284 15.0361 6.95705 15.3114C6.85381 15.3975 6.3892 15.7588 5.92459 16.0858C5.047 16.7569 3.89409 18.3572 3.58435 19.3897C3.4811 19.7338 3.34344 20.1468 3.29182 20.2845C3.17136 20.5942 3.22299 21.3513 3.39506 21.5234C3.44669 21.5922 4.61681 21.7815 5.95901 21.9364C8.72944 22.2461 8.79828 22.2289 9.10801 21.076C9.48658 19.6994 11.1557 18.5637 12.8421 18.5637C14.1327 18.5637 15.4921 19.5101 15.8018 20.6286C16.0599 21.5406 16.0255 23.8981 15.7502 23.8981C15.1307 23.8981 11.0697 24.4315 10.0372 24.6552C7.45608 25.2059 6.19992 25.7909 4.8233 27.0815C3.17136 28.613 2.24215 31.1769 2.44864 33.6204C2.72397 36.821 4.16941 38.8171 6.76777 39.6431C7.98951 40.0389 10.7083 40.1249 11.758 39.798C12.1366 39.6947 12.4979 39.5915 12.584 39.5743C12.6528 39.5743 12.9797 39.4366 13.3239 39.2989C13.668 39.1613 13.9778 39.0408 14.0122 39.0408C14.081 39.0408 14.1671 38.972 15.7502 37.6814C16.3352 37.1996 16.8515 36.8038 16.8859 36.8038C16.9203 36.8038 17.2989 37.3029 17.7463 37.9051C18.5894 39.058 19.5531 39.9012 20.0177 39.9012C20.3446 39.9012 24.0959 36.7006 24.268 36.2704C24.354 36.0467 24.1475 35.6165 23.6485 34.8594C22.3579 33.0009 22.3407 32.9149 22.3407 26.3588C22.3235 23.1581 22.2891 20.3533 22.2719 20.1124C21.9449 17.7721 20.6888 15.9309 18.8131 15.0361C17.058 14.1929 15.9911 13.9692 13.5476 13.9348C12.2742 13.9176 11.1901 13.9348 11.1557 13.9692ZM15.9739 29.198C15.9739 31.2285 15.6986 32.4675 15.0275 33.5172C13.5132 35.9262 10.7427 36.236 9.50379 34.1366C9.14243 33.5172 9.05639 33.1386 9.05639 32.1922C9.03918 29.1464 11.1557 27.5289 15.4232 27.3568L15.9739 27.3396V29.198Z" fill="white"/>
<path d="M70.3673 14.2448C69.1111 14.5717 67.3903 15.26 67.2871 15.5009C67.2527 15.587 67.1322 15.6386 67.0118 15.6386C66.7537 15.6386 65.8245 16.5334 65.205 17.3594C64.9641 17.6863 64.706 17.996 64.6371 18.0477C64.465 18.1853 63.6391 20.7148 63.6391 21.1278C63.6391 21.3171 63.7079 21.5236 63.8112 21.5752C64.0521 21.7129 68.8186 22.2119 69.0767 22.1087C69.1799 22.0743 69.3692 21.7301 69.4897 21.3687C70.0575 19.6308 71.176 18.7532 72.9828 18.6155C74.738 18.4951 76.0286 19.3554 76.3728 20.9041C76.562 21.7129 76.5965 23.6746 76.4244 23.7778C76.3383 23.8294 75.1854 23.9843 73.826 24.1392C68.0614 24.8103 65.2738 26.1697 63.8284 29.009C63.1228 30.42 62.8991 31.6417 63.0024 33.4485C63.1056 35.4446 63.1745 35.7199 63.9144 36.9761C65.0501 38.9034 66.9085 39.9014 69.5757 39.9875C72.3806 40.0735 74.4455 39.3336 76.39 37.544L77.3536 36.6492L78.0247 37.6128C78.8851 38.869 79.9692 39.9014 80.4338 39.9014C80.8123 39.9014 81.2597 39.5745 82.1717 38.6625C82.4815 38.3527 82.7396 38.129 82.7396 38.1806C82.7396 38.2323 83.2042 37.8537 83.7721 37.3203C84.8217 36.3566 85.0282 35.8576 84.5808 35.393C84.1334 34.9456 83.4451 33.8099 83.5312 33.6722C83.5828 33.6034 83.5484 33.5346 83.4451 33.5346C82.9805 33.5346 82.8601 32.1752 82.8773 27.4258C82.9117 23.1411 82.774 19.9921 82.4987 18.7532C82.3438 18.0305 81.2942 16.4818 80.5714 15.8795C79.8315 15.26 78.0935 14.3996 77.4224 14.2964C77.1815 14.262 76.8718 14.1759 76.7341 14.1071C76.5792 14.0383 75.3747 13.9694 74.0497 13.9522C72.2257 13.935 71.3309 14.0039 70.3673 14.2448ZM76.5104 28.6992C76.6137 31.4696 75.8909 33.6206 74.4971 34.7047C74.0841 34.9972 73.6884 35.2209 73.6023 35.1521C73.5163 35.1005 73.4475 35.1349 73.4475 35.2381C73.4475 35.3242 73.1549 35.4446 72.7764 35.5135C72.0364 35.6339 71.0384 35.307 70.4017 34.7047C69.0939 33.4829 69.266 30.2651 70.7286 28.9573C71.6923 28.0625 74.1186 27.3398 75.8565 27.4086L76.4588 27.4258L76.5104 28.6992Z" fill="white"/>
<path d="M37.4835 14.4686C36.2961 14.9332 34.7647 16.4303 34.2828 17.566C34.1108 18.0306 33.9043 18.392 33.8354 18.392C33.7494 18.392 33.6978 17.6348 33.6978 16.6884C33.6978 15.3806 33.6289 14.9504 33.4397 14.7784C33.0439 14.4514 28.2085 14.4686 28.002 14.7956C27.916 14.9332 27.8472 20.5085 27.8472 27.2023C27.8472 39.0584 27.8472 39.3853 28.1741 39.5574C28.6043 39.7811 33.3536 39.7811 33.6978 39.5574C33.9215 39.4198 33.9731 38.198 34.0591 31.0052C34.128 25.0169 34.214 22.4186 34.3689 21.954C34.8507 20.4913 36.1241 19.6481 37.6039 19.8202C38.6192 19.9235 39.187 20.3709 39.7205 21.4205L40.1507 22.2637L40.2023 30.7815C40.2367 38.525 40.2711 39.3165 40.5292 39.523C40.7357 39.6607 41.5789 39.7295 43.2652 39.7295C45.3302 39.7295 45.7604 39.6779 46.0701 39.4198C46.4315 39.1272 46.4315 39.0756 46.4315 31.0052C46.4315 25.7913 46.5003 22.8488 46.6035 22.7799C46.7068 22.7111 46.7412 22.6079 46.6896 22.5218C46.5175 22.2465 47.0509 21.2484 47.6532 20.6978C49.1159 19.3384 51.3012 19.5793 52.1444 21.1968C52.5402 21.9195 52.5402 21.954 52.5746 30.6783C52.609 35.4964 52.6606 39.4886 52.7295 39.5402C52.8843 39.6951 58.1843 39.7467 58.4252 39.609C58.7177 39.4025 58.7694 19.8718 58.494 18.6845C58.0811 16.9293 56.997 15.6215 55.173 14.6579C54.3298 14.2105 54.1061 14.1761 52.3681 14.1761C50.6473 14.1761 50.372 14.2277 49.3912 14.6751C48.1694 15.243 46.6035 16.7917 46.2422 17.7897C46.1217 18.1166 45.9841 18.392 45.9152 18.392C45.8636 18.3748 45.6571 17.9962 45.4334 17.5488C44.8656 16.327 43.7987 15.2086 42.6802 14.6579C41.8714 14.2621 41.4584 14.1761 40.0646 14.1417C38.7224 14.0901 38.2578 14.1589 37.4835 14.4686Z" fill="white"/>
<path d="M116.639 14.2102C114.866 14.5028 112.974 15.5008 111.752 16.7742C110.771 17.8066 110.444 18.168 110.444 18.2885C110.444 18.3229 110.186 18.8047 109.876 19.3725C109.566 19.9232 109.205 20.7492 109.067 21.231C108.947 21.6956 108.792 22.1602 108.74 22.2634C108.689 22.3495 108.62 22.556 108.603 22.6936C108.121 25.6706 108.087 28.527 108.482 30.6264C108.637 31.4179 108.775 32.1406 108.792 32.2439C108.809 32.3299 108.878 32.5192 108.947 32.6225C109.033 32.7429 109.05 32.8462 108.999 32.8462C108.964 32.8462 109.222 33.4656 109.601 34.2228C109.962 34.9799 110.272 35.651 110.272 35.6854C110.272 35.9435 112.905 38.6968 113.146 38.6968C113.232 38.6968 113.559 38.886 113.886 39.1097C114.505 39.5227 116.071 39.9701 117.62 40.1594C118.635 40.2971 120.717 40.0045 121.922 39.5916C124.692 38.6107 127.032 35.9435 128.134 32.502C128.701 30.764 128.873 29.4907 128.873 27.2192C128.873 24.965 128.701 23.6228 128.134 21.7472C127.927 21.0761 127.755 20.5082 127.738 20.4566C127.6 19.8371 126.361 17.9615 125.466 16.9979C124.141 15.6041 122.61 14.7265 120.786 14.3307C119.719 14.107 117.62 14.0382 116.639 14.2102ZM119.805 18.9768C120.597 19.3037 121.371 20.3362 121.698 21.4719C122.386 23.9498 122.489 29.6283 121.87 32.0546C121.337 34.2056 120.132 35.4273 118.566 35.4273C115.83 35.4273 114.78 32.7601 114.866 25.9631C114.901 22.6076 115.417 20.4566 116.398 19.5618C117.31 18.7359 118.687 18.5122 119.805 18.9768Z" fill="white"/>
<path d="M142.106 14.572C140.867 15.1742 139.921 16.1379 139.181 17.5661C138.854 18.22 138.51 18.7362 138.441 18.7362C138.372 18.7362 138.32 17.8931 138.338 16.8606C138.355 15.8281 138.303 14.8989 138.252 14.7957C138.097 14.5548 132.883 14.5376 132.728 14.7613C132.676 14.8645 132.642 20.4226 132.642 27.1164C132.642 38.3358 132.659 39.3166 132.934 39.5059C133.365 39.8328 138.2 39.8156 138.475 39.4887C138.63 39.3166 138.682 37.3721 138.665 32.3819C138.665 28.6134 138.733 24.9138 138.837 24.1566C139.181 21.3862 140.471 19.7687 142.313 19.7687C143.345 19.7687 144.137 20.3193 144.687 21.4034L145.117 22.2638L145.169 30.7816C145.203 38.5251 145.238 39.3166 145.496 39.5059C145.926 39.8328 150.934 39.8156 151.209 39.4887C151.536 39.1101 151.45 21.455 151.123 19.7687C150.985 19.0632 150.848 18.3577 150.83 18.22C150.744 17.6694 149.677 16.0174 149.127 15.5528C148.817 15.2775 148.129 14.8645 147.613 14.6236C146.804 14.245 146.391 14.1762 144.859 14.159C143.225 14.1246 142.966 14.159 142.106 14.572Z" fill="white"/>
<path d="M88.8999 14.6235C88.6245 14.7784 88.5901 15.0709 88.5901 16.8949C88.5901 18.0478 88.659 19.0975 88.7278 19.2179C88.831 19.3728 89.9151 19.4244 93.1157 19.4416C95.456 19.4416 97.366 19.4761 97.366 19.5105C97.366 19.6481 93.7008 24.8621 93.4771 25.0341C93.3394 25.1374 93.2362 25.275 93.2362 25.3439C93.2362 25.4815 90.7411 29.1124 90.4313 29.4565C90.3109 29.5598 90.1216 29.8695 89.9839 30.1276C89.8463 30.4029 89.6742 30.6094 89.5882 30.6094C89.5193 30.6094 89.4505 30.6955 89.4505 30.7815C89.4505 30.8847 89.2956 31.1429 89.1064 31.3494C88.8999 31.5558 88.5213 32.1753 88.246 32.7432C87.7469 33.7412 87.7297 33.8273 87.7297 36.3052C87.7297 38.8175 87.7297 38.8691 88.1255 38.9551C88.3664 39.024 88.9859 38.8519 89.7258 38.5422C92.4791 37.372 95.456 36.8902 98.2952 37.1483C99.9128 37.3032 100.739 37.4581 101.066 37.6302C101.152 37.6818 101.393 37.7506 101.599 37.7678C101.823 37.785 102.7 38.0948 103.578 38.4561C104.748 38.9035 105.247 39.0412 105.436 38.9207C105.849 38.6626 105.918 34.5328 105.522 33.9305C105.316 33.5864 103.251 32.4506 102.872 32.4679C102.821 32.4679 102.597 32.3818 102.356 32.2958C102.115 32.1925 101.702 32.0893 101.41 32.0377C101.135 32.0032 100.653 31.9 100.377 31.8312C100.085 31.7451 99.0696 31.6763 98.1404 31.6591C97.194 31.6419 96.4024 31.5903 96.368 31.5731C96.3508 31.5386 98.1576 28.8887 100.412 25.688C102.666 22.4702 104.697 19.5793 104.903 19.2351C105.23 18.6845 105.282 18.3748 105.282 16.7056C105.282 14.9849 105.247 14.7784 104.955 14.6063C104.49 14.3654 89.3128 14.3826 88.8999 14.6235Z" fill="white"/>
<path d="M94.9572 40.9857C94.9056 41.0373 94.441 41.1061 93.9247 41.1577C92.9439 41.2438 91.2059 41.7428 89.8637 42.3107C89.4507 42.4999 89.0378 42.672 88.9689 42.6892C88.7968 42.7409 88.2806 43.1883 87.8848 43.6012C87.6095 43.8594 87.5923 43.9626 87.7644 44.1519C87.9537 44.324 88.4699 44.3068 90.4832 44.1003C93.615 43.7561 97.0393 43.8421 97.8309 44.2551C98.6396 44.6853 98.7945 45.0983 98.6913 46.5093C98.588 47.9032 98.003 49.9853 96.9877 52.6353C96.1961 54.6658 96.1101 55.268 96.5403 55.3541C96.9017 55.4229 98.7945 53.5817 99.5172 52.4632C101.29 49.7444 102.683 44.7369 102.288 42.586C102.15 41.8805 101.875 41.6912 100.36 41.2782C99.3796 41.0201 95.1637 40.7964 94.9572 40.9857Z" fill="white"/>
<path d="M23.5798 42.6893C23.4593 42.8098 23.3733 42.9818 23.3733 43.0679C23.3733 43.2916 25.6619 45.5802 25.8856 45.5802C25.9544 45.5802 28.1742 47.2838 29.0174 47.9893C29.2239 48.1613 29.396 48.2818 29.396 48.2474C29.396 48.1958 32.545 50.2091 32.9408 50.5188C33.2161 50.7253 37.4836 52.8935 39.1183 53.6678C40.0992 54.1152 43.1965 55.2853 44.6248 55.7327C45.2959 55.9392 45.9498 56.1457 46.0874 56.1973C46.2251 56.249 46.5004 56.335 46.6897 56.3694C46.879 56.4038 47.1543 56.4727 47.292 56.5415C47.7566 56.7308 47.9287 56.7652 50.9056 57.3503C53.3835 57.8321 55.5861 58.2106 55.7409 58.1762C55.7926 58.1762 56.5325 58.2278 57.3757 58.3139C58.2188 58.3999 60.6967 58.4688 62.8649 58.4688C67.0808 58.4515 67.2701 58.4515 69.4038 58.159C70.161 58.0558 71.1762 57.9353 71.6408 57.8665C73.2928 57.6772 75.8567 57.1093 78.696 56.3178C79.9349 55.9736 81.019 55.6811 81.1051 55.6467C81.2083 55.6295 81.3976 55.5607 81.5353 55.509C81.6729 55.4402 82.4128 55.1649 83.17 54.8896C85.7339 53.9431 88.3323 52.7902 89.8121 51.947C90.6381 51.4652 91.378 51.0867 91.4813 51.0867C91.5845 51.0867 91.6878 51.035 91.7222 50.949C91.7566 50.8802 92.3073 50.4844 92.9784 50.0542C94.7507 48.9185 95.3014 48.385 95.3014 47.8344C95.3014 47.2493 94.8196 46.7847 94.2345 46.7847C93.9936 46.7847 93.3741 46.974 92.8579 47.1977C87.4203 49.6068 79.4359 51.6373 71.7269 52.5837C68.5951 52.9623 59.3373 53.0139 56.1539 52.6698C51.9552 52.2052 45.554 51.0867 45.1238 50.7253C45.0206 50.6393 44.8829 50.622 44.8313 50.6909C44.7624 50.7425 44.6076 50.7081 44.4871 50.6048C44.3495 50.4844 44.2118 50.4328 44.1602 50.4844C44.1258 50.536 43.1277 50.2951 41.9404 49.9509C40.7703 49.624 39.5141 49.2626 39.1699 49.1594C38.8086 49.0561 38.516 48.9013 38.516 48.8152C38.516 48.7292 38.4472 48.6948 38.3612 48.7464C38.1719 48.8669 33.5258 47.1117 30.9447 45.9416C28.983 45.0468 25.4382 43.2227 25.2661 43.0163C25.1457 42.8614 24.2509 42.4828 24.01 42.4828C23.8895 42.4828 23.7002 42.5689 23.5798 42.6893Z" fill="white"/>
</svg>
