<svg width="166" height="166" viewBox="0 0 166 166" fill="none" xmlns="http://www.w3.org/2000/svg">
<path d="M31.1195 114.13C20.7463 122.843 17.2886 148.707 17.2886 148.707C17.2886 148.707 43.1524 145.249 51.8659 134.876C56.7759 129.067 56.7067 120.146 51.2435 114.752C48.5555 112.187 45.0147 110.704 41.3006 110.589C37.5866 110.474 33.9609 111.735 31.1195 114.13Z" stroke="black" stroke-width="13.8309" stroke-linecap="round" stroke-linejoin="round"/>
<path d="M82.9857 103.762L62.2393 83.0158C65.9193 73.4685 70.5531 64.3168 76.0702 55.6997C84.128 42.8161 95.3479 32.2082 108.663 24.885C121.978 17.5618 136.945 13.7668 152.14 13.8611C152.14 32.6712 146.746 65.7271 110.648 89.9312C101.913 95.4548 92.6455 100.088 82.9857 103.762Z" stroke="black" stroke-width="13.8309" stroke-linecap="round" stroke-linejoin="round"/>
<path d="M62.2394 83.0125H27.6621C27.6621 83.0125 31.4656 62.0587 41.493 55.3507C52.6961 47.882 76.0704 55.3507 76.0704 55.3507" stroke="black" stroke-width="13.8309" stroke-linecap="round" stroke-linejoin="round"/>
<path d="M82.9854 103.761V138.338C82.9854 138.338 103.939 134.534 110.647 124.507C118.116 113.304 110.647 89.9297 110.647 89.9297" stroke="black" stroke-width="13.8309" stroke-linecap="round" stroke-linejoin="round"/>
</svg>
