<svg width="155" height="26" viewBox="0 0 155 26" fill="none" xmlns="http://www.w3.org/2000/svg">
<path d="M13.4682 25.6206H0.446652V24.5804H3.52867V3.54565H0.446652V2.50546H19.7093L19.8634 10.0949H18.7461L17.8986 7.24407C17.8986 7.21838 17.8857 7.1927 17.8601 7.16702C17.1152 4.75277 15.5871 3.54565 13.2756 3.54565H8.9222V13.1384H16.319V14.2942H8.9222V24.5804H13.4682V25.6206ZM26.4897 17.2606C26.4897 19.6749 26.6438 21.4342 26.952 22.5386C27.4143 24.1823 28.4417 25.0042 30.034 25.0042C30.933 25.0042 31.6649 24.7345 32.23 24.1952C33.2059 23.2192 33.6939 20.8563 33.6939 17.1065C33.6939 14.7693 33.5398 13.0614 33.2316 11.9827C32.7693 10.3132 31.7163 9.47853 30.0726 9.47853C29.0966 9.47853 28.3389 9.77389 27.7996 10.3646C26.9263 11.3663 26.4897 13.6649 26.4897 17.2606ZM30.2652 8.47688C32.474 8.47688 34.3617 9.08044 35.9284 10.2876C37.9574 11.9056 38.9719 14.1529 38.9719 17.0295C38.9719 19.1869 38.3298 21.0875 37.0456 22.7312C35.3248 24.9143 32.9491 26.0059 29.9185 26.0059C27.7097 26.0059 25.8091 25.3381 24.2167 24.0025C22.2134 22.3074 21.2118 20.0088 21.2118 17.1065C21.2118 15.0518 21.8025 13.254 22.9839 11.713C24.679 9.55558 27.1061 8.47688 30.2652 8.47688ZM60.0837 24.6189C60.2635 24.6189 60.4176 24.6318 60.546 24.6575C60.8542 24.7345 61.0083 25.0556 61.0083 25.6206H54.1508L53.9582 22.4615C53.8812 22.6156 53.8041 22.7697 53.7271 22.9238C52.5199 24.9785 50.7606 26.0059 48.4491 26.0059C44.8277 25.9802 42.9914 23.887 42.94 19.7262V10.0564H40.7055V9.05475H47.8327V20.3812C47.8327 20.7407 47.8584 21.0875 47.9097 21.4214C48.1666 23.1421 49.027 24.0025 50.4909 24.0025C50.8762 24.0025 51.2614 23.9127 51.6467 23.7329C52.9309 23.0908 53.6628 21.7681 53.8426 19.7648L53.8812 10.0564H51.9934V9.05475H58.7739V24.6189H60.0837ZM70.6396 24.6189C70.7937 24.6189 70.935 24.6318 71.0634 24.6575C71.3973 24.7088 71.5642 25.0299 71.5642 25.6206H62.5493V24.6189C62.7548 24.6189 62.9474 24.6061 63.1272 24.5804C64.2316 24.452 64.7838 23.7971 64.7838 22.6156V10.0564H62.5493V9.05475H69.4068L69.5994 12.0597C69.8306 11.5974 70.1388 11.148 70.5241 10.7113C71.8339 9.2217 73.4263 8.47688 75.3012 8.47688C75.969 8.47688 76.611 8.57961 77.2274 8.78508C79.4876 9.58127 80.6177 11.5717 80.6177 14.7565V24.6189H81.889C82.0431 24.6189 82.1972 24.6318 82.3513 24.6575C82.6852 24.7088 82.8521 25.0299 82.8521 25.6206H73.9528V24.6189C74.3124 24.6189 74.6206 24.5804 74.8774 24.5034C75.4424 24.3236 75.725 23.6943 75.725 22.6156V14.1016C75.725 13.742 75.6993 13.3953 75.6479 13.0614C75.3911 11.3406 74.5307 10.4802 73.0667 10.4802C72.6815 10.4802 72.3091 10.5701 71.9495 10.7499C70.6396 11.392 69.8948 12.7275 69.715 14.7565L69.6765 24.6189H70.6396ZM97.954 25.6206L97.4147 21.9992C97.2863 22.3331 97.1321 22.6542 96.9524 22.9624C95.7966 24.9914 94.0244 26.0059 91.6359 26.0059C90.1976 26.0059 88.8877 25.5692 87.7063 24.696C85.6259 23.1807 84.5858 20.8306 84.5858 17.6459C84.5858 15.0775 85.2535 12.9458 86.5891 11.2507C88.1301 9.3758 90.1206 8.43835 92.5605 8.43835C94.384 8.43835 95.9507 9.00339 97.2606 10.1335V1.58086H93.7548V0.579203H102.153V24.5804H103.925C104.105 24.5804 104.259 24.5933 104.388 24.6189C104.696 24.696 104.85 25.0299 104.85 25.6206H97.954ZM89.8637 17.1836C89.8637 18.1596 89.9279 19.0456 90.0563 19.8418C90.493 22.7697 91.6102 24.2337 93.408 24.2337C93.9474 24.2337 94.4482 24.0924 94.9105 23.8099C96.5286 22.7569 97.3376 20.3041 97.3376 16.4516C97.3376 15.5784 97.2863 14.7565 97.1835 13.986C96.7469 11.1351 95.604 9.70968 93.7548 9.70968C93.2411 9.70968 92.7531 9.8381 92.2908 10.0949C90.6728 11.0709 89.8637 13.4338 89.8637 17.1836ZM115.213 9.47853C113.159 9.55558 112.041 11.7258 111.862 15.9893L114.327 16.1049C115.355 16.1562 116.125 16.092 116.639 15.9122C117.358 15.6297 117.717 14.8849 117.717 13.6778C117.692 10.9296 116.857 9.5299 115.213 9.47853ZM122.418 21.6525C122.263 22.0634 122.058 22.4615 121.801 22.8468C120.491 24.9528 118.334 26.0059 115.329 26.0059C113.634 26.0059 112.118 25.6591 110.783 24.9657C107.983 23.5017 106.584 20.9077 106.584 17.1836C106.584 14.8977 107.2 12.9843 108.433 11.4433C110.051 9.46569 112.311 8.47688 115.213 8.47688C116.806 8.47688 118.231 8.74655 119.49 9.28591C121.724 10.2876 122.841 11.8799 122.841 14.063C122.841 14.4997 122.764 14.8977 122.61 15.2573C121.942 16.6956 119.541 17.3505 115.406 17.2221L111.862 17.1065C111.887 18.5962 112.016 19.8803 112.247 20.9591C112.838 23.5788 114.16 24.8886 116.215 24.8886C116.857 24.8886 117.486 24.7731 118.103 24.5419C119.644 23.9769 120.774 22.911 121.493 21.3443L122.418 21.6525ZM134.514 24.6189C134.669 24.6189 134.81 24.6318 134.938 24.6575C135.272 24.7088 135.439 25.0299 135.439 25.6206H124.536V24.6189C124.87 24.6189 125.166 24.5933 125.423 24.5419C126.321 24.3878 126.771 23.7457 126.771 22.6156V10.0564H124.536V9.05475H131.278L131.548 12.6376C131.831 11.9185 132.241 11.2507 132.781 10.6343C133.988 9.3758 135.388 8.74655 136.98 8.74655C137.314 8.74655 137.635 8.78508 137.943 8.86213C139.202 9.19601 139.831 10.005 139.831 11.2892C139.831 11.6488 139.754 11.9955 139.6 12.3294C139.163 13.3054 138.431 13.7934 137.404 13.7934C137.096 13.7934 136.813 13.7548 136.556 13.6778C136.017 13.4723 135.516 12.9586 135.054 12.1368C134.72 11.5461 134.412 11.2507 134.129 11.2507C133.975 11.2507 133.808 11.2892 133.628 11.3663C132.498 11.957 131.843 13.6007 131.664 16.2975V24.6189H134.514ZM147.575 24.9272C149.295 24.9272 150.284 24.3107 150.541 23.0779C150.567 22.8982 150.579 22.7312 150.579 22.5771C150.579 21.2673 149.758 20.1757 148.114 19.3025C147.754 19.097 147.176 18.8273 146.38 18.4934C144.454 17.6459 143.183 16.8625 142.566 16.1434C141.898 15.3729 141.565 14.4611 141.565 13.4081C141.565 11.225 142.759 9.74821 145.147 8.9777C146.149 8.64382 147.266 8.47688 148.499 8.47688C150.502 8.47688 152.069 8.83644 153.199 9.55558C153.199 8.78508 153.43 8.3613 153.893 8.28425C153.995 8.25857 154.098 8.24572 154.201 8.24572V13.0614H152.968C152.865 10.7242 151.594 9.54274 149.154 9.51706C147.51 9.51706 146.496 10.0564 146.111 11.1351C146.034 11.392 145.995 11.6488 145.995 11.9056C145.995 13.01 146.765 13.9475 148.307 14.718C148.615 14.8977 149.128 15.1417 149.848 15.4499C151.851 16.3489 153.186 17.1707 153.854 17.9156C154.625 18.7888 155.01 19.829 155.01 21.0361C155.01 23.2706 153.854 24.7731 151.543 25.5436C150.592 25.8518 149.526 26.0059 148.345 26.0059C146.085 26.0059 144.184 25.6078 142.643 24.8116C142.643 25.4793 142.476 25.8646 142.142 25.9673C141.988 25.993 141.809 26.0059 141.603 26.0059V20.15H142.913C142.964 23.3091 144.518 24.9015 147.575 24.9272Z" fill="white"/>
</svg>
