<svg width="114" height="31" viewBox="0 0 114 31" fill="none" xmlns="http://www.w3.org/2000/svg">
<path d="M22.2719 13.6028H12.7762C12.5312 13.6028 12.3326 13.798 12.3326 14.0386V18.5962C12.3326 18.8367 12.5312 19.0326 12.7762 19.0326H16.4804V24.695C16.4804 24.695 15.6487 24.9734 13.3491 24.9734C10.6363 24.9734 6.84646 24.0002 6.84646 15.819C6.84646 7.63577 10.7929 6.55936 14.4977 6.55936C17.7049 6.55936 19.0863 7.11343 19.9657 7.38076C20.242 7.46392 20.4974 7.19381 20.4974 6.95296L21.5566 2.54965C21.5566 2.43661 21.5177 2.30141 21.3872 2.20932C21.0301 1.95923 18.8519 0.762695 13.3491 0.762695C7.01022 0.762695 0.507568 3.41017 0.507568 16.1381C0.507568 28.8661 7.95235 30.7627 14.226 30.7627C19.4204 30.7627 22.5715 28.5836 22.5715 28.5836C22.7014 28.5131 22.7155 28.3348 22.7155 28.2535V14.0386C22.7155 13.798 22.5169 13.6028 22.2719 13.6028Z" fill="white"/>
<path d="M71.2086 2.28766C71.2086 2.04497 71.0128 1.84939 70.7675 1.84939H65.4209C65.1768 1.84939 64.9782 2.04497 64.9782 2.28766C64.9782 2.28859 64.9798 12.431 64.9798 12.431H56.6456V2.28766C56.6456 2.04497 56.4492 1.84939 56.2045 1.84939H50.8582C50.6151 1.84939 50.4165 2.04497 50.4165 2.28766V29.7531C50.4165 29.9955 50.6151 30.1924 50.8582 30.1924H56.2045C56.4492 30.1924 56.6456 29.9955 56.6456 29.7531V18.005H64.9798C64.9798 18.005 64.965 29.7523 64.965 29.7531C64.965 29.9955 65.1633 30.1924 65.408 30.1924H70.7671C71.0122 30.1924 71.2079 29.9955 71.2086 29.7531V2.28766Z" fill="white"/>
<path d="M32.3611 5.89161C32.3611 4.00179 30.8179 2.47448 28.9136 2.47448C27.0111 2.47448 25.4663 4.00179 25.4663 5.89161C25.4663 7.77989 27.0111 9.31152 28.9136 9.31152C30.8179 9.31152 32.3611 7.77989 32.3611 5.89161Z" fill="white"/>
<path d="M31.979 23.9592C31.979 23.2554 31.979 11.2811 31.979 11.2811C31.979 11.0403 31.7811 10.8434 31.5367 10.8434H26.2067C25.9623 10.8434 25.7437 11.0911 25.7437 11.3316C25.7437 11.3316 25.7437 26.5875 25.7437 29.4959C25.7437 30.0296 26.0825 30.1885 26.5208 30.1885C26.5208 30.1885 28.7959 30.1885 31.3227 30.1885C31.8498 30.1885 31.979 29.9344 31.979 29.4872C31.979 28.5137 31.979 24.6996 31.979 23.9592Z" fill="white"/>
<path d="M91.5276 10.8855H86.2222C85.979 10.8855 85.7807 11.0826 85.7807 11.325V24.7918C85.7807 24.7918 84.4326 25.7601 82.5195 25.7601C80.6067 25.7601 80.0991 24.9079 80.0991 23.0692C80.0991 21.2277 80.0991 11.325 80.0991 11.325C80.0991 11.0826 79.9015 10.8855 79.6577 10.8855H74.2729C74.03 10.8855 73.8308 11.0826 73.8308 11.325C73.8308 11.325 73.8308 18.4965 73.8308 23.958C73.8308 29.4206 76.9317 30.7568 81.1975 30.7568C84.6974 30.7568 87.5191 28.8585 87.5191 28.8585C87.5191 28.8585 87.6534 29.8591 87.7142 29.9774C87.7748 30.0956 87.9332 30.2155 88.1045 30.2155L91.5301 30.2003C91.773 30.2003 91.9722 30.0032 91.9722 29.7618L91.9703 11.325C91.9703 11.0826 91.7723 10.8855 91.5276 10.8855Z" fill="white"/>
<path d="M103.936 25.7427C102.096 25.6879 100.848 24.8677 100.848 24.8677V16.1701C100.848 16.1701 102.079 15.4291 103.59 15.2967C105.501 15.1285 107.342 15.6952 107.342 20.1697C107.342 24.8877 106.511 25.8188 103.936 25.7427ZM106.029 10.2678C103.016 10.2678 100.966 11.5876 100.966 11.5876V2.28752C100.966 2.04483 100.768 1.84925 100.525 1.84925H95.1629C94.9191 1.84925 94.7212 2.04483 94.7212 2.28752V29.753C94.7212 29.9954 94.9191 30.1922 95.1635 30.1922C95.1642 30.1922 98.8825 30.1922 98.8837 30.1922C99.0513 30.1922 99.178 30.1075 99.2718 29.9594C99.3644 29.8116 99.4977 28.6926 99.4977 28.6926C99.4977 28.6926 101.69 30.7324 105.84 30.7324C110.713 30.7324 113.508 28.3061 113.508 19.8401C113.508 11.3741 109.044 10.2678 106.029 10.2678Z" fill="white"/>
<path d="M47.3453 10.8412H43.3346C43.3346 10.8412 43.3287 5.64108 43.3287 5.63985C43.3287 5.44274 43.2251 5.34449 42.9933 5.34449H37.5281C37.3154 5.34449 37.2015 5.43627 37.2015 5.63677V11.0118C37.2015 11.0118 34.4627 11.661 34.2773 11.7131C34.0931 11.7657 33.9573 11.9327 33.9573 12.1319V15.5097C33.9573 15.7527 34.1549 15.9485 34.3993 15.9485H37.2015C37.2015 15.9485 37.2015 19.4812 37.2015 24.0745C37.2015 30.1101 41.5141 30.7031 44.4239 30.7031C45.7538 30.7031 47.3444 30.2836 47.607 30.1887C47.7657 30.1312 47.858 29.9697 47.858 29.7944L47.8627 26.0789C47.8627 25.8368 47.654 25.6403 47.4194 25.6403C47.1853 25.6403 46.5877 25.734 45.9721 25.734C44.0019 25.734 43.3346 24.8346 43.3346 23.6708C43.3346 22.5075 43.3343 15.9485 43.3343 15.9485H47.3453C47.5897 15.9485 47.7877 15.7527 47.7877 15.5097V11.2788C47.7877 11.0364 47.5897 10.8412 47.3453 10.8412Z" fill="white"/>
</svg>
