<svg width="166" height="54" viewBox="0 0 166 54" fill="none" xmlns="http://www.w3.org/2000/svg">
<path d="M19.4862 0.301405C17.853 0.528244 16.0382 0.906309 15.5543 1.13315C15.388 1.20876 14.9192 1.37511 14.4957 1.51121C12.8171 2.07075 10.6092 3.26543 8.90038 4.56598C2.80597 9.20862 -0.354655 17.0421 0.945889 24.2556C1.11224 25.1327 1.29371 26.0401 1.38444 26.2972C1.46006 26.5391 1.61128 27.0533 1.73226 27.4314C1.92886 28.1421 1.9591 28.2026 2.79085 29.9266C4.18213 32.815 6.49589 35.6278 8.97599 37.4576C9.52041 37.8508 10.0951 38.2743 10.2614 38.4104C10.4278 38.5313 11.3502 39.0153 12.303 39.4689C13.2557 39.9377 14.163 40.3763 14.2991 40.4519C14.4504 40.5275 14.6772 40.588 14.8133 40.588C14.9494 40.588 15.267 40.6788 15.5241 40.7997C17.3085 41.5559 21.7546 41.9944 24.2347 41.6617C26.7753 41.3139 28.0758 41.0266 29.6183 40.4217C30.0871 40.2402 32.1589 39.2421 32.4916 39.0304C34.6995 37.6542 37.2401 35.1893 38.4197 33.2536C39.2212 31.9379 40.189 29.5939 40.5671 28.0363C41.1115 25.7679 41.3384 20.6111 40.9301 19.6735L40.7335 19.2652H31.5389C24.5825 19.2652 22.299 19.3105 22.1629 19.4466C22.0419 19.5676 21.9814 20.3842 21.9814 22.0931V24.5581H28.711H35.4405L35.5313 24.9361C35.6825 25.5562 35.3801 27.2045 34.8961 28.2933C34.7752 28.5504 34.6844 28.8226 34.6844 28.8982C34.6844 29.1856 33.2931 31.333 32.6882 31.9833C29.0739 35.8395 23.7205 37.2459 17.7471 35.9151C16.6885 35.6883 13.6489 34.3121 13.3615 33.9341C13.3162 33.8887 13.044 33.6921 12.7566 33.5106C12.2274 33.1931 9.95896 30.8944 9.32381 30.0476C8.94575 29.5334 7.75106 27.1894 7.41836 26.2972C6.60174 24.0741 6.32954 21.2765 6.67736 18.7359C7.16128 15.3333 8.62817 12.3541 11.0175 9.96475C11.7888 9.1935 13.2406 8.04418 13.9665 7.63587C14.6923 7.22756 16.0685 6.56216 16.2046 6.56216C16.2802 6.56216 16.5524 6.4563 16.7793 6.33532C17.0212 6.21434 17.369 6.10848 17.5656 6.10848C17.7622 6.10848 18.0344 6.04799 18.1857 5.95726C18.3369 5.88165 19.214 5.73042 20.1365 5.63968C22.8888 5.33723 26.2158 5.8514 27.9851 6.83437C28.1666 6.94023 28.3934 7.01584 28.4842 7.01584C28.6807 7.01584 29.6335 7.62074 31.0247 8.6642L32.1287 9.48083L33.9132 7.75685C34.8961 6.80412 35.7128 5.94214 35.7279 5.83628C35.8035 5.11039 30.6618 1.79854 28.711 1.32974C28.469 1.26925 28.1968 1.17852 28.1061 1.11803C27.8944 0.951677 26.6089 0.664347 25.4596 0.513121C24.9152 0.437508 24.0381 0.316527 23.4937 0.225792C22.2688 0.0291978 21.4068 0.0443204 19.4862 0.301405Z" fill="white"/>
<path d="M132.376 21.3821V41.0415L135.144 41.0113L137.896 40.9659V21.3821V1.79835L135.144 1.75298L132.376 1.72274V21.3821Z" fill="white"/>
<path d="M53.9658 15.4546C51.0017 16.1805 48.5065 17.6776 46.7523 19.7948C45.2249 21.6246 44.4083 23.3637 43.8941 25.8438C43.5765 27.3712 43.5161 29.6396 43.7731 30.7133C44.741 34.8267 46.465 37.5336 49.3534 39.4542C51.7276 41.0269 54.0263 41.7075 57.0659 41.7075C62.2832 41.7226 66.7293 39.0005 69.0128 34.4032C69.2699 33.9042 69.4664 33.39 69.4664 33.269C69.4664 33.1481 69.5269 33.012 69.6025 32.9666C69.6782 32.9061 69.784 32.5885 69.8445 32.2256C69.905 31.8778 70.026 31.4695 70.1016 31.3182C70.3284 30.8646 70.2831 26.2673 70.026 25.2994C69.6328 23.8477 69.3152 23.0008 68.7557 21.9876C66.8351 18.5245 64.0526 16.483 59.8333 15.4244C58.6084 15.1068 55.2512 15.137 53.9658 15.4546ZM58.6992 20.2636C61.028 20.8988 62.994 22.4715 63.8862 24.4072C64.6877 26.1161 64.7028 26.2068 64.7028 28.5054C64.7028 29.8362 64.6423 30.8494 64.5365 31.0763C64.4306 31.2729 64.1433 31.908 63.8711 32.4827C63.1603 33.9798 61.6783 35.4467 60.1207 36.1575C58.9714 36.7019 58.926 36.7019 56.9903 36.717H55.0244L53.8448 36.1423C51.7428 35.114 50.4876 33.6774 49.6407 31.3334C49.2475 30.2445 49.2022 29.9118 49.2022 28.3542C49.2022 27.099 49.2626 26.479 49.429 26.1614C49.55 25.9346 49.6558 25.6473 49.6558 25.5414C49.6558 24.8458 51.1076 22.6681 52.1511 21.8061C53.9204 20.3392 56.6425 19.6889 58.6992 20.2636Z" fill="white"/>
<path d="M83.8329 15.4086C83.5456 15.5145 83.1221 15.6204 82.8953 15.6204C82.4416 15.6355 82.1996 15.7262 80.4303 16.5428C77.8292 17.7526 75.8633 19.7035 74.5476 22.4104C73.4285 24.709 73.0202 26.6447 73.1412 28.9434C73.2622 30.8488 73.4285 31.8167 73.9125 33.1475C75.6062 37.7599 79.4776 40.8449 84.5588 41.6312C86.5096 41.9337 88.037 41.8278 90.26 41.2229C94.3733 40.119 97.8213 36.8374 99.1067 32.7996C99.2882 32.2099 99.4999 31.5898 99.5755 31.3932C99.8175 30.7883 99.7419 26.0701 99.4848 25.2232C99.3487 24.8149 99.1672 24.2402 99.0765 23.9529C98.6077 22.4407 97.5188 20.6108 96.2485 19.2347C95.4017 18.2971 93.4357 16.9209 92.2259 16.3916C91.8176 16.2101 91.243 15.9682 90.9708 15.8472C90.6985 15.7262 90.3205 15.6355 90.1239 15.6355C89.9273 15.6355 89.4736 15.5296 89.1258 15.4086C88.2789 15.1062 84.6041 15.1062 83.8329 15.4086ZM88.1882 20.263C90.2902 20.8225 92.1201 22.1836 93.0728 23.8773C93.7836 25.1174 93.965 25.6769 94.1314 26.9018C94.207 27.4765 94.2977 28.036 94.328 28.1268C94.4187 28.3687 94.0255 31.121 93.844 31.4537C93.7684 31.6201 93.5114 32.1494 93.2694 32.6484C92.6191 33.9943 91.1069 35.4461 89.6248 36.1417C88.4604 36.7013 88.4302 36.7013 86.4793 36.7013C84.5436 36.7013 84.4983 36.7013 83.349 36.172C81.2923 35.2041 79.7044 33.2987 78.9332 30.8488C78.7668 30.3498 78.6912 29.5332 78.6912 28.4292C78.6912 26.9774 78.7517 26.5842 79.1298 25.5105C79.6288 24.1041 80.1581 23.2875 81.2318 22.2289C83.0919 20.4142 85.8744 19.6127 88.1882 20.263Z" fill="white"/>
<path d="M112.793 15.4242C109.239 16.4374 106.834 18.0858 104.899 20.8835C104.4 21.5791 103.341 23.7265 103.341 24.029C103.341 24.1651 103.265 24.4222 103.16 24.6036C102.464 25.8891 102.449 30.6527 103.129 32.2406C103.25 32.5128 103.341 32.8455 103.341 32.9664C103.341 33.3294 104.49 35.5222 105.141 36.4144C107.273 39.2877 110.177 41.0722 113.715 41.6619C115.076 41.8888 117.692 41.6619 118.691 41.2234C119.946 40.679 120.838 40.1346 121.534 39.5145C122.259 38.8794 122.38 38.8038 122.622 38.9852C122.879 39.1667 122.895 39.3633 122.789 41.2385C122.713 42.8415 122.607 43.5069 122.32 44.3084C121.488 46.607 120.036 48.0286 117.874 48.6637C116.694 49.0115 114.214 48.9964 113.156 48.6183C111.326 47.9983 109.662 46.5314 108.725 44.7167L108.483 44.2177L107.908 44.4747C107.606 44.6109 107.152 44.8074 106.895 44.8982C106.003 45.2762 105.67 45.4124 104.974 45.7148C104.581 45.8963 104.203 46.0324 104.112 46.0324C103.765 46.0324 103.78 46.4104 104.188 47.2119C104.415 47.6959 104.657 48.1042 104.702 48.1495C104.747 48.1949 104.899 48.4066 105.035 48.6183C105.488 49.3442 106.744 50.6145 107.727 51.3555C108.71 52.1117 110.978 53.2912 111.432 53.2912C111.553 53.2912 111.78 53.3668 111.931 53.4425C112.067 53.5332 112.914 53.6844 113.791 53.7903C115.106 53.9566 115.696 53.9566 117.118 53.8054C118.055 53.6995 119.008 53.5332 119.22 53.4576C119.432 53.382 119.81 53.2761 120.052 53.2156C120.535 53.1098 122.668 52.0814 123.091 51.7487C124.498 50.6599 126.63 47.9983 126.63 47.3178C126.63 47.2119 126.69 47.0758 126.781 47.0153C126.978 46.8944 127.492 45.0948 127.84 43.3103C127.915 42.9322 127.961 36.6412 127.946 29.3219L127.915 16.014H125.42H122.925L122.849 16.9062C122.759 17.9648 122.411 18.3429 122.018 17.7985C121.518 17.0877 119.628 16.0291 117.783 15.4242C116.815 15.1067 113.882 15.1067 112.793 15.4242ZM117.632 20.3088C119.023 20.7474 119.81 21.2162 120.808 22.2294C121.76 23.1972 122.486 24.4675 122.91 25.9042C123.227 26.9779 123.242 29.9419 122.925 31.0761C122.305 33.2991 120.793 35.1743 118.857 36.1573C117.798 36.7017 117.768 36.7017 115.817 36.7169C114.29 36.7169 113.745 36.6715 113.398 36.4749C113.156 36.3539 112.672 36.1119 112.354 35.9607C110.797 35.2197 109.42 33.6016 108.619 31.56C108.195 30.4863 108.165 30.2293 108.165 28.5658C108.15 26.9325 108.195 26.6301 108.604 25.5261C109.587 22.8192 111.401 21.065 114.003 20.3088C115.197 19.961 116.513 19.961 117.632 20.3088Z" fill="white"/>
<path d="M151.416 15.2574C151.37 15.2877 150.902 15.4389 150.357 15.575C147.832 16.2253 145.276 17.919 143.749 19.9757C142.902 21.125 142.055 22.6524 142.055 23.0304C142.055 23.1665 141.964 23.4085 141.843 23.5748C141.737 23.7412 141.601 24.0739 141.556 24.331C141.511 24.5729 141.405 25.0569 141.314 25.3896C141.223 25.7223 141.148 27.053 141.148 28.3385C141.148 32.0133 141.828 34.1607 143.839 36.792C145.745 39.2872 148.573 40.981 151.733 41.5254C152.883 41.722 155.378 41.7522 156.573 41.5859C159.506 41.1624 162.788 39.2116 164.709 36.7466C164.89 36.5047 165.041 36.2325 165.041 36.1266C165.041 35.9451 161.714 33.586 161.2 33.3894C161.064 33.3441 160.55 33.7524 159.869 34.4329C159.023 35.2949 158.478 35.6881 157.556 36.1266L156.346 36.7164H154.229C152.111 36.7164 152.111 36.7164 151.053 36.2022C149.843 35.5973 149.072 34.947 148.24 33.828C147.635 33.0114 147.514 32.5728 147.847 32.3157C147.938 32.225 148.784 31.862 149.692 31.5142C150.614 31.1513 151.491 30.7581 151.658 30.6522C151.824 30.5464 152.036 30.4556 152.157 30.4556C152.263 30.4556 152.716 30.2893 153.14 30.0927C153.578 29.9112 154.471 29.518 155.136 29.2458C156.437 28.7165 156.573 28.6712 157.707 28.1872C158.448 27.8697 158.735 27.7487 159.673 27.3404C159.93 27.2345 160.459 27.0228 160.852 26.8867C161.246 26.7506 161.608 26.5691 161.654 26.5086C161.699 26.433 161.835 26.3725 161.971 26.3725C162.092 26.3725 162.44 26.2667 162.743 26.1306C163.287 25.8886 163.65 25.7374 164.784 25.2535C165.162 25.1022 165.344 24.9208 165.344 24.7242C165.344 24.4671 164.89 23.3631 164.194 21.9114C163.499 20.4747 162.062 18.7205 160.656 17.5863C159.673 16.7999 157.45 15.6355 156.92 15.6355C156.754 15.6355 156.361 15.5296 156.074 15.4086C155.68 15.2423 154.955 15.1818 153.503 15.1818C152.384 15.1818 151.446 15.212 151.416 15.2574ZM155.817 20.2781C157.359 20.8528 158.841 22.1231 158.841 22.849C158.841 23.1363 158.433 23.4085 157.253 23.8924C156.603 24.1495 155.953 24.4217 155.438 24.6486C155.196 24.7544 154.44 25.0569 153.775 25.3139C153.11 25.5862 152.293 25.9189 151.96 26.0701C151.628 26.2213 150.977 26.4935 150.524 26.675C150.07 26.8565 149.495 27.0984 149.238 27.2043C148.739 27.4311 147.998 27.7336 147.227 28.036C146.577 28.2931 146.395 28.0814 146.501 27.1287C146.864 23.8622 148.769 21.3669 151.733 20.3084C152.686 19.9605 154.924 19.9454 155.817 20.2781Z" fill="white"/>
</svg>
