<svg width="196" height="40" viewBox="0 0 196 40" fill="none" xmlns="http://www.w3.org/2000/svg">
<path d="M14.983 0.791218C14.6207 0.930537 14.3421 0.986265 14.3421 0.930537C14.3421 0.763354 11.9737 2.07295 10.6083 2.99246C6.26158 5.8903 2.44423 13.2185 1.35754 20.7139C-0.0356518 30.299 2.55569 37.3207 8.07273 38.909C12.5031 40.1907 16.6269 39.0483 19.6641 35.6767C20.7786 34.4507 22.7012 31.943 23.3978 30.7448C23.6765 30.2712 24.3173 29.2681 24.791 28.5157C25.2926 27.7356 26.1842 26.1752 26.8251 25.0328C28.5248 21.8563 29.9458 19.3485 30.2245 19.0699C30.4753 18.8191 32.1471 21.2711 32.1749 21.8841C32.1749 22.0513 32.2864 22.2464 32.3979 22.3021C32.5093 22.33 33.0945 23.1937 33.7075 24.1968C37.9149 31.2743 39.5031 33.5591 41.983 36.0947C44.7137 38.8811 47.918 39.9399 51.6239 39.2712C56.6115 38.3795 59.3143 34.2836 59.6766 27.0947C60.2617 16.0049 55.3298 5.08225 48.1688 1.59927C46.3576 0.707626 46.079 0.651899 43.3205 0.651899C40.4505 0.651899 40.3669 0.679763 38.4443 1.71072C36.5496 2.76955 32.8994 6.11321 31.8127 7.84077L31.3112 8.59309L28.3297 5.5838C25.3204 2.54664 23.7879 1.51568 21.1687 0.819082C19.8313 0.456852 15.8467 0.456852 14.983 0.791218ZM45.8004 6.08535C50.6487 8.53737 53.8251 15.5869 54.1038 24.4755C54.271 29.3238 54.0202 30.5498 52.5155 32.0544C51.5682 33.0018 51.3174 33.1133 50.0357 33.1133C47.5001 33.1133 46.3855 32.138 42.9304 26.9275C40.4505 23.138 34.1254 12.7727 34.1254 12.4662C34.1254 12.0482 37.4412 7.8965 38.3607 7.17204C40.9521 5.16584 43.3205 4.80361 45.8004 6.08535ZM21.5031 7.81291C23.0635 8.73241 24.2059 9.87483 26.3235 12.6334L27.4938 14.138L24.9025 18.1225C19.2461 26.8996 17.5186 29.4074 16.1811 30.8284C14.4257 32.6953 13.6176 33.1133 11.8901 33.1133C8.3235 33.1133 6.67953 29.6303 7.3204 23.3888C7.73836 19.4321 8.54641 16.5064 10.0232 13.4693C13.1161 7.1999 17.1563 5.1937 21.5031 7.81291Z" fill="white"/>
<path d="M72.2988 20.1561V38.6855H75.2245H78.1502L78.206 28.571C78.206 23.0261 78.206 16.6731 78.1502 14.444C78.0945 10.766 78.1224 10.4595 78.5403 10.7938C78.7911 10.9889 78.9026 11.2675 78.819 11.4068C78.7354 11.5462 78.7911 11.6576 78.9304 11.6576C79.1812 11.6576 79.7385 12.6607 79.7663 13.1623C79.7663 13.3016 79.8778 13.4966 80.045 13.5802C80.3793 13.8031 83.723 19.8496 83.723 20.2397C83.723 20.4347 83.8345 20.574 83.9459 20.574C84.0852 20.574 84.4196 21.1035 84.7261 21.7443C85.0047 22.4131 85.3112 22.9982 85.4227 23.0818C85.5063 23.1654 86.1472 24.2799 86.8159 25.5895C87.4846 26.8991 88.1255 28.0137 88.2091 28.0973C88.2927 28.1809 88.5992 28.6546 88.8499 29.1282L89.3236 30.0478H92.0822H94.8407L95.3144 29.1282C95.5651 28.6546 95.8716 28.1809 95.9552 28.0973C96.0667 28.0137 96.3732 27.4286 96.6518 26.7598C96.9583 26.119 97.2927 25.5895 97.432 25.5895C97.5435 25.5895 97.6271 25.5059 97.5992 25.3666C97.5435 25.1437 98.463 23.3047 98.7416 23.0818C98.8531 22.9982 99.1596 22.4131 99.4382 21.7443C99.7447 21.1035 100.051 20.574 100.135 20.574C100.218 20.574 100.525 20.0168 100.804 19.3202C101.11 18.6236 101.444 18.0663 101.584 18.0663C101.723 18.0663 101.807 17.9827 101.779 17.8434C101.723 17.6205 102.643 15.7815 102.921 15.5586C103.033 15.475 103.339 14.8898 103.618 14.2211C103.924 13.5802 104.231 13.0508 104.342 13.0508C104.426 13.0508 104.677 12.6329 104.844 12.1034C105.039 11.574 105.373 10.9889 105.624 10.7938C106.014 10.4873 106.042 11.7691 106.014 23.249C105.986 30.2707 105.986 36.6236 105.986 37.3481L106.014 38.6855H108.94H111.865V20.1561V1.62664H108.299H104.76L102.42 5.86194C101.11 8.2025 99.9676 10.153 99.8283 10.2087C99.7168 10.2644 99.6054 10.4316 99.6054 10.5988C99.6054 10.766 97.9614 13.8867 95.9274 17.5648C93.0295 22.8589 92.1936 24.1406 91.9428 23.862C91.7478 23.6669 91.0512 22.4409 90.3825 21.1313C89.7137 19.8217 89.0729 18.7072 88.9893 18.6236C88.8778 18.54 88.1812 17.314 87.4568 15.9208C86.7044 14.4997 85.7571 12.7443 85.3391 12.0199C84.4475 10.4873 83.1657 8.11891 82.3298 6.50281C81.9954 5.88981 81.271 4.5802 80.6858 3.57711L79.627 1.76596L75.949 1.68237L72.2988 1.59877V20.1561Z" fill="white"/>
<path d="M150.875 7.06039V11.1006H148.228H145.581V13.4691V15.8375H148.2H150.819L150.959 23.9737C151.098 33.2524 151.265 34.3112 153.02 36.4289C154.72 38.4351 156.281 39.0759 159.791 39.1874C161.463 39.2431 163.219 39.1595 163.915 38.9923L165.085 38.658V36.3731V34.0883H162.048C159.039 34.0883 158.983 34.0604 158.147 33.2803C157.674 32.8066 157.144 31.9985 157.005 31.4691C156.866 30.9118 156.726 27.1781 156.726 23.1378V15.8375H160.906H165.085V13.4691V11.1006H160.906H156.726V7.06039V3.02013H153.801H150.875V7.06039Z" fill="white"/>
<path d="M126.522 11.1283C120.364 13.2739 117.215 18.4008 117.522 25.7569C117.633 28.9333 117.689 29.1284 118.386 31.1346C118.887 32.4999 120.671 35.0355 122.008 36.2615C123.345 37.4875 126.55 38.9086 128.723 39.243C132.318 39.8281 137.166 38.9922 139.785 37.3761C140.37 37.0139 140.9 36.7352 140.955 36.7352C141.039 36.7352 141.485 36.373 141.986 35.9272L142.878 35.0912L141.596 33.503C140.872 32.6392 140.287 31.8312 140.287 31.6919C140.287 31.1903 139.451 31.4689 138.587 32.277C138.085 32.7228 137.584 33.0293 137.445 32.9457C137.333 32.8621 137.222 32.9179 137.222 33.0851C137.222 33.2522 136.33 33.6423 135.243 33.9767C131.565 35.0912 127.553 34.3389 125.463 32.082C124.516 31.0789 123.596 29.2398 123.373 28.0138L123.234 27.0107L133.349 26.9829C138.893 26.9829 143.519 26.8993 143.602 26.8436C143.909 26.5092 143.101 20.6021 142.516 18.9024C141.262 15.3079 138.448 12.2708 135.41 11.2119C134.547 10.9333 132.875 10.7104 131.092 10.6547C128.695 10.5711 127.887 10.6547 126.522 11.1283ZM134.045 16.1717C134.686 16.4503 135.466 16.9798 135.773 17.3141C136.692 18.2894 137.556 20.2398 137.723 21.5773L137.862 22.8033H130.562C122.342 22.7754 122.9 22.9426 123.736 20.5185C125.157 16.2832 129.949 14.2491 134.045 16.1717Z" fill="white"/>
<path d="M177.485 10.8779C177.262 11.0172 177.067 11.0729 177.067 10.9893C177.067 10.9057 176.231 11.268 175.172 11.7974C169.878 14.5002 167.175 20.6024 168.15 27.5962C168.903 32.8624 172.023 37.1256 176.342 38.7417C177.652 39.2433 181.999 39.5219 183.197 39.1875C185.732 38.4909 187.934 37.1535 189.02 35.6767L189.578 34.9244L189.606 36.7913V38.686H192.392H195.178V24.8934V11.1008H192.392H189.606V12.8283L189.578 14.5838L188.965 13.8872C186.903 11.5745 184.033 10.4599 180.383 10.5714C179.017 10.6271 177.736 10.7664 177.485 10.8779ZM184.757 16.0606C186.485 16.6736 187.599 17.5373 188.742 19.1813L189.606 20.4352V24.9213C189.606 29.3516 189.606 29.3795 188.798 30.6333C187.906 32.0544 185.872 33.5312 184.2 33.977C182.556 34.4228 179.38 34.1442 178.014 33.4476C174.392 31.6086 172.72 25.6736 174.42 20.881C175.897 16.6736 180.438 14.5838 184.757 16.0606Z" fill="white"/>
</svg>
