<svg width="214" height="46" viewBox="0 0 214 46" fill="none" xmlns="http://www.w3.org/2000/svg">
<path d="M0.48877 11.0568V21.9033H11.42H22.3513V11.0568V0.210286H11.42H0.48877V11.0568Z" fill="white"/>
<path d="M24.385 11.0568V21.9033H35.2315H46.078V11.0568V0.210286H35.2315H24.385V11.0568Z" fill="white"/>
<path d="M198.133 7.34511C196.709 7.56543 195.489 8.1247 194.421 9.09072C192.845 10.5143 192.184 12.4633 192.167 15.7512V16.9883H190.642H189.116V18.9373V20.8863H190.642H192.167V28.767V36.6477H194.624H197.082V28.767V20.8863H200.37H203.658L203.725 26.7672C203.793 31.682 203.861 32.8175 204.098 33.5462C204.539 34.902 205.301 35.8003 206.64 36.4782C207.793 37.0544 207.861 37.0713 209.691 37.0375C210.809 37.0375 211.877 36.9188 212.335 36.7663L213.097 36.529L213.148 34.4614C213.165 33.3429 213.165 32.4107 213.131 32.4107C213.097 32.4107 212.826 32.5294 212.538 32.6649C211.691 33.1056 210.471 33.1564 209.793 32.8005C208.742 32.2582 208.623 31.5972 208.606 25.835V20.8863H210.894H213.182V18.9373V16.9883H210.894H208.606V14.1072C208.606 11.4465 208.589 11.2261 208.301 11.2261C208.047 11.2261 206.606 11.6498 203.912 12.4972C203.742 12.548 203.691 13.1582 203.691 14.7851V16.9883H200.387H197.082V15.6664C197.099 13.531 197.455 12.3108 198.251 11.8024C199.099 11.2261 200.132 11.1922 201.793 11.6668C202.166 11.7685 202.166 11.7685 202.166 9.65V7.53154L201.285 7.42985C199.471 7.20953 199.183 7.19258 198.133 7.34511Z" fill="white"/>
<path d="M94.4127 8.95533C92.8705 9.73492 92.3959 11.8195 93.4806 13.0906C94.0907 13.8193 94.7347 14.1074 95.7346 14.1074C97.4972 14.1074 98.6157 13.0736 98.6157 11.4636C98.6157 10.5145 98.209 9.73492 97.3955 9.14175C96.7515 8.66722 95.1754 8.56553 94.4127 8.95533Z" fill="white"/>
<path d="M59.4666 22.92V36.6476H61.7545H64.0424L64.0763 26.3434L64.1272 16.0562L64.6695 17.412C64.9745 18.1577 65.5169 19.4965 65.8728 20.3778C66.2456 21.2591 66.8049 22.6319 67.1439 23.4284C67.4659 24.225 68.1607 25.9028 68.6691 27.1569C69.1776 28.411 69.9233 30.2075 70.3131 31.1396C70.7029 32.0717 71.3638 33.6987 71.7875 34.7495L72.5502 36.6646L74.2449 36.6137L75.9397 36.5629L76.2278 35.8002C76.3973 35.3765 77.3464 33.0208 78.3463 30.5464C80.6003 25.0215 84.0407 16.4968 84.1932 16.107C84.2441 15.9545 84.278 20.5134 84.2441 26.2417L84.1763 36.6476H86.6506H89.125V22.92V9.19236H85.8202C82.5493 9.19236 82.4985 9.19236 82.3459 9.56521C82.0917 10.1753 78.77 18.3272 76.9905 22.7166C76.1092 24.8859 75.194 27.2247 74.9398 27.8857C74.4314 29.3262 74.2788 29.5296 74.1263 29.0042C73.8043 27.9195 70.4317 19.3101 67.3811 11.7854L66.3304 9.19236H62.9069H59.4666V22.92Z" fill="white"/>
<path d="M109.123 16.7168C105.869 17.4456 103.514 19.1912 102.259 21.8011C99.4292 27.6989 101.632 34.461 107.056 36.4778C109.428 37.376 112.801 37.3252 115.241 36.3422L116.496 35.8507L116.546 33.6136C116.563 32.3934 116.546 31.3935 116.496 31.3935C116.445 31.3935 115.885 31.6647 115.258 32.0036C113.259 33.0713 111.716 33.3086 110.038 32.8171C107.242 32.0036 105.869 29.614 106.157 26.055C106.276 24.3772 106.785 23.2078 107.852 22.157C109.039 20.9537 109.886 20.6487 111.92 20.6487C113.564 20.6487 113.648 20.6656 115.021 21.3605C115.784 21.7503 116.462 22.0723 116.496 22.0723C116.546 22.0723 116.58 21.0385 116.58 19.7674V17.4794L115.987 17.2252C114.343 16.5473 111.021 16.2931 109.123 16.7168Z" fill="white"/>
<path d="M138.9 16.7506C135.46 17.4285 132.664 20.1062 131.715 23.6144C131.308 25.1227 131.325 29.258 131.749 30.4612C132.867 33.7491 135.308 36.054 138.443 36.8336C139.816 37.1725 143.358 37.1217 144.629 36.7488C148.222 35.6811 150.73 32.7831 151.408 28.9529C151.73 27.0887 151.73 26.1057 151.425 24.3601C150.832 21.0044 149.256 18.7504 146.646 17.4963C144.629 16.5303 141.527 16.2252 138.9 16.7506ZM143.764 20.9705C144.544 21.3434 145.476 22.2755 145.9 23.0721C146.832 24.9194 146.764 28.9021 145.764 30.7833C144.68 32.7831 142.307 33.5457 139.561 32.7492C138.511 32.4441 137.223 31.0375 136.782 29.6986C136.274 28.1903 136.257 25.4617 136.765 23.9872C137.324 22.2925 138.629 21.0214 140.138 20.6994C141.036 20.496 143.087 20.6485 143.764 20.9705Z" fill="white"/>
<path d="M158.78 16.7171C157.34 17.056 156.238 17.6492 155.187 18.683C154.374 19.5134 154.17 19.8354 153.848 20.8692C153.374 22.4962 153.459 23.7334 154.204 25.2248C154.848 26.5298 155.831 27.3433 157.865 28.2754C161.017 29.699 161.831 30.2921 161.831 31.1904C161.831 32.1056 161.543 32.5801 160.78 32.919C159.356 33.5631 157.39 33.258 154.899 32.0039C154.238 31.6649 153.662 31.3937 153.611 31.3937C153.56 31.3937 153.526 32.4276 153.526 33.6817V35.9696L154.17 36.2238C156.069 37.0373 159.95 37.3424 161.746 36.834C163.729 36.2747 165.424 35.0036 166.186 33.5292C166.593 32.7665 166.644 32.4615 166.644 30.9701C166.661 29.4448 166.61 29.1905 166.203 28.411C165.525 27.1229 164.593 26.4281 161.695 25.0045C158.933 23.6487 158.441 23.225 158.441 22.1742C158.441 21.4285 159.373 20.615 160.39 20.4625C161.475 20.293 163.237 20.615 164.542 21.2421C165.119 21.5132 165.627 21.7336 165.661 21.7336C165.695 21.7336 165.729 20.7337 165.729 19.5304V17.3272L165.271 17.1407C163.644 16.5306 160.543 16.3273 158.78 16.7171Z" fill="white"/>
<path d="M176.168 16.751C172.728 17.4289 170.118 19.7846 169.067 23.1741C168.339 25.5129 168.372 28.9364 169.152 31.0548C170.186 33.8512 172.355 35.868 175.304 36.7492C176.829 37.2068 180.321 37.1729 181.914 36.6814C184.439 35.9019 186.591 34.0885 187.676 31.8175C188.557 29.9702 188.676 29.3431 188.676 26.6484C188.676 22.8691 188.117 21.2421 186.066 19.1745C184.795 17.8865 183.71 17.2764 181.863 16.8188C180.321 16.429 177.914 16.3951 176.168 16.751ZM180.405 20.8015C181.541 21.1235 182.558 22.0386 183.134 23.225C183.592 24.1571 183.608 24.2757 183.608 26.8179C183.608 29.1906 183.575 29.5295 183.219 30.2922C182.744 31.309 181.981 32.1395 181.066 32.631C180.253 33.0546 177.948 33.1394 176.795 32.7835C175.914 32.5123 174.626 31.2921 174.186 30.3091C173.643 29.0889 173.44 27.1907 173.643 25.5807C174.016 22.886 175.135 21.293 177.084 20.6998C177.795 20.4795 179.524 20.5303 180.405 20.8015Z" fill="white"/>
<path d="M127.715 16.8865C126.664 17.2593 125.698 18.0389 125.156 18.9202L124.631 19.7506L124.58 18.3779L124.529 16.9881H122.173H119.801V26.8178V36.6475H122.156H124.529L124.58 30.8344C124.631 25.9535 124.698 24.9027 124.936 24.174C125.292 23.0893 125.817 22.3267 126.63 21.6657C127.258 21.1742 127.376 21.1403 128.664 21.1403C129.63 21.1573 130.223 21.242 130.596 21.4454C130.901 21.5979 131.172 21.7335 131.24 21.7335C131.291 21.7335 131.325 20.6658 131.325 19.3608V16.9881L130.884 16.8187C130.274 16.5814 128.478 16.6153 127.715 16.8865Z" fill="white"/>
<path d="M93.3621 26.8178V36.6475H95.7347H98.1074V26.8178V16.9881H95.7347H93.3621V26.8178Z" fill="white"/>
<path d="M0.607403 24.0554C0.539613 24.1063 0.48877 29.0381 0.48877 34.9867V45.7993H11.42H22.3513V34.8681V23.9368H11.5387C5.59002 23.9368 0.658246 23.9876 0.607403 24.0554Z" fill="white"/>
<path d="M24.385 34.8681V45.7993H35.2315H46.078V34.8681V23.9368H35.2315H24.385V34.8681Z" fill="white"/>
</svg>
