<svg width="177" height="58" viewBox="0 0 177 58" fill="none" xmlns="http://www.w3.org/2000/svg">
<path d="M9.5828 8.10755C9.22907 8.51569 8.92977 9.54966 8.63046 11.3727C8.41278 12.842 7.21555 20.3791 5.99111 28.1067C4.16806 39.562 3.81433 42.283 4.08643 42.6095C4.549 43.1537 11.7052 43.2081 11.7052 42.6639C11.7052 42.0381 15.7594 17.3044 15.9227 16.8419C16.3852 15.6719 17.0111 15.563 23.8407 15.563C28.1126 15.563 30.9153 15.6719 32.0581 15.9167L33.7451 16.2705V15.0188C33.7451 14.3386 33.5002 13.2502 33.2009 12.5972C32.9288 11.9713 32.7383 11.4543 32.8199 11.4543C33.2009 11.4543 30.0173 8.97826 29.4731 8.84221C29.1194 8.73337 28.8473 8.57011 28.8473 8.40685C28.8473 8.2708 28.7385 8.21639 28.6024 8.29801C28.4936 8.37964 27.9766 8.29801 27.4596 8.13476C26.9154 7.94429 23.2693 7.75382 18.3171 7.67219C10.127 7.50893 10.127 7.50893 9.5828 8.10755Z" fill="white"/>
<path d="M128.054 16.6243C123.129 16.7331 122.068 16.842 121.877 17.1685C121.66 17.5766 118.095 39.7526 118.095 40.7593C118.095 41.0859 118.259 41.3852 118.476 41.4668C118.993 41.6845 123.728 41.5756 123.945 41.358C124.027 41.2491 124.354 39.671 124.653 37.8207C125.388 32.9774 125.224 33.2222 128.081 33.2222C135.591 33.195 139.319 30.1475 139.836 23.5628C139.972 21.6853 139.918 21.2227 139.428 20.1616C138.611 18.5018 137.822 17.8215 135.782 17.1141C134.095 16.5154 133.741 16.4882 128.054 16.6243ZM132.19 21.9846C132.544 22.2023 132.952 22.6921 133.088 23.1002C133.496 24.107 132.952 26.447 132.163 27.1817C131.374 27.9163 129.687 28.3245 127.755 28.2973L126.204 28.2429L126.367 27.2633C126.476 26.7191 126.612 25.8484 126.694 25.3314C127.183 21.6581 127.183 21.6853 127.891 21.522C128.952 21.2772 131.483 21.5493 132.19 21.9846Z" fill="white"/>
<path d="M56.6556 16.9507C56.5196 17.1412 55.54 22.6375 54.4789 29.1407C52.7374 39.9701 52.6286 41.0041 53.0367 41.3306C53.5809 41.766 58.0433 41.6844 58.5059 41.2218C58.6692 41.0585 59.0773 39.3443 59.3766 37.4124C59.6759 35.4805 60.0569 33.7391 60.1929 33.5486C60.3834 33.331 61.2269 33.2221 62.5602 33.2221C70.2877 33.2221 74.0427 30.1746 74.478 23.5354C74.6685 20.9233 74.0971 19.2907 72.6278 18.1751C70.8047 16.8146 69.6347 16.6242 63.0227 16.6242C58.4787 16.6242 56.8733 16.7058 56.6556 16.9507ZM67.1042 22.175C67.7572 22.7192 67.8661 23.0185 67.8388 24.1613C67.8116 26.9639 66.5056 28.0523 63.0771 28.2699C61.2269 28.3788 60.9548 28.3244 60.9548 27.9434C60.9548 27.372 61.7439 22.311 61.9071 21.8484C61.9888 21.6308 62.6962 21.5219 64.1927 21.5219C66.0974 21.5219 66.4512 21.6036 67.1042 22.175Z" fill="white"/>
<path d="M164.406 18.5835C164.243 19.6719 164.025 21.0596 163.944 21.6582C163.862 22.2568 163.155 26.8552 162.338 31.8618C161.549 36.8684 160.923 41.0587 161.005 41.1948C161.059 41.3036 162.257 41.3853 163.672 41.3853C165.821 41.3853 166.229 41.3036 166.393 40.9227C166.692 40.1064 170.311 17.0869 170.175 16.842C170.093 16.7332 168.841 16.6244 167.372 16.6244H164.733L164.406 18.5835Z" fill="white"/>
<path d="M18.6164 17.4134C17.8001 17.5494 17.4736 17.9576 17.3104 19.0188C17.2287 19.563 16.8478 21.9302 16.4669 24.243C16.0859 26.5559 15.7866 28.5694 15.7866 28.7054C15.7866 29.032 22.8884 28.7054 24.4665 28.3245C28.6568 27.3177 31.5139 24.6512 32.9016 20.5153C33.7179 18.1208 33.6906 18.0664 31.9764 17.7127C30.6159 17.4406 19.8137 17.1685 18.6164 17.4134Z" fill="white"/>
<path d="M34.9695 20.1884C34.6702 21.9842 32.9832 24.9773 31.4322 26.5554C29.854 28.1336 27.4324 29.4397 24.9835 30.0655C24.1128 30.2832 21.7455 30.5553 19.732 30.6641C15.6233 30.8818 15.2968 31.0178 15.0791 32.8409C15.0247 33.4395 14.5077 36.6775 13.9908 40.0787C13.4466 43.4527 13.0656 46.5274 13.1472 46.8811C13.3105 47.5069 13.3377 47.5069 16.6845 47.4253C19.4871 47.3437 20.1674 47.2621 20.5211 46.8539C20.7932 46.5546 21.2013 44.7588 21.6639 41.9017C22.0448 39.4529 22.5346 37.1945 22.7523 36.9224C23.0516 36.487 23.623 36.3509 26.0447 36.1877C29.3643 35.97 31.4594 35.317 33.2825 33.9293C37.5544 30.6913 39.187 23.4263 36.4388 20.0795C35.9762 19.5081 35.5137 19.0728 35.3776 19.0728C35.2688 19.0728 35.0783 19.5625 34.9695 20.1884Z" fill="white"/>
<path d="M80.3554 25.032C76.2467 26.4469 73.7706 29.7665 73.5529 34.2289C73.4441 36.188 73.4985 36.6505 74.0971 37.9022C75.2943 40.4871 77.0358 41.6571 80.0288 41.8748C82.1512 42.0108 84.0287 41.4939 85.7157 40.2694L86.8585 39.4259L86.668 40.2694C86.4231 41.3578 87.049 41.6571 89.4978 41.6571C90.9944 41.6571 91.5386 41.5483 91.9195 41.1673C92.2732 40.8136 92.6814 38.8545 93.6065 33.0044C94.6133 26.4197 94.7493 25.2496 94.3956 25.032C94.1779 24.8959 92.9807 24.8143 91.729 24.8415C89.389 24.9231 89.2529 25.0047 88.872 26.202C88.7632 26.6101 88.6271 26.5557 87.9197 25.9027C86.4231 24.515 82.9947 24.1068 80.3554 25.032ZM86.151 29.3855C88.0285 30.229 88.6271 32.297 87.6476 34.4465C86.3143 37.3852 82.3961 38.4736 80.3009 36.5145C78.2058 34.5554 79.5118 30.3651 82.5866 29.2767C84.0559 28.7597 84.8178 28.7869 86.151 29.3855Z" fill="white"/>
<path d="M145.577 25.0593C144.761 25.3586 143.972 25.6307 143.809 25.6851C143.672 25.7123 143.482 25.8211 143.4 25.9028C143.319 25.9844 142.693 26.583 141.958 27.1816C141.251 27.8074 140.652 28.4061 140.625 28.5149C140.598 28.6237 140.244 29.4672 139.809 30.3924C138.312 33.6031 138.557 37.3036 140.435 39.5621C142.775 42.4191 147.618 42.7184 151.046 40.2423L152.189 39.426L152.026 40.2695C151.808 41.3851 152.352 41.6572 154.747 41.6572C156.652 41.63 157.631 41.2763 157.74 40.5688C157.767 40.3511 158.284 37.0588 158.91 33.2766C160.107 25.7123 160.162 25.1681 159.672 25.0048C158.937 24.7327 155.373 24.76 154.828 25.0593C154.502 25.2497 154.284 25.6307 154.284 26.066V26.8007L153.495 26.0388C151.917 24.5151 148.325 24.0797 145.577 25.0593ZM151.482 29.3312C154.284 30.6373 154.039 34.8004 151.074 36.7322C149.931 37.4941 147.074 37.7118 146.693 37.086C146.557 36.8683 146.421 36.7322 146.366 36.7595C145.931 36.9227 145.251 36.2425 144.897 35.2629C144.462 34.1745 144.462 33.9841 144.87 32.5964C145.305 31.0998 146.938 29.2224 147.509 29.5489C147.645 29.6577 147.754 29.6033 147.754 29.44C147.754 28.8142 150.257 28.7326 151.482 29.3312Z" fill="white"/>
<path d="M97.2526 25.6849C97.3342 26.1747 97.4431 26.8005 97.4703 27.0998C97.5247 27.3991 97.6336 27.6984 97.7152 27.7801C97.7968 27.8617 98.8036 30.6371 99.9192 33.9567L102.014 39.97L99.7015 43.1536C98.4498 44.895 97.4159 46.5548 97.4159 46.8541C97.4159 47.3167 97.6063 47.3711 99.9736 47.3711C101.388 47.3711 102.722 47.2895 102.967 47.2078C103.212 47.1262 103.647 46.6364 103.973 46.1194C105.47 43.6706 115.592 29.4399 115.755 29.5487C115.837 29.6303 115.864 29.6031 115.782 29.5215C115.728 29.4127 116.218 28.5691 116.871 27.6168C118.721 25.0319 118.585 24.787 115.129 24.787C113.769 24.787 112.844 24.923 112.49 25.1679C112.191 25.3856 110.585 27.5352 108.953 29.9296C107.184 32.569 105.933 34.1472 105.824 33.9567C105.715 33.7662 105.116 31.9159 104.49 29.8208C102.803 24.2972 103.293 24.8414 99.9464 24.8414H97.0894L97.2526 25.6849Z" fill="white"/>
</svg>
