<svg width="15268" height="3281" viewBox="0 0 15268 3281" fill="none" xmlns="http://www.w3.org/2000/svg">
<path d="M935.999 45.6081C984.505 30.1768 1053.96 12.541 1090.33 7.02978C1126.71 1.51859 1206.09 -0.685884 1266.72 1.51859C1327.35 4.8253 1408.93 14.7454 1448.61 24.6656C1488.3 34.5857 1569.88 65.4483 1630.51 95.2087C1702.16 129.378 1770.51 173.468 1823.43 218.659C1868.63 257.238 1914.93 302.429 1944.69 348.723L2018.55 288.1C2060.44 253.931 2128.79 209.841 2170.68 188.899C2212.57 167.956 2287.54 140.4 2336.04 128.276C2398.88 112.845 2458.41 106.231 2545.5 106.231C2613.85 106.231 2697.63 113.947 2738.42 123.867C2778.1 132.685 2855.27 161.343 2909.29 187.797C2983.15 223.068 3031.66 257.238 3096.7 317.861C3145.2 363.052 3204.73 428.084 3273.08 523.979L3322.69 504.139C3350.25 492.014 3411.98 474.378 3460.49 464.458C3514.5 453.436 3597.18 445.72 3675.45 445.72C3748.21 446.822 3836.41 453.436 3881.6 463.356C3925.7 473.276 3998.46 494.219 4041.45 511.854C4085.55 528.388 4161.61 566.966 4210.12 596.727C4258.62 626.487 4338 690.417 4387.6 740.017C4439.42 791.823 4500.05 866.775 4533.12 921.887C4565.09 973.692 4605.88 1057.46 4624.62 1109.27C4643.36 1161.07 4665.41 1252.56 4675.33 1313.18C4686.35 1385.93 4689.66 1456.47 4685.25 1522.61C4681.94 1576.62 4668.71 1663.69 4655.49 1715.5C4643.36 1767.3 4613.59 1851.07 4589.34 1902.88C4565.09 1954.68 4523.2 2026.33 4497.84 2062.7C4471.39 2099.08 4418.47 2160.8 4379.89 2199.38C4341.3 2236.86 4271.85 2293.07 4226.65 2322.83C4181.46 2352.59 4106.49 2392.27 4061.29 2412.11C4016.1 2430.85 3931.21 2456.2 3873.89 2467.22C3786.8 2485.96 3743.8 2488.17 3477.02 2476.04L3441.75 2528.95C3421.9 2557.61 3377.81 2607.21 3344.74 2640.27C3311.66 2672.24 3252.13 2718.53 3212.45 2741.68C3172.76 2763.72 3108.82 2793.49 3069.14 2806.71C3029.45 2819.94 2957.79 2835.37 2909.29 2840.88C2848.66 2848.6 2793.54 2847.5 2732.91 2838.68C2684.4 2832.06 2613.85 2815.53 2509.12 2779.16L2481.56 2834.27C2467.23 2865.13 2430.85 2921.34 2401.08 2959.92C2371.32 2998.5 2315.1 3058.02 2275.41 3089.99C2235.72 3123.05 2164.07 3169.35 2115.56 3193.6C2067.06 3216.74 1987.69 3246.5 1939.18 3258.63C1879.65 3274.06 1814.61 3280.67 1740.75 3280.67C1680.12 3280.67 1600.74 3275.16 1564.37 3268.55C1527.99 3261.94 1466.25 3244.3 1426.57 3227.77C1386.88 3212.34 1327.35 3183.68 1294.28 3164.94C1261.21 3145.1 1201.68 3099.91 1163.09 3064.64C1124.51 3028.26 1071.59 2969.84 1046.24 2933.47C1019.78 2897.1 984.505 2838.68 935.999 2741.68L831.272 2748.29C755.206 2752.7 701.189 2749.4 632.84 2736.17C572.208 2724.04 501.655 2699.8 434.409 2666.73C345.115 2623.74 315.35 2601.7 230.465 2515.72C162.117 2446.28 118.021 2391.17 90.461 2338.26C68.413 2296.38 38.6483 2221.42 25.4196 2172.93C5.57644 2104.59 0.0644531 2057.19 0.0644531 1957.99C0.0644531 1873.12 6.67883 1808.09 18.8052 1759.59C29.8292 1719.91 52.9795 1655.98 71.7202 1616.3C90.461 1576.62 126.84 1513.79 154.4 1475.21C180.858 1437.73 231.568 1383.72 266.844 1355.07C302.121 1325.31 340.705 1294.44 378.186 1269.09L350.627 1175.4C329.681 1108.16 319.759 1045.34 316.452 954.954C312.043 860.161 315.35 805.049 328.579 734.506C339.603 682.701 363.855 603.34 382.596 558.148C401.337 512.957 439.921 440.209 468.583 398.324C497.245 356.439 556.775 286.998 600.871 245.113C646.069 204.33 719.93 148.116 765.128 121.662C810.326 95.2087 887.494 61.0394 935.999 45.6081Z" fill="white"/>
<path fill-rule="evenodd" clip-rule="evenodd" d="M11240.2 655.057C11261.7 655.057 11302.4 659.576 11330.6 665.226C11358.9 672.006 11392.8 678.786 11407.5 682.176C11421 685.566 11432.3 695.735 11432.3 707.035C11432.3 718.335 11421 757.883 11407.5 795.172C11393.9 832.461 11379.2 869.75 11373.6 876.53C11366.8 887.829 11353.2 888.959 11317.1 878.789C11289.9 872.01 11243.6 869.75 11212 873.14C11181.5 877.66 11144.2 887.829 11130.6 896.869C11115.9 905.909 11092.2 933.028 11077.5 955.627C11062.8 979.356 11044.8 1026.81 11036.9 1060.71C11030.1 1094.61 11021 1131.9 11018.8 1142.07C11014.3 1160.15 11026.7 1162.41 11144.2 1162.41C11271.9 1162.41 11274.1 1162.41 11274.1 1187.27C11273 1201.96 11267.3 1246.03 11245.9 1360.15L11112.6 1362.41C10986 1365.8 10980.4 1366.93 10974.7 1390.66C10971.3 1405.35 10930.6 1634.74 10884.3 1902.54C10838 2170.34 10786 2431.36 10770.2 2484.47C10754.4 2537.58 10727.3 2605.37 10711.4 2635.88C10694.5 2665.26 10656.1 2714.98 10624.4 2743.23C10589.4 2776 10543.1 2806.51 10503.6 2821.2C10455 2839.28 10413.2 2846.06 10339.7 2846.06C10284.4 2846.06 10222.2 2840.41 10200.7 2833.63C10179.3 2825.72 10154.4 2815.55 10147.6 2811.03C10136.3 2803.12 10139.7 2782.78 10163.5 2718.37C10179.3 2674.3 10196.2 2633.62 10199.6 2627.97C10203 2623.45 10232.4 2624.58 10262.9 2631.36C10294.5 2638.14 10342 2640.4 10370.2 2635.88C10407.5 2630.23 10431.2 2617.8 10460.6 2587.3C10485.5 2562.44 10510.3 2518.37 10526.1 2473.17C10539.7 2432.49 10591.7 2173.73 10641.4 1896.89C10691.1 1620.05 10731.8 1387.27 10731.8 1379.36C10731.8 1370.32 10706.9 1365.8 10647 1365.8C10590.6 1365.8 10560 1361.28 10556.7 1351.11C10553.3 1344.33 10556.7 1299.14 10580.4 1168.06L10770.2 1156.76L10782.6 1094.61C10789.4 1060.71 10801.8 1012.13 10810.9 987.266C10818.8 962.407 10839.1 913.818 10856.1 879.919C10873 846.021 10910.3 796.302 10939.7 769.183C10967.9 743.194 11010.9 712.685 11034.6 702.515C11057.2 692.345 11104.6 677.656 11138.5 669.746C11172.4 661.836 11218.8 655.057 11240.2 655.057V655.057ZM6155.79 1135.29C6202.12 1138.68 6271.04 1148.85 6308.32 1159.02C6345.61 1168.06 6403.23 1188.4 6436 1203.09C6467.64 1217.78 6498.14 1239.25 6501.53 1249.42C6506.05 1260.72 6495.88 1302.53 6481.19 1343.2C6459.73 1399.7 6448.43 1416.65 6431.48 1414.39C6420.18 1414.39 6373.86 1399.7 6330.92 1383.88C6287.99 1368.06 6213.41 1349.98 6167.09 1342.07C6104.95 1333.04 6069.92 1333.04 6034.89 1342.07C6007.78 1348.85 5973.88 1366.93 5958.06 1382.75C5942.24 1398.57 5926.43 1424.56 5923.04 1441.51C5918.52 1460.72 5921.91 1484.45 5930.95 1501.4C5939.98 1517.22 5964.84 1540.95 5986.31 1555.64C6007.78 1569.2 6082.35 1599.71 6150.14 1622.31C6217.93 1644.91 6307.19 1678.8 6347.87 1699.14C6389.67 1720.61 6441.65 1757.9 6469.9 1788.41C6495.88 1816.66 6521.87 1859.6 6528.65 1882.2C6534.3 1905.93 6539.95 1950 6539.95 1981.63C6539.95 2012.14 6532.04 2066.38 6521.87 2100.28C6508.31 2143.22 6486.84 2179.38 6450.69 2216.67C6422.44 2247.18 6371.6 2283.33 6339.96 2299.15C6307.19 2313.84 6240.53 2331.92 6193.08 2338.7C6130.93 2346.61 6076.7 2346.61 6008.91 2338.7C5955.8 2331.92 5882.36 2316.1 5845.08 2303.67C5807.79 2290.11 5752.43 2266.39 5721.92 2249.44C5692.54 2232.49 5663.17 2212.15 5657.52 2204.24C5650.74 2196.33 5658.65 2159.04 5678.98 2105.93C5695.93 2058.47 5716.27 2020.05 5724.18 2021.18C5730.96 2021.18 5775.02 2041.52 5820.22 2066.38C5864.28 2090.11 5934.34 2118.36 5975.01 2127.4C6015.69 2137.57 6076.7 2145.48 6110.6 2145.48C6149.01 2145.48 6190.82 2136.44 6221.32 2122.88C6249.57 2109.32 6275.56 2086.72 6285.73 2066.38C6294.77 2047.17 6302.67 2018.92 6302.67 2000.84C6302.67 1983.89 6292.51 1959.04 6280.08 1944.35C6267.65 1930.79 6238.27 1909.32 6215.67 1898.02C6191.95 1886.72 6119.63 1860.73 6054.1 1840.39C5988.57 1820.05 5900.44 1785.02 5857.5 1762.42C5814.57 1739.82 5764.85 1703.66 5746.78 1682.19C5729.83 1660.72 5706.1 1616.66 5697.06 1586.15C5684.63 1547.73 5680.11 1507.05 5683.5 1461.85C5686.89 1421.17 5700.45 1371.45 5718.53 1337.55C5734.35 1305.92 5763.72 1265.24 5785.19 1244.9C5805.53 1225.69 5848.46 1196.31 5878.97 1180.49C5910.61 1164.67 5965.97 1146.59 6003.26 1140.94C6040.54 1135.29 6109.47 1133.03 6155.79 1135.29V1135.29ZM7873.2 687.826H8110.47L8104.83 2309.32L7873.2 2314.97V687.826ZM9991.72 1136.42C10041.4 1139.81 10110.4 1149.98 10144.3 1157.89C10178.1 1166.93 10238 1189.53 10277.6 1207.61C10316 1226.82 10347.6 1248.29 10347.6 1255.07C10347.6 1262.98 10334.1 1304.79 10316 1347.72C10290 1413.26 10282.1 1423.43 10262.9 1418.91C10250.5 1415.52 10206.4 1399.7 10163.5 1383.88C10121.7 1368.06 10050.5 1348.85 10006.4 1343.2C9951.42 1334.92 9906.98 1334.54 9873.08 1342.07C9840.31 1348.85 9810.94 1365.8 9791.73 1387.27C9771.39 1409.87 9760.09 1434.73 9760.09 1458.46C9760.09 1479.93 9769.13 1507.05 9782.69 1520.61C9795.12 1535.3 9824.5 1556.77 9848.22 1568.07C9870.82 1579.37 9944.26 1607.62 10012.1 1630.22C10078.7 1652.81 10158.9 1683.32 10189.4 1699.14C10221.1 1714.96 10264 1744.34 10286.6 1763.55C10309.2 1783.89 10338.6 1821.18 10352.1 1846.04C10370.2 1881.07 10375.9 1910.45 10374.7 1981.63C10374.7 2050.56 10369.1 2085.59 10349.9 2128.53C10335.2 2159.04 10304.7 2204.24 10282.1 2227.97C10259.5 2250.57 10212 2282.2 10178.1 2298.02C10144.3 2312.71 10081 2330.79 10036.9 2337.57C9980.42 2346.61 9929.57 2346.61 9856.13 2338.7C9800.77 2331.92 9723.94 2316.1 9686.65 2303.67C9649.36 2290.11 9589.48 2264.13 9553.33 2243.79C9517.17 2223.45 9487.79 2203.11 9488.92 2196.33C9488.92 2189.55 9500.22 2148.87 9514.91 2105.93C9532.99 2053.95 9548.81 2025.7 9560.1 2023.44C9571.4 2022.31 9603.04 2035.87 9633.55 2055.08C9662.92 2073.16 9717.16 2098.02 9754.44 2111.58C9791.73 2125.14 9862.91 2138.7 9912.63 2142.09C9989.46 2147.74 10010.9 2145.48 10053.9 2125.14C10088.9 2109.32 10110.4 2090.11 10125 2061.86C10135.2 2039.26 10142 2007.62 10138.6 1989.54C10135.2 1972.59 10121.7 1947.74 10108.1 1935.31C10093.4 1921.75 10066.3 1903.67 10048.2 1893.5C10030.1 1884.46 9961.21 1860.73 9895.68 1840.39C9830.14 1821.18 9746.53 1790.67 9709.25 1772.59C9669.7 1754.51 9622.25 1720.61 9596.26 1691.23C9569.14 1660.72 9544.29 1618.92 9535.25 1585.02C9525.08 1549.99 9521.69 1502.53 9525.08 1456.2C9528.47 1415.52 9540.9 1362.41 9553.33 1337.55C9566.88 1312.7 9601.91 1268.63 9631.29 1240.38C9661.79 1212.13 9709.25 1180.49 9737.5 1169.19C9765.74 1159.02 9814.33 1145.46 9844.83 1139.81C9876.47 1134.16 9942 1133.03 9991.72 1136.42V1136.42ZM7183.98 1144.33C7307.13 1146.59 7348.94 1152.24 7398.65 1171.45C7432.55 1185.01 7483.39 1214.39 7510.51 1238.12C7536.5 1261.85 7571.52 1305.92 7586.21 1337.55C7600.9 1368.06 7617.85 1429.08 7624.63 1473.15C7630.28 1516.09 7635.93 1711.57 7635.93 1904.8C7635.93 2230.23 7634.8 2259.61 7616.72 2268.65C7605.42 2274.3 7526.33 2292.37 7441.59 2308.19C7331.99 2328.53 7248.38 2337.57 7159.12 2337.57C7085.68 2337.57 7000.94 2329.66 6961.39 2320.62C6921.85 2311.58 6871 2293.5 6848.4 2282.2C6824.68 2269.78 6788.52 2243.79 6767.05 2222.32C6745.59 2201.98 6715.08 2156.78 6699.26 2122.88C6676.66 2072.03 6671.01 2043.78 6671.01 1970.33C6671.01 1901.41 6677.79 1866.38 6697 1823.44C6710.56 1791.8 6743.33 1744.34 6769.31 1717.22C6795.3 1690.1 6847.27 1653.94 6884.56 1635.87C6921.85 1617.79 6980.6 1597.45 7014.5 1590.67C7050.65 1582.76 7142.17 1579.37 7387.35 1586.15V1535.3C7387.35 1507.05 7378.32 1466.37 7367.02 1444.9C7356.85 1423.43 7329.73 1394.05 7308.26 1380.49C7286.8 1365.8 7241.6 1351.11 7206.57 1346.59C7172.68 1343.2 7101.5 1345.46 7048.39 1353.37C6995.29 1361.28 6921.85 1379.36 6884.56 1395.18C6847.27 1409.87 6809.99 1422.3 6803.21 1422.3C6795.3 1422.3 6776.09 1386.14 6760.27 1343.2C6744.46 1299.14 6732.03 1258.46 6732.03 1252.81C6732.03 1246.03 6763.66 1226.82 6803.21 1208.74C6841.63 1189.53 6909.42 1166.93 6952.35 1157.89C7007.72 1145.46 7077.77 1140.94 7183.98 1144.33V1144.33ZM6977.21 1824.57C6959.13 1835.87 6937.66 1866.38 6927.5 1891.24C6916.2 1920.62 6912.81 1954.52 6917.33 1987.28C6920.72 2015.53 6933.14 2050.56 6944.44 2066.38C6955.74 2082.2 6985.12 2104.8 7009.98 2117.23C7043.87 2134.18 7077.77 2139.83 7155.73 2139.83C7211.09 2139.83 7286.8 2136.44 7322.95 2130.79L7387.35 2122.88V1789.54C7321.82 1777.11 7254.03 1772.59 7195.28 1773.72C7136.52 1773.72 7069.86 1780.5 7048.39 1788.41C7026.92 1796.32 6994.16 1812.14 6977.21 1824.57ZM8856.19 1139.81C8922.86 1139.81 8974.83 1146.59 9025.67 1162.41C9066.35 1174.84 9123.97 1204.22 9155.61 1227.95C9186.12 1250.55 9229.05 1295.75 9249.39 1326.26C9269.73 1357.89 9297.97 1411 9310.4 1444.9C9330.74 1495.75 9335.26 1533.04 9336.39 1800.84L8954.49 1803.1C8745.46 1805.36 8573.72 1807.62 8573.72 1808.75C8573.72 1811.01 8579.37 1842.65 8586.15 1879.94C8592.93 1917.23 8609.88 1969.2 8625.7 1995.19C8641.52 2024.57 8674.28 2057.34 8705.92 2077.68C8740.95 2099.15 8789.53 2116.1 8839.24 2125.14C8900.26 2135.31 8942.06 2135.31 9020.02 2125.14C9075.39 2118.36 9144.31 2104.8 9172.56 2094.63C9200.8 2084.46 9230.18 2079.94 9236.96 2083.33C9244.87 2086.72 9261.82 2120.62 9274.25 2159.04C9286.67 2198.59 9296.84 2238.14 9296.84 2247.18C9297.97 2256.22 9276.51 2273.17 9249.39 2283.33C9222.27 2294.63 9162.39 2311.58 9116.06 2321.75C9052.79 2335.31 8994.04 2338.7 8884.44 2334.18C8772.58 2329.66 8720.61 2322.88 8669.76 2304.8C8632.48 2291.24 8581.63 2268.65 8556.78 2253.96C8531.92 2239.27 8486.72 2199.72 8457.35 2166.95C8426.84 2133.05 8390.68 2079.94 8376 2049.43C8362.44 2017.79 8343.23 1964.68 8335.32 1930.79C8326.28 1894.63 8319.5 1813.27 8320.63 1738.69C8320.63 1650.55 8327.41 1585.02 8340.97 1535.3C8352.27 1494.62 8374.87 1435.86 8390.68 1405.35C8406.5 1373.71 8442.66 1322.87 8472.03 1292.36C8501.41 1260.72 8551.13 1222.3 8580.5 1205.35C8611.01 1188.4 8664.11 1166.93 8698.01 1157.89C8731.91 1148.85 8803.09 1140.94 8856.19 1139.81V1139.81ZM8656.2 1427.95C8634.74 1452.81 8611.01 1498.01 8600.84 1529.65C8591.8 1560.16 8585.02 1592.93 8585.02 1599.71C8585.02 1611.01 8644.91 1614.4 8844.89 1614.4H9104.76C9094.6 1548.86 9078.78 1502.53 9064.09 1469.76C9044.88 1429.08 9022.28 1401.96 8989.52 1379.36C8949.97 1354.5 8928.5 1348.85 8857.32 1345.46C8791.79 1343.2 8762.41 1347.72 8733.04 1362.41C8711.57 1373.71 8676.54 1403.09 8656.2 1427.95ZM11824.4 1140.94C11895.6 1139.81 11950.9 1146.59 11995 1160.15C12030 1171.45 12082 1194.05 12110.2 1209.87C12138.5 1225.69 12185.9 1266.37 12217.6 1299.14C12248.1 1333.04 12286.5 1390.66 12303.4 1427.95C12320.4 1465.24 12339.6 1526.26 12348.6 1563.55C12356.5 1600.84 12362.2 1682.19 12362.2 1744.34C12362.2 1807.62 12353.2 1891.24 12343 1933.05C12332.8 1975.98 12311.4 2037 12294.4 2068.64C12278.6 2101.41 12241.3 2153.39 12211.9 2185.03C12182.5 2215.54 12130.6 2256.22 12097.8 2274.3C12063.9 2292.37 12011.9 2313.84 11980.3 2322.88C11949.8 2330.79 11879.7 2337.57 11825.5 2337.57C11761.1 2337.57 11703.5 2330.79 11661.7 2317.23C11625.5 2305.93 11573.5 2283.33 11545.3 2267.52C11517 2251.7 11470.7 2212.15 11441.3 2180.51C11410.8 2148.87 11374.7 2095.76 11358.9 2062.99C11344.2 2031.35 11323.8 1973.72 11313.7 1936.44C11302.4 1893.5 11295.6 1822.31 11295.6 1738.69C11295.6 1655.07 11302.4 1583.89 11313.7 1540.95C11323.8 1503.66 11344.2 1446.03 11358.9 1413.26C11374.7 1381.62 11410.8 1328.52 11441.3 1296.88C11470.7 1265.24 11517 1225.69 11545.3 1209.87C11573.5 1192.92 11624.4 1171.45 11658.3 1160.15C11697.8 1147.72 11758.8 1140.94 11825.5 1140.94H11824.4ZM11694.4 1374.84C11674.1 1383.88 11642.5 1412.13 11624.4 1438.12C11606.3 1462.98 11582.6 1514.96 11571.3 1552.25C11557.7 1600.84 11552.1 1656.2 11552.1 1744.34C11553.2 1839.26 11558.9 1886.72 11576.9 1942.09C11590.5 1982.76 11615.3 2032.48 11632.3 2053.95C11649.2 2075.42 11683.1 2102.54 11708 2113.84C11736.2 2126.27 11780.3 2134.18 11826.6 2134.18C11874.1 2134.18 11915.9 2126.27 11945.3 2112.71C11970.1 2101.41 12001.8 2079.94 12015.3 2065.25C12028.9 2050.56 12050.3 2015.53 12062.8 1987.28C12075.2 1959.04 12091 1900.28 12098.9 1857.34C12106.8 1811.01 12109.1 1739.82 12105.7 1687.84C12102.3 1638.13 12091 1571.46 12082 1540.95C12072.9 1509.31 12050.3 1464.11 12033.4 1439.25C12015.3 1414.39 11980.3 1383.88 11955.4 1371.45C11929.5 1359.02 11882 1348.85 11837.9 1346.59C11797.3 1345.46 11756.6 1346.59 11747.5 1349.98C11738.5 1354.5 11713.6 1364.67 11694.4 1374.84V1374.84ZM13858.1 1140.94C13932.7 1139.81 14016.3 1146.59 14061.5 1156.76C14103.3 1165.8 14146.3 1180.49 14157.6 1187.27C14176.8 1200.83 14176.8 1206.48 14145.1 1286.71C14116.9 1361.28 14110.1 1371.45 14085.3 1370.32C14070.6 1369.19 14012.9 1362.41 13956.4 1354.5C13879.6 1343.2 13840.1 1343.2 13792.6 1353.37C13758.7 1360.15 13707.9 1380.49 13679.6 1397.44C13643.5 1420.04 13618.6 1448.29 13592.6 1496.88C13572.3 1534.17 13550.8 1597.45 13542.9 1642.65C13535 1688.97 13532.7 1752.25 13537.3 1795.19C13541.8 1835.87 13552 1891.24 13561 1919.49C13570 1947.74 13597.1 1992.93 13620.9 2021.18C13648 2052.82 13687.5 2082.2 13726 2099.15C13775.7 2120.62 13806.2 2126.27 13888.7 2126.27C13953.1 2126.27 14012.9 2118.36 14052.5 2105.93C14086.4 2095.76 14118 2091.24 14121.4 2096.89C14125.9 2101.41 14142.9 2143.22 14158.7 2187.29C14181.3 2251.7 14184.7 2272.04 14174.5 2279.94C14166.6 2286.72 14127.1 2300.28 14086.4 2311.58C14031 2326.27 13974.5 2331.92 13854.8 2330.79C13721.4 2330.79 13686.4 2326.27 13628.8 2304.8C13591.5 2291.24 13536.1 2264.13 13506.8 2243.79C13476.3 2224.58 13428.8 2177.12 13401.7 2139.83C13373.4 2102.54 13340.7 2043.78 13328.2 2009.88C13315.8 1975.98 13300 1921.75 13294.3 1891.24C13288.7 1859.6 13284.2 1788.41 13284.2 1733.04C13284.2 1676.54 13292.1 1599.71 13301.1 1560.16C13310.2 1521.74 13333.9 1458.46 13354.2 1418.91C13373.4 1380.49 13410.7 1326.26 13436.7 1298.01C13462.7 1269.76 13516.9 1230.21 13556.5 1208.74C13596 1187.27 13651.4 1163.54 13679.6 1155.63C13707.9 1147.72 13788.1 1140.94 13858.1 1140.94V1140.94ZM14786.9 1139.81C14852.4 1139.81 14906.7 1146.59 14956.4 1161.28C15000.5 1174.84 15053.6 1201.96 15089.7 1229.08C15121.4 1255.07 15164.3 1299.14 15184.6 1328.52C15203.8 1359.02 15230.9 1411 15243.4 1444.9C15261.5 1494.62 15266 1537.56 15267.1 1800.84L14504.4 1806.49L14511.2 1848.3C14514.6 1872.03 14522.5 1909.32 14529.3 1930.79C14536.1 1952.26 14553 1989.54 14567.7 2012.14C14582.4 2035.87 14616.3 2067.51 14643.4 2082.2C14669.4 2096.89 14721.4 2116.1 14758.7 2122.88C14802.7 2131.92 14860.3 2134.18 14922.5 2128.53C14975.6 2124.01 15051.3 2110.45 15092 2099.15C15132.6 2086.72 15168.8 2079.94 15173.3 2085.59C15177.8 2090.11 15191.4 2125.14 15205 2162.43C15217.4 2199.72 15227.6 2239.27 15227.6 2249.44C15227.6 2263 15208.4 2276.55 15168.8 2291.24C15136 2302.54 15068.2 2318.36 15018.5 2326.27C14962 2335.31 14879.6 2338.7 14798.2 2334.18C14707.8 2330.79 14647.9 2321.75 14600.5 2304.8C14563.2 2291.24 14512.3 2268.65 14487.5 2253.96C14462.6 2239.27 14420.8 2204.24 14394.8 2174.86C14367.7 2146.61 14333.8 2099.15 14319.1 2068.64C14304.5 2039.26 14283 1985.02 14271.7 1947.74C14257 1900.28 14251.3 1841.52 14251.3 1749.99C14251.3 1661.85 14257 1596.32 14270.6 1546.6C14281.9 1505.92 14302.2 1447.16 14316.9 1416.65C14332.7 1385.01 14367.7 1334.17 14394.8 1303.66C14423.1 1272.02 14472.8 1231.34 14505.6 1211C14539.5 1190.66 14594.8 1166.93 14628.7 1157.89C14662.6 1148.85 14733.8 1140.94 14786.9 1139.81V1139.81ZM14590.3 1423.43C14573.4 1444.9 14550.8 1479.93 14542.9 1501.4C14533.8 1522.87 14523.6 1557.9 14521.4 1577.11L14515.7 1614.4H15035.5C15024.2 1539.82 15014 1502.53 15006.1 1484.45C14999.3 1465.24 14980.1 1435.86 14965.4 1417.78C14951.9 1399.7 14919.1 1374.84 14894.2 1363.54C14864.9 1351.11 14821.9 1344.33 14775.6 1344.33C14727 1344.33 14688.6 1351.11 14662.6 1364.67C14641.2 1375.97 14608.4 1403.09 14590.3 1423.43ZM13109 1156.76C13180.2 1160.15 13227.7 1166.93 13236.7 1175.97C13248 1188.4 13244.6 1207.61 13185.9 1371.45L13091 1372.58C13017.5 1373.71 12984.8 1379.36 12948.6 1397.44C12921.5 1411 12887.6 1439.25 12872.9 1458.46C12858.2 1478.8 12836.7 1520.61 12825.4 1552.25C12808.5 1600.84 12805.1 1659.59 12798.3 2314.97L12566.7 2309.32L12561.1 1162.41L12792.7 1168.06L12804 1266.37L12826.6 1241.51C12839 1227.95 12869.5 1206.48 12894.4 1192.92C12919.2 1180.49 12952 1165.8 12967.8 1161.28C12983.6 1155.63 13046.9 1153.37 13109 1156.76V1156.76Z" fill="white"/>
</svg>
