<svg width="137" height="35" viewBox="0 0 137 35" fill="none" xmlns="http://www.w3.org/2000/svg">
<g clip-path="url(#clip0_684_4262)">
<path fill-rule="evenodd" clip-rule="evenodd" d="M5.70279 2.4022e-07H28.4261C29.9388 -0.000438524 31.3899 0.600194 32.4597 1.66973C33.5295 2.73925 34.1306 4.19003 34.1306 5.70279V28.4244C34.1306 31.575 31.5766 34.1289 28.4261 34.1289H5.70279C2.55295 34.128 0 31.5744 0 28.4244V5.70279C0 2.55322 2.55322 2.4022e-07 5.70279 2.4022e-07ZM26.1294 27.9245C27.1235 27.9245 27.9294 27.1185 27.9294 26.1245L27.9244 8.00607C27.9244 7.01201 27.1185 6.20616 26.1245 6.20616H8.00773C7.53008 6.20616 7.07201 6.39603 6.73441 6.73393C6.39682 7.07184 6.20739 7.53008 6.20782 8.00773V26.1245C6.20782 27.1185 7.01367 27.9245 8.00773 27.9245H26.1294Z" fill="white"/>
<path d="M13.4439 21.6919C12.8765 21.6874 12.4189 21.2262 12.419 20.6587V13.4259C12.4176 13.151 12.5259 12.8869 12.7198 12.6921C12.9138 12.4972 13.1773 12.3877 13.4522 12.3877H20.695C20.9697 12.3881 21.233 12.4978 21.4269 12.6926C21.6207 12.8873 21.7291 13.1512 21.7282 13.4259V20.657C21.7291 20.9318 21.6207 21.1956 21.4269 21.3903C21.233 21.5852 20.9697 21.6949 20.695 21.6953L13.4439 21.6919Z" fill="white"/>
<path d="M51.4973 15.5442C50.4409 15.2561 49.4407 14.9845 48.6641 14.6385C47.2268 13.996 46.5579 13.1051 46.5579 11.8368C46.5579 9.43908 48.876 8.35945 51.1844 8.35945C53.3783 8.35945 55.2941 9.26686 56.5808 10.9128L56.6685 11.0254L58.5231 9.57486L58.4337 9.46225C56.7232 7.28646 54.1898 6.09424 51.2969 6.09424C49.3712 6.09424 47.606 6.61418 46.3294 7.55967C44.8921 8.61114 44.1337 10.1362 44.1337 11.956C44.1337 16.1868 48.1176 17.2182 51.3201 18.0479C54.5607 18.9023 56.5461 19.5514 56.5461 22.0219C56.5461 24.4543 54.5788 26.0258 51.5353 26.0258C50.0302 26.0258 47.2434 25.6268 45.4915 22.951L45.4104 22.825L43.4598 24.2375L43.5359 24.3518C45.1918 26.8587 48.0498 28.2977 51.3864 28.2977C55.9184 28.2977 58.9652 25.7393 58.9652 21.9342C58.9652 17.5792 54.8222 16.4516 51.4973 15.5442Z" fill="white"/>
<path fill-rule="evenodd" clip-rule="evenodd" d="M73.7488 14.6645V12.3745H75.9294V34.1259H73.7488V25.6279C72.5035 27.3352 70.6357 28.269 68.44 28.269C64.2938 28.269 61.3959 24.9491 61.3959 20.1554C61.3959 15.3616 64.3003 12.0151 68.44 12.0151C70.6208 12.0151 72.4886 12.954 73.7488 14.6645ZM63.6944 20.1288C63.6944 24.5665 66.236 26.1479 68.6154 26.1479L68.6204 26.1495C71.7351 26.1495 73.7488 23.7651 73.7488 20.1288C73.7488 16.4925 71.7319 14.1412 68.6154 14.1412C64.9875 14.1412 63.6944 17.2344 63.6944 20.1288Z" fill="white"/>
<path d="M90.347 12.374V20.9596C90.347 23.9651 88.2887 26.1475 85.4539 26.1475C83.0993 26.1475 81.9535 24.7499 81.9535 21.877V12.374H79.7726V22.3224C79.7726 26.0481 81.7977 28.2719 85.1889 28.2719C87.3018 28.2719 89.1167 27.3761 90.3486 25.7384V27.9176H92.5294V12.374H90.347Z" fill="white"/>
<path fill-rule="evenodd" clip-rule="evenodd" d="M96.6361 14.0066C98.2439 12.7431 100.426 12.0195 102.62 12.0195C106.086 12.0195 108.154 13.7433 108.148 16.6344V27.9208H105.965V26.197C104.864 27.5763 103.271 28.2751 101.221 28.2751C97.8812 28.2751 95.8047 26.4486 95.8047 23.5112C95.8047 19.6911 99.4046 19.0917 100.938 18.8366C101.188 18.7954 101.446 18.7557 101.704 18.7158L101.714 18.7144C103.809 18.3919 105.972 18.0591 105.972 16.2818C105.972 14.2698 103.36 14.1142 102.561 14.1142C101.148 14.1142 99.153 14.5331 97.7968 15.7087L97.6727 15.8164L96.5334 14.0877L96.6361 14.0066ZM98.0816 23.3887C98.0816 25.8791 100.426 26.1489 101.435 26.1489C103.627 26.1489 105.975 24.98 105.97 21.6948V19.446C104.906 20.1179 103.393 20.3803 102.042 20.6144L102.019 20.6185L101.342 20.7393C99.1795 21.14 98.0816 21.6566 98.0816 23.3887Z" fill="white"/>
<path d="M120.782 12.6676C120.264 12.2984 119.447 12.0781 118.596 12.0781C116.847 12.1011 115.211 12.9442 114.177 14.3549V12.3679H111.996V27.9098H114.177V19.5974C114.177 15.9115 116.248 14.2605 118.3 14.2605C118.9 14.2525 119.495 14.3787 120.04 14.6298L120.187 14.7076L120.878 12.7305L120.782 12.6676Z" fill="white"/>
<path fill-rule="evenodd" clip-rule="evenodd" d="M121.421 20.1878C121.421 15.3793 124.42 12.0195 128.707 12.0195C132.836 12.0195 135.723 15.0017 135.714 19.2788C135.713 19.6506 135.693 20.022 135.653 20.3915L135.64 20.519H123.718C123.772 23.9417 125.832 26.1489 128.993 26.1489C130.805 26.1489 132.374 25.4122 133.413 24.0725L133.507 23.9501L135.087 25.3574L134.999 25.4634C133.949 26.7434 132.035 28.2702 128.872 28.2702C124.418 28.2702 121.421 25.023 121.421 20.1878ZM128.647 14.1125C125.983 14.1125 124.093 15.866 123.799 18.5966H133.409C133.221 16.4009 131.879 14.1125 128.647 14.1125Z" fill="white"/>
</g>
<defs>
<clipPath id="clip0_684_4262">
<rect width="136.516" height="34.1289" fill="white"/>
</clipPath>
</defs>
</svg>