<svg width="68" height="26" viewBox="0 0 68 26" fill="none" xmlns="http://www.w3.org/2000/svg">
<path d="M5.80401 23.1165C5.80401 23.5788 5.70127 24.0154 5.4958 24.4263C4.98213 25.3509 4.1731 25.8132 3.06871 25.8132C2.6321 25.8132 2.22116 25.7105 1.83591 25.505C0.859934 25.017 0.371948 24.2209 0.371948 23.1165C0.371948 22.6798 0.474682 22.2561 0.68015 21.8451C1.19382 20.8692 1.99001 20.3812 3.06871 20.3812C3.50533 20.3812 3.92911 20.4839 4.34005 20.6894C5.31602 21.2287 5.80401 22.0378 5.80401 23.1165ZM16.5525 9.47853C14.4979 9.55558 13.3806 11.7258 13.2008 15.9893L15.6665 16.1049C16.6938 16.1562 17.4643 16.092 17.978 15.9122C18.6971 15.6297 19.0567 14.8849 19.0567 13.6778C19.031 10.9296 18.1963 9.5299 16.5525 9.47853ZM23.7568 21.6525C23.6027 22.0634 23.3972 22.4615 23.1404 22.8468C21.8305 24.9528 19.6731 26.0059 16.6681 26.0059C14.973 26.0059 13.4577 25.6591 12.1221 24.9657C9.32264 23.5017 7.92289 20.9077 7.92289 17.1836C7.92289 14.8977 8.5393 12.9843 9.7721 11.4433C11.3902 9.46569 13.6503 8.47688 16.5525 8.47688C18.1449 8.47688 19.5704 8.74655 20.8288 9.28591C23.0633 10.2876 24.1805 11.8799 24.1805 14.063C24.1805 14.4997 24.1035 14.8977 23.9494 15.2573C23.2816 16.6956 20.8802 17.3505 16.7452 17.2221L13.2008 17.1065C13.2265 18.5962 13.355 19.8803 13.5861 20.9591C14.1768 23.5788 15.4995 24.8886 17.5542 24.8886C18.1963 24.8886 18.8255 24.7731 19.4419 24.5419C20.9829 23.9769 22.113 22.911 22.8322 21.3443L23.7568 21.6525ZM39.6292 25.6206L39.0898 21.9992C38.9614 22.3331 38.8073 22.6542 38.6275 22.9624C37.4717 24.9914 35.6996 26.0059 33.311 26.0059C31.8727 26.0059 30.5629 25.5692 29.3814 24.696C27.3011 23.1807 26.2609 20.8306 26.2609 17.6459C26.2609 15.0775 26.9287 12.9458 28.2642 11.2507C29.8052 9.3758 31.7957 8.43835 34.2356 8.43835C36.0592 8.43835 37.6258 9.00339 38.9357 10.1335V1.58086H35.4299V0.579203H43.8284V24.5804H45.6006C45.7804 24.5804 45.9345 24.5933 46.0629 24.6189C46.3711 24.696 46.5252 25.0299 46.5252 25.6206H39.6292ZM31.5389 17.1836C31.5389 18.1596 31.6031 19.0456 31.7315 19.8418C32.1681 22.7697 33.2853 24.2337 35.0832 24.2337C35.6225 24.2337 36.1234 24.0924 36.5857 23.8099C38.2037 22.7569 39.0128 20.3041 39.0128 16.4516C39.0128 15.5784 38.9614 14.7565 38.8587 13.986C38.422 11.1351 37.2791 9.70968 35.4299 9.70968C34.9162 9.70968 34.4283 9.8381 33.966 10.0949C32.3479 11.0709 31.5389 13.4338 31.5389 17.1836ZM67.0591 24.6189C67.2389 24.6189 67.393 24.6318 67.5214 24.6575C67.8296 24.7345 67.9837 25.0556 67.9837 25.6206H61.1262L60.9336 22.4615C60.8566 22.6156 60.7795 22.7697 60.7025 22.9238C59.4953 24.9785 57.736 26.0059 55.4245 26.0059C51.8031 25.9802 49.9668 23.887 49.9154 19.7262V10.0564H47.6809V9.05475H54.8081V20.3812C54.8081 20.7407 54.8338 21.0875 54.8852 21.4214C55.142 23.1421 56.0024 24.0025 57.4663 24.0025C57.8516 24.0025 58.2369 23.9127 58.6221 23.7329C59.9063 23.0908 60.6383 21.7681 60.818 19.7648L60.8566 10.0564H58.9688V9.05475H65.7493V24.6189H67.0591Z" fill="white"/>
</svg>
