<svg width="7039" height="1406" viewBox="0 0 7039 1406" fill="none" xmlns="http://www.w3.org/2000/svg">
<path fill-rule="evenodd" clip-rule="evenodd" d="M806.288 0.571655C808.364 0.571655 990.692 314.793 1212.11 699.611C1433.19 1084.08 1614.14 1400.03 1614.14 1402.11C1614.14 1404.53 1343.24 1405.57 808.018 1405.57C364.48 1405.57 1.2076 1404.53 0.515657 1402.8C-0.176289 1401.42 180.076 1085.47 400.807 700.649C621.884 315.832 804.212 0.917714 806.288 0.571655V0.571655ZM6793.36 59.4017H7039V1343.28H6793.36V59.4017ZM1884 59.4017L2348.64 988.57L2813.63 61.132H2959.28C3054.08 61.132 3105.28 62.5162 3105.63 64.5926C3105.63 66.6689 2954.44 354.936 2432.36 1343.28L2264.22 1341.55L1928.28 706.532C1743.53 357.359 1591.65 68.7453 1590.61 65.6308C1588.88 59.7478 1597.53 59.4017 1884 59.4017V59.4017ZM3459.9 365.664C3509.03 366.356 3533.94 368.779 3558.51 373.969C3576.5 377.776 3605.21 385.735 3622.51 391.965C3639.81 397.848 3666.1 409.267 3681.33 416.881C3696.55 424.84 3721.46 440.759 3736.68 451.833C3751.91 463.253 3775.09 483.67 3787.89 496.82C3801.03 510.317 3820.41 534.541 3831.48 550.806C3842.55 567.07 3857.77 592.679 3865.39 607.905C3873 623.132 3883.38 646.664 3888.22 659.814C3892.72 673.311 3900.67 702.033 3905.52 723.835C3910.71 745.637 3916.24 779.897 3918.32 799.968C3920.05 820.04 3921.78 857.068 3921.78 928.01H3209.07L3211.15 948.081C3212.53 958.809 3217.03 981.995 3221.18 998.952C3225.33 1015.91 3234.68 1041.86 3241.94 1056.05C3248.86 1070.24 3260.28 1088.93 3266.85 1097.58C3273.08 1106.23 3286.57 1120.07 3296.6 1128.38C3306.64 1136.68 3323.94 1148.1 3335.35 1153.64C3346.77 1159.52 3367.88 1167.14 3382.06 1170.94C3399.01 1175.1 3420.46 1177.52 3444.34 1177.86C3467.17 1177.86 3489.66 1175.79 3504.88 1172.33C3518.03 1168.87 3541.55 1159.87 3556.78 1151.91C3572.35 1143.6 3594.14 1128.38 3606.6 1116.61C3618.71 1105.19 3634.27 1087.2 3641.19 1076.47C3648.11 1065.74 3655.38 1054.32 3657.11 1051.21C3660.22 1046.02 3668.87 1046.02 3776.47 1054.32C3840.13 1058.82 3895.83 1062.97 3899.98 1062.97C3906.9 1062.97 3907.59 1064.36 3906.21 1072.66C3904.83 1077.85 3896.52 1097.58 3887.53 1116.61C3878.19 1135.65 3861.23 1163.68 3850.16 1178.9C3838.75 1194.13 3816.26 1218.7 3800.34 1233.93C3784.43 1248.81 3758.83 1269.22 3743.6 1279.61C3728.38 1289.64 3701.05 1304.87 3683.06 1313.52C3665.07 1321.83 3637.73 1332.9 3622.51 1338.09C3607.29 1342.93 3583.76 1349.16 3570.62 1351.93C3557.47 1354.7 3532.56 1358.51 3515.26 1360.58C3497.96 1362.31 3467.86 1364.04 3447.8 1364.04C3427.73 1364.04 3397.63 1362.31 3380.33 1360.58C3363.03 1358.51 3337.43 1354.35 3323.24 1351.59C3309.06 1348.47 3283.46 1341.55 3266.16 1336.36C3248.86 1330.82 3219.45 1318.36 3200.42 1308.68C3181.4 1298.99 3155.79 1283.76 3143.34 1274.76C3130.88 1265.76 3109.43 1247.77 3095.25 1234.27C3081.41 1221.12 3061 1198.28 3050.27 1184.09C3039.55 1169.91 3023.29 1144.99 3014.64 1128.72C3005.64 1112.46 2993.19 1085.12 2986.61 1068.16C2979.69 1051.21 2970.35 1019.02 2965.51 997.222C2960.66 975.42 2955.13 936.315 2953.4 910.707C2951.32 880.6 2951.32 847.378 2953.4 817.271C2955.13 791.663 2959.63 756.365 2963.09 739.408C2966.89 722.451 2973.81 695.804 2978.66 680.578C2983.84 665.351 2995.61 637.32 3004.6 618.287C3013.94 599.254 3031.59 569.839 3043.7 552.882C3055.46 535.925 3078.64 509.625 3094.9 494.052C3111.16 478.479 3136.07 457.716 3150.26 448.026C3164.44 438.682 3187.97 424.84 3202.15 417.573C3216.34 410.306 3237.44 400.962 3248.86 396.809C3260.28 392.311 3282.77 385.389 3299.03 381.237C3315.29 377.084 3343.31 371.547 3361.3 368.779C3383.1 365.664 3415.97 364.626 3459.9 365.664V365.664ZM3363.72 562.226C3351.96 566.378 3333.28 575.376 3321.86 581.951C3310.79 588.526 3292.11 604.445 3280.34 616.903C3268.58 629.707 3253.01 651.509 3244.71 667.082C3237.1 681.962 3227.41 704.456 3223.6 716.914C3219.8 729.372 3215.65 746.675 3214.61 756.019L3212.53 772.283H3669.22C3666.1 749.444 3662.99 733.525 3660.22 722.105C3657.45 710.685 3651.23 691.306 3646.38 678.848C3641.19 666.389 3631.85 648.048 3624.59 637.666C3617.67 627.285 3604.18 611.712 3594.83 603.061C3585.15 594.409 3568.89 582.297 3558.51 576.068C3548.13 570.185 3528.41 561.88 3515.26 558.073C3501.07 553.574 3477.89 549.767 3459.9 549.075C3442.61 548.383 3419.08 549.075 3406.97 551.152C3395.21 552.882 3375.83 557.727 3363.72 562.226V562.226ZM5153.44 365.664C5202.57 366.702 5229.9 368.779 5253.78 373.623C5271.77 377.43 5300.48 385.043 5317.78 390.926C5335.08 396.463 5362.76 407.883 5380.06 416.189C5397.36 424.148 5424.34 439.721 5440.6 450.795C5456.86 461.522 5481.08 480.902 5494.57 494.052C5507.72 507.202 5526.06 527.274 5534.71 538.694C5543.36 550.114 5556.85 571.223 5564.81 585.412C5572.42 599.6 5583.14 624.516 5588.68 640.781C5594.21 657.046 5601.13 682.308 5603.56 696.843C5606.32 711.377 5607.71 724.181 5606.67 724.873C5605.63 725.912 5555.81 729.026 5495.96 732.141C5436.1 735.255 5380.06 737.678 5355.84 737.678L5349.61 714.492C5346.15 701.341 5338.54 680.924 5332.31 668.466C5325.05 653.585 5312.59 636.974 5295.29 619.671C5281.11 605.137 5261.73 588.872 5252.05 583.335C5242.71 577.798 5224.71 569.839 5212.26 565.34C5196 559.457 5179.39 556.343 5153.44 555.304C5126.8 553.92 5109.16 554.958 5087.71 559.111C5071.45 562.572 5047.23 570.531 5034.08 576.76C5020.94 583.335 5002.95 594.409 4994.3 601.33C4985.65 608.598 4972.15 622.44 4963.85 631.783C4955.55 641.473 4942.05 663.621 4933.75 680.578C4925.1 697.535 4915.07 724.181 4911.26 739.408C4907.8 754.634 4902.96 780.243 4900.88 796.508C4899.15 812.772 4897.42 842.88 4897.42 863.989C4897.42 885.099 4899.15 916.244 4901.23 933.201C4903.31 950.158 4908.84 977.497 4913.34 993.761C4917.84 1010.03 4928.22 1036.33 4936.17 1052.59C4947.59 1075.09 4957.28 1088.58 4978.73 1110.04C4998.45 1130.11 5012.98 1141.18 5028.89 1148.8C5041.35 1154.68 5060.72 1162.29 5072.14 1165.06C5083.56 1168.18 5107.78 1171.64 5125.77 1172.67C5149.64 1174.06 5166.59 1173.02 5188.04 1168.87C5204.3 1165.41 5229.21 1157.45 5243.4 1150.53C5262.77 1141.18 5275.92 1131.49 5295.64 1111.77C5315.36 1092.04 5325.05 1078.89 5334.39 1059.51C5340.96 1045.32 5349.26 1024.21 5352.03 1012.79C5355.15 1001.37 5357.57 988.57 5357.57 984.418C5357.57 977.15 5359.3 976.458 5375.91 976.458C5385.59 976.458 5443.02 978.881 5502.88 981.649C5562.73 984.418 5612.2 987.186 5612.9 987.878C5613.59 988.224 5611.51 1002.76 5608.4 1019.72C5605.29 1036.67 5599.06 1062.28 5594.21 1076.12C5589.72 1089.62 5579.68 1113.15 5572.42 1128.03C5564.81 1142.57 5551.31 1165.41 5541.97 1178.9C5532.29 1192.4 5512.91 1214.89 5498.73 1229.08C5484.54 1243.27 5463.09 1261.96 5451.33 1270.61C5439.91 1279.26 5419.5 1292.06 5406.7 1299.68C5393.9 1306.94 5371.06 1318.02 5355.84 1324.25C5340.62 1330.82 5312.59 1339.82 5293.56 1345.01C5274.54 1349.86 5240.28 1356.43 5217.45 1359.2C5187.35 1363.35 5160.71 1364.39 5120.58 1363.01C5090.13 1361.97 5052.07 1358.51 5035.81 1355.74C5019.55 1352.97 4992.57 1346.4 4975.27 1341.55C4957.97 1336.36 4930.29 1326.32 4912.99 1319.06C4895.69 1311.44 4868.02 1296.22 4850.72 1285.14C4833.42 1273.72 4806.43 1252.27 4790.52 1237.39C4774.6 1222.16 4751.77 1196.9 4739.66 1180.63C4727.55 1164.37 4709.91 1136.34 4700.57 1118.34C4691.22 1100.35 4677.73 1069.2 4671.16 1049.13C4664.58 1029.06 4655.59 994.107 4651.44 971.267C4645.55 938.392 4644.17 915.898 4644.17 863.989C4644.17 812.08 4645.55 789.586 4651.44 756.711C4655.59 733.871 4664.24 699.611 4670.47 680.578C4676.69 661.545 4687.76 634.206 4695.03 620.017C4702.29 605.829 4716.48 581.259 4726.51 565.686C4736.89 549.767 4758 523.467 4773.91 506.856C4789.48 490.591 4814.04 468.444 4828.23 457.716C4842.41 446.988 4868.02 431.069 4885.31 422.072C4902.61 413.074 4926.49 402 4938.94 397.501C4951.4 392.657 4974.58 385.389 4990.84 381.237C5007.1 377.084 5035.12 371.547 5053.11 368.779C5075.25 365.664 5108.12 364.626 5153.44 365.664V365.664ZM6198.28 365.664C6255.02 366.702 6271.63 368.432 6302.08 375.354C6322.14 380.199 6350.17 388.158 6364.35 393.349C6378.54 398.54 6399.64 407.537 6411.06 413.074C6422.47 418.957 6444.27 431.761 6459.49 441.797C6474.72 451.833 6498.93 471.558 6513.47 485.4C6527.65 499.589 6548.76 523.467 6560.17 538.694C6571.59 553.92 6588.89 581.951 6598.58 600.984C6608.61 620.017 6622.1 652.547 6629.02 673.657C6635.94 694.766 6644.59 729.718 6648.74 751.52C6653.24 777.128 6656.35 815.887 6660.16 928.01H5945.72L5947.8 942.891C5948.84 950.85 5951.26 966.769 5953.33 978.189C5955.06 989.609 5959.91 1008.3 5963.71 1019.72C5967.52 1031.14 5975.13 1049.13 5980.32 1059.51C5985.51 1069.89 5995.89 1086.51 6003.16 1096.19C6010.77 1106.23 6024.61 1120.76 6033.95 1128.72C6043.63 1136.68 6060.59 1147.76 6072 1153.64C6083.42 1159.52 6104.53 1167.14 6118.71 1170.94C6136.35 1175.44 6156.77 1177.52 6182.72 1177.86C6208.32 1177.86 6228.38 1176.13 6243.26 1171.98C6255.72 1168.87 6274.4 1161.95 6284.78 1156.76C6295.16 1151.56 6310.73 1142.57 6319.37 1136.68C6328.02 1130.8 6343.59 1116.96 6354.32 1105.88C6365.04 1094.46 6378.54 1076.47 6384.42 1065.74C6390.65 1054.67 6396.53 1045.67 6398.26 1045.67C6399.64 1045.67 6451.88 1049.48 6514.85 1054.32C6577.82 1059.17 6632.48 1062.97 6636.98 1062.97C6643.55 1062.97 6644.24 1064.36 6642.86 1072.66C6641.82 1077.85 6633.52 1097.58 6624.18 1116.61C6614.84 1135.65 6597.88 1163.68 6586.81 1178.9C6575.39 1194.13 6553.25 1218.7 6536.99 1233.93C6521.08 1248.81 6495.48 1269.22 6480.25 1279.61C6465.03 1289.64 6437.7 1304.87 6419.71 1313.52C6401.72 1321.83 6374.38 1332.9 6359.16 1338.09C6343.94 1342.93 6320.41 1349.16 6307.27 1351.93C6294.12 1354.7 6269.21 1358.51 6251.91 1360.58C6234.61 1362.31 6204.51 1364.04 6184.45 1364.04C6164.38 1364.04 6134.28 1362.31 6116.98 1360.58C6099.68 1358.51 6074.08 1354.35 6059.89 1351.59C6045.71 1348.47 6020.11 1341.55 6002.81 1336.01C5985.51 1330.13 5959.22 1319.4 5943.99 1312.14C5928.77 1304.87 5903.86 1290.33 5888.64 1280.3C5873.42 1270.26 5846.08 1247.08 5827.75 1229.08C5807.68 1209.01 5785.88 1182.71 5771.7 1161.6C5759.24 1142.57 5743.67 1115.23 5737.1 1101.04C5730.53 1086.85 5721.19 1062.63 5716 1047.4C5710.81 1032.17 5703.2 1004.14 5699.04 985.11C5692.47 954.657 5691.78 940.122 5691.78 863.989C5691.78 787.856 5692.47 773.322 5699.04 742.868C5703.2 723.835 5710.81 695.804 5715.65 680.578C5720.49 665.351 5732.95 635.936 5743.33 614.827C5753.71 593.717 5772.39 563.61 5784.5 547.345C5796.61 531.08 5818.75 506.164 5833.63 491.976C5848.85 477.441 5872.72 457.716 5886.91 448.372C5901.09 438.682 5924.62 424.84 5938.8 417.573C5952.99 410.306 5974.09 400.962 5985.51 396.809C5996.93 392.311 6019.42 385.389 6035.68 381.237C6051.94 377.084 6079.96 371.547 6097.95 368.779C6120.09 365.664 6152.62 364.626 6198.28 365.664V365.664ZM6106.6 559.803C6097.26 562.918 6079.96 570.185 6068.54 576.414C6056.44 582.643 6036.71 597.87 6021.49 613.096C6000.39 634.206 5992.43 645.28 5979.28 671.926C5970.63 689.921 5960.25 717.952 5956.1 734.217C5952.3 750.482 5949.18 765.708 5949.18 768.131C5949.18 771.245 5997.27 772.283 6177.53 772.283H6405.87C6402.75 746.675 6398.6 727.642 6395.14 713.453C6391.34 699.265 6382.69 675.733 6375.77 661.545C6366.43 642.511 6356.05 628.669 6337.02 609.29C6319.37 591.987 6303.11 579.529 6288.24 572.261C6275.78 566.032 6257.1 558.765 6246.72 555.997C6236.34 552.882 6213.85 550.114 6196.55 549.075C6179.26 548.383 6156.08 549.075 6144.66 551.152C6133.24 552.882 6116.29 556.689 6106.6 559.803V559.803ZM4053.25 384.697H4279.86L4282.28 444.219C4284.01 477.095 4285.05 517.238 4285.4 562.918L4294.74 538.694C4299.93 525.543 4309.62 505.126 4316.19 493.706C4322.42 482.286 4338.68 461.868 4352.17 448.026C4370.51 429.685 4383.31 420.341 4402.68 410.998C4416.87 404.423 4437.97 396.117 4449.39 393.003C4464.96 388.85 4488.83 386.774 4617.19 384.697V585.412L4535.19 586.796C4472.91 587.834 4447.31 589.564 4430.36 593.717C4417.9 597.178 4398.53 604.099 4387.11 609.636C4375.35 615.519 4357.71 628.669 4346.63 639.743C4335.91 650.817 4323.11 667.774 4318.26 677.117C4313.42 686.807 4306.85 703.764 4303.39 715.184C4297.85 734.217 4297.16 759.825 4295.43 1343.28H4053.25V384.697Z" fill="white"/>
</svg>
