<svg width="1264" height="231" viewBox="0 0 1264 231" fill="none" xmlns="http://www.w3.org/2000/svg">
<path fill-rule="evenodd" clip-rule="evenodd" d="M253.912 0.226807H0.717285V230.44H253.912V0.226807ZM1263.81 81.1466C1263.47 80.2258 1261.28 79.6502 1258.4 79.7653C1255.64 79.7653 1251.38 80.5711 1248.85 81.3768C1246.32 82.2977 1241.48 85.2904 1238.26 88.2832L1232.16 93.463C1232.16 88.1681 1231.47 85.1753 1230.78 83.5638C1229.4 80.8013 1228.94 80.6862 1224.11 81.3768C1221.23 81.8372 1217.78 82.643 1216.4 83.2185C1214.09 84.1394 1213.86 84.83 1214.44 88.053C1214.9 90.0098 1215.36 111.535 1215.59 135.822L1216.05 179.793H1232.16C1232.16 132.024 1232.74 116.139 1233.31 113.607C1233.89 111.074 1235.85 107.506 1237.57 105.779C1239.41 103.938 1242.29 101.636 1244.25 100.6C1246.2 99.5636 1250.23 98.4126 1253.45 98.0672L1259.09 97.4917C1263.24 85.866 1264.16 81.8372 1263.81 81.1466ZM714.035 47.6506L712.539 38.2119C706.324 38.327 702.641 38.9026 700.454 39.7083C696.541 41.0896 696.426 41.2047 697.002 46.2694C697.347 49.147 697.577 77.9236 697.577 110.153C697.577 142.498 697.232 171.275 696.771 174.383L695.851 179.793L712.423 179.217C714.61 172.081 715.301 170.699 715.301 171.505C715.416 172.196 717.833 174.383 720.94 176.109C723.932 177.836 728.421 179.908 730.953 180.714C733.485 181.404 737.973 182.095 741.08 182.095C744.073 182.095 749.482 180.944 753.165 179.563C757.078 178.066 761.566 175.189 764.328 172.426C766.86 169.779 770.428 164.829 772.154 161.376C773.881 157.923 776.067 151.937 777.103 148.139C778.024 144.34 778.829 136.398 778.829 130.297C778.829 124.311 778.139 116.254 777.218 112.456C776.297 108.657 774.456 103.247 773.19 100.369C771.809 97.4917 768.702 93.2328 766.4 90.7004C763.983 88.2832 759.955 85.1753 757.423 83.794C753.625 81.8372 750.863 81.3768 741.311 81.3768C731.183 81.3768 729.226 81.7221 725.198 84.1394C722.666 85.6357 719.444 88.053 717.948 89.3192L715.301 91.7364C715.416 65.0317 714.725 52.9455 714.035 47.6506ZM715.416 106.125L719.789 102.671C722.091 100.715 726.119 98.4126 728.651 97.6068C731.183 96.686 735.326 95.8802 737.858 95.8802C740.39 95.7651 744.303 96.4558 746.49 97.3766C748.676 98.2975 751.669 100.139 753.165 101.405C754.546 102.787 756.732 106.125 757.998 109.002C759.84 113.261 760.3 116.714 760.3 128.34C760.3 137.894 759.725 144.455 758.459 148.714C757.423 152.167 755.351 156.771 753.855 158.843C752.359 160.8 749.022 163.563 746.49 164.829C743.958 166.095 739.814 167.131 737.283 167.131C734.751 167.131 730.492 166.21 727.845 165.174C725.083 164.138 721.17 161.951 715.416 157.347V106.125ZM817.039 42.2406C814.967 41.3198 812.55 40.514 811.86 40.514C811.054 40.6292 808.637 41.3198 806.681 42.2406C804.609 43.1615 802.077 45.5787 801.157 47.4204C800.236 49.3772 799.43 52.1398 799.43 53.7513C799.43 55.3628 800.006 57.78 800.696 59.2764C801.387 60.6577 803.113 62.7296 804.494 63.7655C805.875 64.9166 808.867 65.8374 811.86 65.8374C815.543 65.8374 817.499 65.0317 820.261 62.7296C823.023 60.1972 823.829 58.4706 824.059 54.7872C824.059 52.1398 823.369 48.6866 822.448 46.96C821.527 45.2334 818.995 43.1615 817.039 42.2406ZM400.074 45.8089C395.931 44.773 390.291 43.9672 387.414 44.0823C384.537 44.0823 378.898 45.0032 374.754 46.1543C370.611 47.3053 364.972 49.4923 362.21 50.9887C359.333 52.4851 354.154 56.6289 350.701 60.1972C346.788 64.1109 342.53 69.9813 339.998 75.1611C337.581 79.8804 334.819 87.017 333.668 91.1609C332.172 96.8011 331.711 102.671 331.711 114.758C331.826 126.844 332.402 132.944 334.128 138.93C335.279 143.419 338.156 150.326 340.458 154.469C342.76 158.613 347.363 164.599 350.701 167.707C354.154 170.93 359.793 174.843 363.245 176.57C366.698 178.181 372.337 180.138 375.675 180.829C378.897 181.519 383.961 182.095 386.839 182.095C389.716 182.095 395.815 181.289 400.419 180.368C404.907 179.332 411.928 177.03 415.956 175.189C419.869 173.232 423.091 171.045 423.091 170.354C423.207 169.548 421.25 166.671 418.833 163.908L414.46 159.074C400.994 165.865 397.887 166.671 390.867 166.901C384.652 167.246 380.854 166.786 377.056 165.289C374.179 164.253 369.921 161.951 367.389 160.34C364.972 158.728 361.289 155.045 359.217 152.167C357.261 149.29 354.729 144.57 353.578 141.577C352.542 138.47 351.161 131.563 350.471 126.038C349.435 118.441 349.55 112.916 350.471 104.398C351.161 98.0672 352.657 89.8947 353.808 86.2113C354.844 82.5279 357.606 76.8877 359.908 73.5496C362.555 69.7511 366.238 66.1828 370.266 63.8806C373.719 61.8087 378.782 59.8519 381.66 59.3915C384.537 59.0462 389.716 59.0462 393.168 59.5066C396.736 59.967 402.145 61.8087 405.598 63.6504C408.82 65.4921 412.273 66.7583 413.079 66.413C413.769 66.0677 415.841 63.7655 417.682 61.4634C419.409 59.1613 420.79 56.5138 420.79 55.8232C420.79 55.0174 417.797 52.8304 414.23 50.9887C410.547 49.2621 404.217 46.8449 400.074 45.8089ZM1069.31 81.9523L1070.69 55.4779C1066.09 55.7081 1062.87 56.0534 1060.68 56.5138C1058.49 56.9743 1055.96 57.6649 1055.27 58.1253C1054.47 58.5857 1053.55 61.1181 1053.2 63.8806C1053.08 65.2696 1052.86 67.3555 1052.64 69.5567L1052.63 69.5917L1052.62 69.6724C1052.42 71.6318 1052.21 73.6741 1052.05 75.3913L1051.47 81.9523C1044.45 81.9523 1041.58 82.7581 1040.66 83.6789C1039.62 84.5998 1038.81 87.1321 1038.81 89.204C1038.81 91.1609 1039.39 93.5781 1040.19 94.3838C1041 95.1896 1043.88 95.7651 1046.64 95.7651H1051.47C1051.47 155.62 1051.82 164.369 1053.08 168.858C1054.01 172.081 1055.96 175.764 1057.46 177.03C1058.95 178.412 1062.52 180.368 1065.63 181.404C1068.62 182.44 1073 183.246 1075.41 183.246C1077.71 183.246 1082.43 182.325 1085.77 181.174C1089.11 180.138 1091.98 178.757 1092.21 178.066C1092.45 177.376 1091.98 175.073 1091.29 172.886L1090.03 168.858C1076.45 169.548 1074.61 169.203 1072.19 167.361L1069.31 165.059L1068.74 95.7651C1082.55 95.7651 1087.15 95.3047 1087.73 94.8443C1088.3 94.3838 1089.8 92.0817 1090.95 89.7796C1092.56 86.2113 1092.68 85.0602 1091.52 83.6789C1090.37 82.2977 1087.73 81.8372 1079.67 81.9523H1069.31ZM489.497 81.0315C486.505 80.2257 481.096 79.6502 477.528 79.7653H477.413C473.845 79.8804 468.781 80.5711 466.25 81.2617C463.718 82.0675 459.574 84.0243 457.042 85.6357C454.511 87.2472 451.058 90.1249 449.332 91.8515C447.72 93.6932 445.073 97.4917 443.462 100.369C441.966 103.247 439.779 108.887 438.743 113.031C437.708 117.175 436.902 125.117 436.902 130.873C436.902 136.628 437.708 144.57 438.743 148.714C439.779 152.858 441.736 158.268 443.002 160.8C444.268 163.333 447.49 167.707 450.137 170.584C452.899 173.462 457.733 177.03 461.186 178.527C465.444 180.483 470.278 181.519 476.607 181.865C482.132 182.21 487.656 181.865 490.418 180.944C492.95 180.253 496.863 178.757 499.05 177.721C501.236 176.685 505.264 173.692 507.912 170.93C510.674 168.167 514.126 163.217 515.737 159.994C517.349 156.656 519.19 150.556 519.881 146.412C520.571 142.153 520.916 133.405 520.571 126.268C520.111 117.175 519.19 111.65 517.349 106.7C515.853 102.902 512.63 97.2615 510.098 94.1536C507.451 91.0457 503.078 87.1321 500.201 85.4055C497.323 83.6789 492.605 81.7221 489.497 81.0315ZM458.654 105.894C460.035 102.787 462.912 99.2183 464.868 97.837C466.94 96.4558 470.508 94.9594 472.694 94.4989C474.881 94.0385 478.794 93.9234 481.326 94.2687C483.858 94.614 487.196 95.5349 488.807 96.3406C490.418 97.1464 492.835 99.1032 494.101 100.6C495.482 101.981 497.438 104.859 498.359 106.7C499.28 108.657 500.776 115.563 501.582 122.24C502.733 131.678 502.733 136.283 501.697 143.534C501.006 148.599 499.74 154.009 498.935 155.62C498.129 157.232 496.633 159.534 495.712 160.915C494.791 162.182 492.49 164.253 490.533 165.52C488.116 167.131 485.124 167.707 479.485 167.707C472.694 167.707 471.083 167.246 466.71 164.253C462.912 161.491 461.071 159.074 458.999 153.894C456.352 147.563 456.122 145.491 456.122 129.146C456.122 113.261 456.352 110.729 458.654 105.894ZM598.716 81.607C595.609 80.5711 591.351 79.6502 589.509 79.6502C587.668 79.6502 583.179 80.9164 579.727 82.2977C576.274 83.6789 571.21 86.5566 568.563 88.6285L563.614 92.3119C561.543 84.7149 560.622 82.0675 560.277 81.607C559.931 81.1466 557.054 81.0315 553.832 81.3768C550.724 81.7221 547.157 82.643 546.121 83.4487C544.279 84.7149 544.279 85.4055 545.776 92.3119C547.042 97.9521 547.387 109.693 547.502 139.851V179.793C560.622 179.793 562.578 179.332 563.039 178.066C563.384 177.145 563.614 160.8 563.614 141.808V107.276C572.936 100.484 577.54 97.837 579.727 97.1464C581.913 96.3406 585.136 95.7651 586.977 95.7651C588.703 95.7651 591.35 96.4558 592.962 97.2615C594.573 97.9521 596.299 99.4485 596.76 100.369C597.22 101.29 597.795 119.477 598.141 140.657L598.716 179.217L615.404 179.793V109.002C626.568 100.024 632.092 96.8011 634.969 95.8802C639.457 94.614 640.723 94.6141 644.521 96.2255C646.938 97.2615 649.24 99.3334 649.93 100.945C650.621 102.671 651.081 118.556 651.081 140.081C651.081 159.994 651.312 177.145 651.657 178.066C652.117 179.332 654.189 179.793 660.288 179.793H668.345C668.345 112.801 667.884 99.5636 666.964 96.3406C666.158 93.8083 663.396 89.6645 660.864 87.1321C658.332 84.5998 654.189 81.8372 651.657 81.0315C649.125 80.3408 645.442 79.6502 643.601 79.6502C641.759 79.6502 637.846 80.3409 634.969 81.2617C632.092 82.0675 626.913 84.5998 623.46 86.7868C620.007 88.9738 616.325 91.6213 615.404 92.7723C614.483 93.8083 613.332 94.7292 612.872 94.614C612.297 94.614 611.951 93.9234 611.951 93.2328C611.951 92.427 610.34 89.8947 608.269 87.7077C606.082 85.2904 602.054 82.7581 598.716 81.607ZM1001.18 81.3768C997.958 80.456 992.779 79.7653 989.786 79.7653H989.671C986.679 79.8804 981.155 80.5711 977.357 81.3768C973.559 82.1826 968.15 83.6789 965.272 84.7149C962.395 85.7509 957.907 87.9379 955.145 89.4343C952.498 91.0457 950.311 93.0026 950.311 93.8083C950.311 94.4989 951.807 97.3766 953.764 100.139C955.605 102.787 957.446 104.974 957.792 104.974C958.137 104.974 960.554 103.592 963.201 101.866C965.963 100.254 971.027 97.9521 974.48 96.686C978.047 95.5349 984.032 94.614 988.29 94.614C995.195 94.614 996.116 94.8443 999.569 98.2974C1003.14 101.866 1003.37 102.556 1003.37 110.153L1003.25 118.211C980.809 120.283 973.904 121.664 969.301 123.506C965.503 124.887 960.324 127.765 957.792 129.721C955.26 131.678 951.807 135.822 949.966 138.93C947.089 144.225 946.858 145.491 947.089 155.045C947.434 164.369 947.779 165.865 950.886 170.469C953.073 173.807 956.411 176.685 960.094 178.527C964.352 180.714 968.035 181.634 974.48 181.98C980.234 182.21 984.953 181.75 988.866 180.599C991.973 179.563 996.922 176.915 999.799 174.843L1004.98 170.93C1009.01 177.376 1011.77 180.138 1013.61 181.289C1015.57 182.325 1017.75 183.246 1018.44 183.246C1019.25 183.131 1021.32 181.059 1023.05 178.642C1024.89 176.109 1026.27 173.347 1026.27 172.656C1026.27 171.85 1024.77 169.663 1023.05 167.937L1019.94 164.714C1020.63 106.93 1020.4 102.556 1018.56 97.0313C1017.06 92.5421 1015.11 89.6645 1011.88 86.9019C1009.35 84.83 1004.52 82.2977 1001.18 81.3768ZM967.459 141.923C968.495 139.851 971.257 136.973 973.444 135.707C975.63 134.326 980.579 132.599 984.377 131.909C988.175 131.103 993.814 130.527 1002.79 130.873L1003.48 155.045L999.569 159.649C997.497 162.181 993.239 165.404 990.362 166.901C987.369 168.282 982.766 169.433 980.004 169.433C976.896 169.433 973.789 168.627 971.142 166.901C968.38 164.944 966.769 162.757 965.733 159.074C964.812 156.196 964.467 152.052 964.812 149.865C965.272 147.678 966.423 144.11 967.459 141.923ZM1159.89 81.2617C1157.01 80.3409 1151.6 79.7653 1147.8 79.7653C1144 79.7653 1138.6 80.456 1135.72 81.2617C1132.84 82.0675 1128.12 84.3696 1125.02 86.3264C1122.02 88.3983 1118.11 92.1968 1116.27 94.9594C1114.54 97.6068 1112.01 102.096 1110.74 104.974C1109.48 107.851 1107.75 114.873 1106.95 120.513C1105.68 128.916 1105.68 132.714 1106.83 140.657C1107.64 146.067 1109.02 152.743 1110.05 155.62C1111.09 158.498 1113.16 162.642 1114.54 164.829C1115.92 167.016 1119.03 170.699 1121.45 172.886C1123.98 174.958 1128.24 177.836 1131.11 179.217C1135.26 181.059 1138.6 181.519 1148.38 181.519C1158.85 181.519 1161.27 181.174 1166.68 178.642C1170.36 176.915 1175.08 173.462 1178.19 170.009C1181.06 166.786 1184.63 161.376 1185.9 157.923C1187.28 154.469 1189.12 147.448 1189.92 142.383C1191.08 135.131 1191.19 130.988 1190.16 122.815C1189.35 117.175 1187.62 109.348 1186.13 105.549C1184.52 101.405 1181.29 96.3406 1177.73 92.5421C1174.5 89.0889 1170.36 85.5206 1168.52 84.4847C1166.68 83.5638 1162.76 82.0675 1159.89 81.2617ZM1132.73 99.5636C1135.03 97.4917 1138.25 95.4198 1139.98 95.0745C1141.82 94.7292 1143.77 94.2687 1144.35 93.9234C1144.93 93.6932 1147.57 93.8083 1150.1 94.1536C1152.64 94.4989 1156.55 95.65 1158.74 96.8011C1160.92 97.9521 1163.91 100.6 1165.41 102.787C1166.91 104.974 1168.63 108.542 1169.32 110.729C1169.9 112.916 1170.82 121.204 1171.05 129.146C1171.63 140.772 1171.28 144.916 1169.67 150.441C1168.52 154.239 1166.79 158.613 1165.76 160.11C1164.72 161.606 1162.07 163.908 1159.89 165.174C1156.78 167.016 1154.02 167.591 1148.38 167.591C1142.62 167.476 1139.86 166.786 1136.41 164.714C1133.99 163.217 1131.11 160.455 1129.96 158.498C1128.81 156.656 1127.2 152.167 1126.4 148.714C1125.59 145.146 1124.78 136.283 1124.78 128.57C1124.78 118.671 1125.36 113.146 1126.74 109.002C1127.89 105.549 1130.31 101.751 1132.73 99.5636ZM820.376 179.793V80.8013C815.428 81.0315 812.78 81.2617 811.169 81.607C810.114 81.7578 808.714 82.0072 807.485 82.2261C806.837 82.3415 806.237 82.4484 805.76 82.5279L803.343 83.1034L803.113 179.793H820.376ZM864.685 82.2977C864.34 81.4919 862.959 80.8013 861.463 80.9164C860.082 81.0315 856.859 81.4919 854.327 82.0675C851.795 82.7581 849.379 83.5638 848.803 84.0243C848.343 84.4847 848.803 88.6285 849.724 93.2328C851.105 99.6787 851.45 110.269 851.45 140.657V179.793C864.57 179.793 866.527 179.332 866.987 178.066C867.332 177.145 867.562 160.915 867.562 142.153L867.447 107.851C873.317 103.132 877.92 100.369 881.373 98.6428C885.516 96.5709 889.544 95.4198 892.882 95.5349C895.759 95.5349 899.097 96.1104 900.363 96.8011C901.629 97.4917 903.47 99.2183 904.391 100.715C905.772 102.787 906.117 110.269 906.347 141.577L906.693 179.793H922.805C922.805 99.909 922.69 98.5277 920.388 94.0385C919.007 91.5062 916.59 88.2832 914.864 86.7868C913.253 85.4055 909.8 83.4487 907.268 82.4128C904.046 81.1466 900.133 80.6862 894.033 81.0315C888.394 81.3768 884.02 82.2977 881.373 83.794C879.186 84.9451 875.158 87.5926 872.396 89.6645L867.562 93.463C865.721 85.866 864.915 82.9883 864.685 82.2977ZM97.1613 91.7363C85.8826 70.9021 76.6756 53.4059 76.6756 52.9455V52.8304C76.6756 52.37 80.9338 52.0246 95.6651 52.0246L111.202 83.5638C119.719 101.06 126.969 115.218 127.314 115.333C127.66 115.333 135.025 101.06 159.539 52.0246H168.171C174.27 52.0246 176.802 52.4851 176.802 53.4059C176.802 54.2117 167.595 72.0531 135.946 130.873L134.795 183.821H118.683L117.532 129.721L97.1613 91.7363Z" fill="white"/>
</svg>
