<svg width="26" height="27" viewBox="0 0 26 27" fill="none" xmlns="http://www.w3.org/2000/svg">
<path fill-rule="evenodd" clip-rule="evenodd" d="M20.8286 10.2013C21.035 10.7042 21.524 11.0331 22.0675 11.0347C22.8052 11.0406 23.4 11.6403 23.4 12.378V14.6963C23.4 15.4382 22.7986 16.0397 22.0567 16.0397C21.5132 16.0413 21.0242 16.3702 20.8178 16.873C20.6115 17.3758 20.7284 17.9534 21.1142 18.3363C21.6316 18.8666 21.6316 19.7128 21.1142 20.243L19.4892 21.868C18.9589 22.3854 18.1127 22.3854 17.5825 21.868C17.3379 21.6089 16.9963 21.4636 16.64 21.4672C16.2818 21.4643 15.9374 21.6045 15.6831 21.8568C15.4288 22.109 15.2858 22.4523 15.2858 22.8105C15.2858 23.5524 14.6844 24.1538 13.9425 24.1538H11.6242C10.8823 24.1538 10.2808 23.5524 10.2808 22.8105C10.2808 22.4523 10.1378 22.109 9.88355 21.8568C9.62928 21.6045 9.28481 21.4643 8.92666 21.4672C8.57036 21.4636 8.22874 21.6089 7.98416 21.868C7.45392 22.3854 6.60774 22.3854 6.0775 21.868L4.4525 20.243C3.93506 19.7128 3.93506 18.8666 4.4525 18.3363C4.83821 17.9534 4.95519 17.3758 4.74885 16.873C4.5425 16.3702 4.0535 16.0413 3.51 16.0397C3.15372 16.0397 2.81204 15.8981 2.56012 15.6462C2.30819 15.3943 2.16666 15.0526 2.16666 14.6963V12.378C2.16666 11.6361 2.76809 11.0347 3.51 11.0347C4.0535 11.0331 4.5425 10.7042 4.74885 10.2013C4.95519 9.69852 4.83821 9.12092 4.4525 8.738C3.93506 8.20776 3.93506 7.36157 4.4525 6.83133L6.0775 5.20633C6.60774 4.6889 7.45392 4.6889 7.98416 5.20633C8.22874 5.46546 8.57036 5.61075 8.92666 5.60717C9.2867 5.61008 9.63283 5.46835 9.88742 5.21376C10.142 4.95917 10.2837 4.61303 10.2808 4.253C10.2808 3.5111 10.8823 2.90967 11.6242 2.90967H13.9533C14.6952 2.90967 15.2967 3.5111 15.2967 4.253C15.2937 4.61303 15.4355 4.95917 15.6901 5.21376C15.9447 5.46835 16.2908 5.61008 16.6508 5.60717C17.0071 5.61075 17.3488 5.46546 17.5933 5.20633C18.1236 4.6889 18.9698 4.6889 19.5 5.20633L21.125 6.83133C21.6424 7.36157 21.6424 8.20776 21.125 8.738C20.7393 9.12092 20.6223 9.69852 20.8286 10.2013ZM19.2833 16.2455C19.7062 15.2144 20.6746 14.5101 21.7858 14.4255L21.7533 12.6488C20.6542 12.5525 19.701 11.8501 19.2833 10.8288C18.8742 9.80517 19.0616 8.63943 19.7708 7.7955L18.525 6.54967C17.9967 6.99211 17.3291 7.23382 16.64 7.23217C15.1048 7.22841 13.8218 6.06255 13.6717 4.53467H11.895C11.7497 6.06498 10.4639 7.23346 8.92666 7.23217C8.23755 7.23382 7.56998 6.99211 7.04166 6.54967L5.82833 7.7955C6.52657 8.64587 6.70134 9.81103 6.28333 10.8288C5.86567 11.8501 4.91247 12.5525 3.81333 12.6488V14.4255C4.91247 14.5219 5.86567 15.2242 6.28333 16.2455C6.69244 17.2692 6.50509 18.4349 5.79583 19.2788L7.04166 20.5247C7.56998 20.0822 8.23755 19.8405 8.92666 19.8422C10.4619 19.8459 11.7448 21.0118 11.895 22.5397H13.6717C13.8071 21.0044 15.0988 19.8306 16.64 19.8422C17.3291 19.8405 17.9967 20.0822 18.525 20.5247L19.7383 19.2788C19.0401 18.4285 18.8653 17.2633 19.2833 16.2455Z" fill="#B2B2B2"/>
<path fill-rule="evenodd" clip-rule="evenodd" d="M9.035 13.5372C9.035 11.467 10.7132 9.78884 12.7833 9.78884C13.7775 9.78884 14.7309 10.1837 15.4338 10.8867C16.1368 11.5896 16.5317 12.543 16.5317 13.5372C16.5317 15.6073 14.8535 17.2855 12.7833 17.2855C10.7132 17.2855 9.035 15.6073 9.035 13.5372ZM10.6167 13.5372C10.6167 14.7338 11.5867 15.7038 12.7833 15.7038C13.9799 15.7038 14.95 14.7338 14.95 13.5372C14.95 12.3406 13.9799 11.3705 12.7833 11.3705C11.5867 11.3705 10.6167 12.3406 10.6167 13.5372Z" fill="#B2B2B2"/>
</svg>
