<svg width="26" height="27" viewBox="0 0 26 27" fill="none" xmlns="http://www.w3.org/2000/svg">
<path d="M14.9067 13.5372C14.9067 14.7099 13.956 15.6605 12.7833 15.6605C11.6106 15.6605 10.66 14.7099 10.66 13.5372C10.66 12.3645 11.6106 11.4138 12.7833 11.4138C13.956 11.4138 14.9067 12.3645 14.9067 13.5372Z" fill="black"/>
<path fill-rule="evenodd" clip-rule="evenodd" d="M20.8287 10.2013C21.035 10.7042 21.524 11.0331 22.0675 11.0347C22.4238 11.0347 22.7655 11.1762 23.0174 11.4281C23.2693 11.68 23.4108 12.0217 23.4108 12.378V14.6963C23.4108 15.4382 22.8094 16.0397 22.0675 16.0397C21.524 16.0413 21.035 16.3702 20.8287 16.873C20.6223 17.3758 20.7393 17.9534 21.125 18.3363C21.6424 18.8666 21.6424 19.7128 21.125 20.243L19.5 21.868C18.9698 22.3854 18.1236 22.3854 17.5933 21.868C17.2104 21.4823 16.6328 21.3653 16.13 21.5717C15.6272 21.778 15.2983 22.267 15.2967 22.8105C15.2967 23.5524 14.6952 24.1538 13.9533 24.1538H11.635C10.8931 24.1538 10.2917 23.5524 10.2917 22.8105C10.2901 22.267 9.96116 21.778 9.45834 21.5717C8.95552 21.3653 8.37792 21.4823 7.995 21.868C7.46476 22.3854 6.61857 22.3854 6.08833 21.868L4.46333 20.243C3.9459 19.7128 3.9459 18.8666 4.46333 18.3363C4.85046 17.952 4.96676 17.3718 4.75763 16.868C4.5485 16.3642 4.05548 16.0369 3.51 16.0397C2.7681 16.0397 2.16667 15.4382 2.16667 14.6963V12.378C2.16667 11.6361 2.7681 11.0347 3.51 11.0347C4.05351 11.0331 4.54251 10.7042 4.74885 10.2013C4.95519 9.69852 4.83822 9.12092 4.4525 8.738C3.93507 8.20776 3.93507 7.36157 4.4525 6.83133L6.0775 5.20633C6.60774 4.6889 7.45393 4.6889 7.98417 5.20633C8.36847 5.59346 8.94872 5.70976 9.45252 5.50063C9.95633 5.2915 10.2837 4.79848 10.2808 4.253C10.2808 3.5111 10.8823 2.90967 11.6242 2.90967H13.9533C14.3096 2.90967 14.6513 3.0512 14.9032 3.30312C15.1551 3.55505 15.2967 3.89673 15.2967 4.253C15.2939 4.79848 15.6212 5.2915 16.125 5.50063C16.6288 5.70976 17.209 5.59346 17.5933 5.20633C18.1236 4.6889 18.9698 4.6889 19.5 5.20633L21.125 6.83133C21.6424 7.36157 21.6424 8.20776 21.125 8.738C20.7393 9.12092 20.6223 9.69852 20.8287 10.2013ZM9.035 13.5372C9.035 15.6073 10.7132 17.2855 12.7833 17.2855C14.8535 17.2855 16.5317 15.6073 16.5317 13.5372C16.5317 11.467 14.8535 9.78884 12.7833 9.78884C10.7132 9.78884 9.035 11.467 9.035 13.5372Z" fill="black"/>
</svg>
