<svg width="31" height="24" viewBox="0 0 31 24" fill="none" xmlns="http://www.w3.org/2000/svg">
<g clip-path="url(#clip0_1532_1639)">
<path d="M21.2754 11.2652H20.1921C17.7988 11.2652 15.8587 9.32514 15.8587 6.9319V4.0719C15.8558 3.10563 16.2384 2.1781 16.9217 1.49484C17.6049 0.811583 18.5325 0.429012 19.4987 0.431901H21.9687C22.935 0.429012 23.8625 0.811583 24.5458 1.49484C25.229 2.1781 25.6116 3.10563 25.6087 4.0719V6.9319C25.6087 8.08117 25.1522 9.18337 24.3395 9.99603C23.5269 10.8087 22.4247 11.2652 21.2754 11.2652Z" fill="black"/>
<path d="M14.4736 23.1423H4.42023C3.32517 23.1024 2.3051 22.5757 1.63861 21.7059C0.972117 20.8361 0.728845 19.7141 0.975231 18.6464L1.23523 17.4114C1.53427 15.7396 2.97141 14.511 4.6694 14.4756H14.2244C15.9224 14.511 17.3595 15.7396 17.6586 17.4114L17.9186 18.6464C18.165 19.7141 17.9217 20.8361 17.2552 21.7059C16.5887 22.5757 15.5686 23.1024 14.4736 23.1423Z" fill="black"/>
<path d="M10.616 11.2629H9.77293C7.91049 11.2629 6.40067 9.75313 6.40067 7.89068V5.66499C6.39843 4.91302 6.69615 4.19121 7.22787 3.65948C7.75959 3.12776 8.48141 2.83004 9.23337 2.83229H11.1556C11.9075 2.83004 12.6293 3.12776 13.1611 3.65948C13.6928 4.19121 13.9905 4.91302 13.9883 5.66499V7.89068C13.9883 8.78506 13.633 9.64281 13.0005 10.2752C12.3681 10.9076 11.5104 11.2629 10.616 11.2629Z" fill="black"/>
<path d="M26.3331 23.1423H16.2797C15.1847 23.1024 14.1646 22.5757 13.4981 21.7059C12.8316 20.8361 12.5883 19.7141 12.8347 18.6464L13.0947 17.4114C13.3938 15.7396 14.8309 14.511 16.5289 14.4756H26.0839C27.7819 14.511 29.219 15.7396 29.5181 17.4114L29.7781 18.6464C30.0244 19.7141 29.7812 20.8361 29.1147 21.7059C28.4482 22.5757 27.4281 23.1024 26.3331 23.1423Z" fill="black" stroke="white"/>
</g>
<defs>
<clipPath id="clip0_1532_1639">
<rect width="31" height="24" fill="white"/>
</clipPath>
</defs>
</svg>
