<svg width="32" height="24" viewBox="0 0 32 24" fill="none" xmlns="http://www.w3.org/2000/svg">
<path fill-rule="evenodd" clip-rule="evenodd" d="M22.5609 10.8773H21.4776C19.0844 10.8773 17.1443 8.93719 17.1443 6.54396V3.68396C17.1414 2.71769 17.524 1.79016 18.2072 1.1069C18.8905 0.423644 19.818 0.0410728 20.7843 0.0439616H23.2543C24.2206 0.0410728 25.1481 0.423644 25.8313 1.1069C26.5146 1.79016 26.8972 2.71769 26.8943 3.68396V6.54396C26.8943 8.93719 24.9542 10.8773 22.5609 10.8773ZM20.7843 1.66896C19.6714 1.66896 18.7693 2.57111 18.7693 3.68396V6.54396C18.7693 8.03973 19.9818 9.25229 21.4776 9.25229H22.5609C24.0567 9.25229 25.2693 8.03973 25.2693 6.54396V3.68396C25.2693 3.14955 25.057 2.63703 24.6791 2.25914C24.3012 1.88126 23.7887 1.66896 23.2543 1.66896H20.7843Z" fill="#B2B2B2"/>
<path d="M14.4736 22.1423H4.42023C3.32517 22.1024 2.3051 21.5757 1.63861 20.7059C0.972119 19.8361 0.728847 18.7141 0.975233 17.6464L1.23523 16.4114C1.53427 14.7396 2.97141 13.511 4.6694 13.4756H14.2244C15.9224 13.511 17.3595 14.7396 17.6586 16.4114L17.9186 17.6464C18.165 18.7141 17.9217 19.8361 17.2552 20.7059C16.5887 21.5757 15.5686 22.1024 14.4736 22.1423Z" fill="white"/>
<path fill-rule="evenodd" clip-rule="evenodd" d="M18.5312 16.5641L18.8047 17.8634C19.0639 18.9866 18.808 20.1669 18.1068 21.082C17.4057 21.997 16.3325 22.5511 15.1805 22.593H4.60431C3.45229 22.5511 2.37916 21.997 1.678 21.082C0.97685 20.1669 0.720925 18.9866 0.980126 17.8634L1.25365 16.5641C1.56824 14.8053 3.08012 13.5128 4.86643 13.4756H14.9184C16.7047 13.5128 18.2166 14.8053 18.5312 16.5641ZM15.1805 20.8721C15.7592 20.8654 16.3039 20.5973 16.6621 20.1427V20.1541C17.1017 19.6027 17.2729 18.8842 17.1294 18.1939L16.8559 16.8946C16.7041 15.9318 15.8924 15.2108 14.9184 15.1737H4.86643C3.89242 15.2108 3.08074 15.9318 2.92898 16.8946L2.65546 18.1939C2.51545 18.8806 2.68653 19.5941 3.12273 20.1427C3.48097 20.5973 4.02559 20.8654 4.60431 20.8721H15.1805Z" fill="#B2B2B2"/>
<path fill-rule="evenodd" clip-rule="evenodd" d="M10.3139 10.8772H9.47088C7.60843 10.8772 6.09862 9.36738 6.09862 7.50494V5.27924C6.09637 4.52728 6.3941 3.80546 6.92582 3.27374C7.45754 2.74202 8.17936 2.4443 8.93132 2.44655H10.8535C11.6055 2.4443 12.3273 2.74202 12.859 3.27374C13.3907 3.80546 13.6885 4.52728 13.6862 5.27924V7.50494C13.6862 9.36738 12.1764 10.8772 10.3139 10.8772ZM8.93132 3.8892C8.06528 3.8892 7.516 4.41321 7.516 5.27924V7.50494C7.516 8.66897 8.30685 9.4358 9.47088 9.4358H10.3139C11.478 9.4358 12.2802 8.66897 12.2802 7.50494V5.27924C12.2802 4.86336 12.2564 4.46451 11.9623 4.17043C11.6682 3.87635 11.2694 3.8892 10.8535 3.8892H8.93132Z" fill="#B2B2B2"/>
<path d="M26.3331 22.1423H16.2797C15.1847 22.1024 14.1646 21.5757 13.4981 20.7059C12.8316 19.8361 12.5883 18.7141 12.8347 17.6464L13.0947 16.4114C13.3938 14.7396 14.8309 13.511 16.5289 13.4756H26.0839C27.7819 13.511 29.219 14.7396 29.5181 16.4114L29.7781 17.6464C30.0244 18.7141 29.7812 19.8361 29.1147 20.7059C28.4482 21.5757 27.4281 22.1024 26.3331 22.1423Z" fill="white" stroke="white" stroke-width="2"/>
<path fill-rule="evenodd" clip-rule="evenodd" d="M30.8464 16.4596L31.1107 17.7148C31.3611 18.8001 31.1139 19.9405 30.4364 20.8245C29.759 21.7086 28.7222 22.2439 27.6092 22.2844H17.3909C16.2779 22.2439 15.2411 21.7086 14.5637 20.8245C13.8863 19.9405 13.639 18.8001 13.8894 17.7148L14.1537 16.4596C14.4576 14.7603 15.9183 13.5116 17.6442 13.4756H27.3559C29.0818 13.5116 30.5425 14.7603 30.8464 16.4596ZM27.6092 20.6218C28.1683 20.6153 28.6945 20.3562 29.0406 19.917V19.9281C29.4653 19.3953 29.6308 18.7012 29.4921 18.0342L29.2278 16.7789C29.0812 15.8487 28.297 15.1521 27.3559 15.1162H17.6442C16.7031 15.1521 15.9189 15.8487 15.7723 16.7789L15.508 18.0342C15.3728 18.6977 15.5381 19.387 15.9595 19.917C16.3056 20.3562 16.8318 20.6153 17.3909 20.6218H27.6092Z" fill="#B2B2B2"/>
</svg>
