<svg width="25" height="25" viewBox="0 0 25 25" fill="none" xmlns="http://www.w3.org/2000/svg">
<path fill-rule="evenodd" clip-rule="evenodd" d="M21.1249 3.97946L22.8541 8.78155C23.2303 9.71138 23.1373 10.7653 22.6041 11.6149C22.1504 12.2588 21.4939 12.7319 20.7395 12.9586V20.042C20.7231 20.8377 20.3912 21.5943 19.8168 22.1452C19.2425 22.6961 18.4727 22.9962 17.677 22.9795H7.61452C6.80895 23.0104 6.02464 22.7169 5.43724 22.1647C4.84985 21.6126 4.50846 20.8479 4.48952 20.042V13.0628C3.75614 12.8948 3.09557 12.497 2.60411 11.9274C1.89743 11.0453 1.72217 9.85028 2.14577 8.80238L3.86452 3.98988C4.26987 2.96354 5.27173 2.29841 6.37494 2.32322H18.6145C19.716 2.29369 20.7187 2.95521 21.1249 3.97946ZM13.9077 21.2815H13.9166V21.3128C13.9135 21.3024 13.9105 21.292 13.9077 21.2815ZM13.9077 21.2815H11.2604C11.2703 21.202 11.2703 21.1215 11.2604 21.042V18.844C11.2785 18.5135 11.4314 18.2049 11.6835 17.9903C11.9355 17.7757 12.2645 17.6739 12.5937 17.7086C13.2483 17.6606 13.8196 18.1484 13.8749 18.8024V21.0315C13.8749 21.116 13.8859 21.2 13.9077 21.2815ZM17.6249 21.2815H15.427C15.4369 21.202 15.4369 21.1215 15.427 21.042V18.844C15.3705 17.3102 14.0862 16.1097 12.552 16.1565C11.0138 16.1038 9.72313 17.306 9.66661 18.844V21.0732C9.65669 21.1528 9.65669 21.2332 9.66661 21.3128H7.56244C6.79513 21.3482 6.14342 20.757 6.10411 19.9899V13.042C7.49199 12.8324 8.60664 11.7882 8.90619 10.417C9.27308 12.0806 10.8 13.2269 12.4999 13.1149C14.1692 13.1848 15.6484 12.048 16.0104 10.417C16.3034 11.8746 17.5107 12.972 18.9895 13.1253V20.042C18.9258 20.7518 18.3375 21.2997 17.6249 21.3128V21.2815ZM19.7083 11.292C20.2605 11.2775 20.7721 10.9984 21.0833 10.542V10.5732C21.2994 10.2091 21.3266 9.76298 21.1562 9.3753L19.4374 4.63571C19.285 4.32574 18.9589 4.14002 18.6145 4.16696H6.37494C6.04359 4.13667 5.72537 4.30393 5.56244 4.59405L3.84369 9.3753C3.62031 9.8174 3.66042 10.3469 3.94786 10.7503C4.20748 11.0693 4.58106 11.2748 4.98952 11.3232C5.12102 11.3386 5.25386 11.3386 5.38536 11.3232C6.18688 11.367 6.91077 10.8468 7.12494 10.0732C7.28387 9.19269 8.04282 8.54715 8.93744 8.53155C9.8417 8.53112 10.6112 9.19008 10.7499 10.0836C10.962 10.862 11.6953 11.3815 12.4999 11.3232C13.3112 11.3773 14.0444 10.8417 14.2395 10.0524C14.3902 9.16554 15.1526 8.51272 16.052 8.5003C16.9529 8.49906 17.7212 9.15255 17.8645 10.042C18.0767 10.8261 18.8147 11.3501 19.6249 11.292H19.7083Z" fill="#B2B2B2"/>
</svg>
