<svg width="25" height="25" viewBox="0 0 25 25" fill="none" xmlns="http://www.w3.org/2000/svg">
<path d="M21.146 3.85446L22.9168 8.64613C23.2582 9.5847 23.1305 10.6299 22.5731 11.4586C21.9406 12.3805 20.909 12.9485 19.7918 12.9899C18.0483 13.1231 16.4739 11.949 16.1043 10.2399C16.1043 10.2399 16.0418 10.2399 16.0314 10.2399C15.6861 11.8973 14.1917 13.0612 12.5001 12.9899C10.8163 13.0507 9.33372 11.8893 8.98972 10.2399C8.98972 10.2399 8.92722 10.2399 8.9168 10.2399C8.71513 11.1565 8.15687 11.9551 7.36531 12.4594C6.57374 12.9636 5.614 13.132 4.69805 12.9274C3.88389 12.7936 3.14471 12.3722 2.61472 11.7399C1.9275 10.8695 1.75308 9.70003 2.15639 8.66696L3.88555 3.85446C4.2918 2.83021 5.29448 2.16869 6.39597 2.19822H18.6356C19.737 2.16869 20.7397 2.83021 21.146 3.85446Z" fill="black"/>
<path d="M19.896 14.5836V19.8961C19.8796 20.4791 19.6322 21.0317 19.2083 21.4323C18.7843 21.8328 18.2185 22.0484 17.6356 22.0315H14.6876V18.7503C14.6315 17.6551 13.6997 16.8118 12.6043 16.8649C12.0629 16.8589 11.539 17.0559 11.1356 17.417C10.7474 17.7516 10.5233 18.2379 10.521 18.7503V22.0315H7.57305C6.98297 22.0484 6.41094 21.8271 5.98575 21.4176C5.56057 21.0081 5.31799 20.4448 5.31263 19.8545V14.5836H5.39597C6.70153 14.5861 7.9623 14.1078 8.93763 13.2399C10.9818 15.0232 14.0289 15.0232 16.0731 13.2399C17.0522 14.1152 18.3223 14.5942 19.6356 14.5836H19.896Z" fill="black"/>
</svg>
