<svg width="26" height="26" viewBox="0 0 26 26" fill="none" xmlns="http://www.w3.org/2000/svg">
<path fill-rule="evenodd" clip-rule="evenodd" d="M21.9807 7.58418L15.9573 3.13168C14.1954 1.84543 11.8042 1.84543 10.0423 3.13168L4.02984 7.58418C2.86573 8.42283 2.17312 9.76779 2.1665 11.2025V19.2517C2.23153 21.8444 4.38371 23.8948 6.9765 23.8342H19.0232C21.616 23.8948 23.7681 21.8444 23.8332 19.2517V11.1917C23.8239 9.76316 23.1362 8.42407 21.9807 7.58418ZM22.2082 19.2517C22.1436 20.9471 20.7187 22.2702 19.0232 22.2092H6.9765C5.28323 22.2641 3.86195 20.9444 3.7915 19.2517V11.2025C3.79728 10.2816 4.24452 9.41935 4.994 8.88418L11.0065 4.44251C12.1939 3.57539 13.8057 3.57539 14.9932 4.44251L21.0057 8.89501C21.7545 9.42089 22.2026 10.2766 22.2082 11.1917V19.2517ZM8.12484 17.0634H17.8748C18.3236 17.0634 18.6873 17.4271 18.6873 17.8759C18.6873 18.3246 18.3236 18.6884 17.8748 18.6884H8.12484C7.67611 18.6884 7.31234 18.3246 7.31234 17.8759C7.31234 17.4271 7.67611 17.0634 8.12484 17.0634Z" fill="#B2B2B2"/>
</svg>
