<svg width="26" height="26" viewBox="0 0 26 26" fill="none" xmlns="http://www.w3.org/2000/svg">
<path fill-rule="evenodd" clip-rule="evenodd" d="M15.6582 4.12013L21.0771 8.12276C22.1215 8.87857 22.7429 10.087 22.75 11.3762V18.622C22.6829 20.9454 20.753 22.779 18.4292 22.7272H7.58105C5.2533 22.7847 3.31711 20.9495 3.25 18.622V11.3762C3.25714 10.087 3.87854 8.87857 4.92289 8.12276L10.3418 4.12013C11.9241 2.95996 14.0759 2.95996 15.6582 4.12013ZM8.38158 18.3859H17.6184C18.0435 18.3859 18.3882 18.0413 18.3882 17.6162C18.3882 17.1911 18.0435 16.8464 17.6184 16.8464H8.38158C7.95647 16.8464 7.61184 17.1911 7.61184 17.6162C7.61184 18.0413 7.95647 18.3859 8.38158 18.3859Z" fill="black"/>
</svg>
