<svg width="26" height="27" viewBox="0 0 26 27" fill="none" xmlns="http://www.w3.org/2000/svg">
<path fill-rule="evenodd" clip-rule="evenodd" d="M19.0251 2.42285H6.97839C4.2472 2.51709 2.10142 4.79335 2.16839 7.52535V22.3995C2.14043 22.8993 2.42498 23.3641 2.88278 23.5665C3.34059 23.7689 3.8759 23.6666 4.22673 23.3095L6.79423 20.5687C7.2834 20.0556 7.95951 19.7625 8.66839 19.7562H18.9817C20.3132 19.7224 21.5758 19.1569 22.4876 18.1861C23.3995 17.2152 23.8847 15.9197 23.8351 14.5887V7.52535C23.902 4.79335 21.7563 2.51709 19.0251 2.42285ZM8.93922 8.07785H14.3559C14.8046 8.07785 15.1684 8.44162 15.1684 8.89035C15.1684 9.33908 14.8046 9.70285 14.3559 9.70285H8.93922C8.49049 9.70285 8.12672 9.33908 8.12672 8.89035C8.12672 8.44162 8.49049 8.07785 8.93922 8.07785ZM8.93922 14.0362H17.0642C17.513 14.0362 17.8767 13.6724 17.8767 13.2237C17.8767 12.775 17.513 12.4112 17.0642 12.4112H8.93922C8.49049 12.4112 8.12672 12.775 8.12672 13.2237C8.12672 13.6724 8.49049 14.0362 8.93922 14.0362Z" fill="black"/>
</svg>
