<svg width="26" height="27" viewBox="0 0 26 27" fill="none" xmlns="http://www.w3.org/2000/svg">
<path fill-rule="evenodd" clip-rule="evenodd" d="M6.97895 2.42285H19.0256C21.7698 2.51704 23.9208 4.81333 23.8356 7.55785V14.6212C23.8764 15.9467 23.3872 17.2337 22.4763 18.1975C21.5654 19.1613 20.308 19.7222 18.9823 19.7562H8.66895C7.95524 19.7709 7.27841 20.0761 6.79478 20.6012L4.22728 23.342C4.00976 23.5793 3.70411 23.7164 3.38228 23.7212C3.04989 23.7127 2.73468 23.5717 2.5068 23.3296C2.27892 23.0875 2.15728 22.7643 2.16895 22.432V7.55785C2.08376 4.81333 4.23473 2.51704 6.97895 2.42285ZM19.0256 18.1312C20.8726 18.0377 22.2965 16.4686 22.2106 14.6212V7.55785C22.2965 5.71047 20.8726 4.14131 19.0256 4.04785H6.97895C5.13193 4.14131 3.70806 5.71047 3.79395 7.55785V21.4245L5.55978 19.4962C6.36732 18.6372 7.49002 18.1443 8.66895 18.1312H19.0256Z" fill="#B2B2B2"/>
<path d="M8.93978 9.73535H14.3564C14.8052 9.73535 15.1689 9.37158 15.1689 8.92285C15.1689 8.47412 14.8052 8.11035 14.3564 8.11035H8.93978C8.49105 8.11035 8.12728 8.47412 8.12728 8.92285C8.12728 9.37158 8.49105 9.73535 8.93978 9.73535Z" fill="#B2B2B2"/>
<path d="M17.0648 12.4437H8.93978C8.49105 12.4437 8.12728 12.8075 8.12728 13.2562C8.12728 13.7049 8.49105 14.0687 8.93978 14.0687H17.0648C17.5135 14.0687 17.8773 13.7049 17.8773 13.2562C17.8773 12.8075 17.5135 12.4437 17.0648 12.4437Z" fill="#B2B2B2"/>
</svg>
