<svg width="26" height="25" viewBox="0 0 26 25" fill="none" xmlns="http://www.w3.org/2000/svg">
<path fill-rule="evenodd" clip-rule="evenodd" d="M15.3854 14.5831C17.0205 14.6163 18.4059 15.7969 18.6979 17.4061L18.9375 18.5936C19.1741 19.6185 18.9415 20.6956 18.303 21.5315C17.6645 22.3674 16.6865 22.8752 15.6354 22.9165H5.95833C4.90579 22.8789 3.92535 22.3721 3.28603 21.5351C2.6467 20.6981 2.41564 19.6189 2.65625 18.5936L2.89583 17.4061C3.18337 15.7985 4.56523 14.6172 6.19791 14.5831H15.3854ZM15.6354 21.354C16.1618 21.3493 16.657 21.1036 16.9792 20.6873C17.3921 20.1889 17.55 19.5268 17.4062 18.8956L17.1667 17.7081C17.0196 16.8286 16.2764 16.1723 15.3854 16.1352H6.19791C5.30928 16.1732 4.56957 16.8302 4.42708 17.7081L4.23958 18.9061C4.09928 19.5339 4.25691 20.1914 4.66666 20.6873C4.97744 21.0896 5.45037 21.3337 5.95833 21.354H15.6354Z" fill="#B2B2B2"/>
<path fill-rule="evenodd" clip-rule="evenodd" d="M11.3125 12.4998H10.2708C7.96964 12.4998 6.10416 10.6343 6.10416 8.33315V5.58315C6.10416 3.65015 7.67116 2.08315 9.60416 2.08315H11.9583C12.891 2.07479 13.7883 2.44018 14.4498 3.09777C15.1113 3.75536 15.482 4.65041 15.4792 5.58315V8.33315C15.4792 10.6343 13.6137 12.4998 11.3125 12.4998ZM9.60416 3.64565C8.53411 3.64565 7.66666 4.5131 7.66666 5.58315V8.33315C7.67225 9.76097 8.82227 10.9203 10.25 10.9373H11.2917C11.9823 10.9373 12.6447 10.6629 13.1331 10.1746C13.6215 9.6862 13.8958 9.02382 13.8958 8.33315V5.58315C13.8958 4.5131 13.0284 3.64565 11.9583 3.64565H9.60416Z" fill="#B2B2B2"/>
<path d="M22.7708 6.51023H21.3333V5.08315C21.3333 4.65168 20.9835 4.3019 20.5521 4.3019C20.1206 4.3019 19.7708 4.65168 19.7708 5.08315V6.51023H18.3542C17.9227 6.51023 17.5729 6.86001 17.5729 7.29148C17.5729 7.72295 17.9227 8.07273 18.3542 8.07273H19.7812V9.49981C19.7812 9.93129 20.131 10.2811 20.5625 10.2811C20.994 10.2811 21.3437 9.93129 21.3437 9.49981V8.07273H22.7708C23.2023 8.07273 23.5521 7.72295 23.5521 7.29148C23.5521 6.86001 23.2023 6.51023 22.7708 6.51023Z" fill="#B2B2B2"/>
</svg>
