<svg width="26" height="26" viewBox="0 0 26 26" fill="none" xmlns="http://www.w3.org/2000/svg">
<path fill-rule="evenodd" clip-rule="evenodd" d="M21.2115 18.1029L21.4715 19.3379C21.7179 20.4056 21.4746 21.5276 20.8081 22.3973C20.1416 23.2671 19.1215 23.7939 18.0265 23.8337H7.97315C6.87809 23.7939 5.85802 23.2671 5.19153 22.3973C4.52504 21.5276 4.28176 20.4056 4.52815 19.3379L4.78815 18.1029C5.08719 16.431 6.52432 15.2024 8.22232 15.167H17.7773C19.4753 15.2024 20.9124 16.431 21.2115 18.1029ZM18.0265 22.1979C18.5766 22.1915 19.0943 21.9366 19.4348 21.5045V21.5154C19.8526 20.9912 20.0154 20.3083 19.879 19.652L19.619 18.417C19.4747 17.5018 18.7032 16.8165 17.7773 16.7812H8.22232C7.29647 16.8165 6.52491 17.5018 6.38065 18.417L6.12065 19.652C5.98757 20.3048 6.15019 20.983 6.56482 21.5045C6.90535 21.9366 7.42305 22.1915 7.97315 22.1979H18.0265Z" fill="#B2B2B2"/>
<path fill-rule="evenodd" clip-rule="evenodd" d="M13.5415 13.0003H12.4581C10.0649 13.0003 8.1248 11.0602 8.1248 8.66701V5.80701C8.12191 4.84074 8.50448 3.91321 9.18774 3.22995C9.871 2.54669 10.7985 2.16412 11.7648 2.16701H14.2348C15.2011 2.16412 16.1286 2.54669 16.8119 3.22995C17.4951 3.91321 17.8777 4.84074 17.8748 5.80701V8.66701C17.8748 11.0602 15.9347 13.0003 13.5415 13.0003ZM11.7648 3.79201C10.6519 3.79201 9.7498 4.69415 9.7498 5.80701V8.66701C9.7498 10.1628 10.9624 11.3753 12.4581 11.3753H13.5415C15.0372 11.3753 16.2498 10.1628 16.2498 8.66701V5.80701C16.2498 5.2726 16.0375 4.76007 15.6596 4.38219C15.2817 4.0043 14.7692 3.79201 14.2348 3.79201H11.7648Z" fill="#B2B2B2"/>
</svg>
