<svg width="26" height="26" viewBox="0 0 26 26" fill="none" xmlns="http://www.w3.org/2000/svg">
<path d="M18.0265 23.8337H7.97315C6.87809 23.7939 5.85802 23.2671 5.19153 22.3973C4.52504 21.5275 4.28176 20.4056 4.52815 19.3378L4.78815 18.1028C5.08719 16.431 6.52432 15.2024 8.22232 15.167H17.7773C19.4753 15.2024 20.9124 16.431 21.2115 18.1028L21.4715 19.3378C21.7179 20.4056 21.4746 21.5275 20.8081 22.3973C20.1416 23.2671 19.1215 23.7939 18.0265 23.8337Z" fill="black"/>
<path d="M13.5415 13.0003H12.4582C10.0649 13.0003 8.12482 11.0602 8.12482 8.66701V5.80701C8.12193 4.84074 8.5045 3.91321 9.18776 3.22995C9.87102 2.54669 10.7985 2.16412 11.7648 2.16701H14.2348C15.2011 2.16412 16.1286 2.54669 16.8119 3.22995C17.4951 3.91321 17.8777 4.84074 17.8748 5.80701V8.66701C17.8748 9.81628 17.4183 10.9185 16.6056 11.7311C15.793 12.5438 14.6908 13.0003 13.5415 13.0003Z" fill="black"/>
</svg>
