<svg width="86" height="86" viewBox="0 0 86 86" fill="none" xmlns="http://www.w3.org/2000/svg">
<path fill-rule="evenodd" clip-rule="evenodd" d="M23.0848 7.16602H62.9315C72.0085 7.47755 79.1233 15.073 78.8415 24.151V47.5144C78.9764 51.8986 77.3583 56.1559 74.3454 59.3437C71.3324 62.5315 67.1731 64.387 62.7882 64.4994H28.6748C26.3141 64.5482 24.0753 65.5575 22.4757 67.2944L13.9832 76.3602C13.2637 77.1449 12.2527 77.5985 11.1882 77.6144C10.0887 77.5863 9.0461 77.12 8.29234 76.3191C7.53858 75.5183 7.13623 74.4493 7.17484 73.3502V24.151C6.89307 15.073 14.0078 7.47755 23.0848 7.16602ZM62.9315 59.1244C69.0409 58.8152 73.7506 53.6249 73.4665 47.5144V24.151C73.7506 18.0404 69.0409 12.8501 62.9315 12.541H23.0848C16.9755 12.8501 12.2658 18.0404 12.5498 24.151V70.0177L18.3907 63.6394C21.0618 60.798 24.7753 59.1676 28.6748 59.1244H62.9315Z" fill="black"/>
<path d="M29.5707 31.3535H47.4873C48.9716 31.3535 50.1748 30.1503 50.1748 28.666C50.1748 27.1818 48.9716 25.9785 47.4873 25.9785H29.5707C28.0864 25.9785 26.8832 27.1818 26.8832 28.666C26.8832 30.1503 28.0864 31.3535 29.5707 31.3535Z" fill="black"/>
<path d="M56.4457 40.3119H29.5707C28.0864 40.3119 26.8832 41.5151 26.8832 42.9994C26.8832 44.4836 28.0864 45.6869 29.5707 45.6869H56.4457C57.9299 45.6869 59.1332 44.4836 59.1332 42.9994C59.1332 41.5151 57.9299 40.3119 56.4457 40.3119Z" fill="black"/>
</svg>
