<svg width="83" height="82" viewBox="0 0 83 82" fill="none" xmlns="http://www.w3.org/2000/svg">
<path d="M31.4062 60.9258H51.7148" stroke="black" stroke-width="6.76953" stroke-linecap="round" stroke-linejoin="round"/>
<path d="M34.791 74.4648H48.3301" stroke="black" stroke-width="6.76953" stroke-linecap="round" stroke-linejoin="round"/>
<path d="M52.0195 47.3867C52.6287 44.0696 54.2196 41.4972 56.792 38.9248C58.4264 37.4203 59.7237 35.5868 60.5988 33.545C61.4739 31.5032 61.9068 29.2992 61.8691 27.0781C61.8691 21.692 59.7295 16.5264 55.9209 12.7178C52.1123 8.90918 46.9467 6.76953 41.5605 6.76953C36.1744 6.76953 31.0088 8.90918 27.2002 12.7178C23.3916 16.5264 21.252 21.692 21.252 27.0781C21.252 30.4629 22.0304 34.6262 26.3291 38.9248C28.7799 41.1657 30.4518 44.1301 31.1016 47.3867" stroke="black" stroke-width="6.76953" stroke-linecap="round" stroke-linejoin="round"/>
</svg>
