<svg width="67" height="67" viewBox="0 0 67 67" fill="none" xmlns="http://www.w3.org/2000/svg">
<path fill-rule="evenodd" clip-rule="evenodd" d="M54.193 20.273C58.0452 24.1252 58.1291 30.3446 54.3823 34.2993L55.1812 35.1809C55.8187 35.799 55.9754 36.7619 55.5669 37.5502L47.7152 53.1708C47.4229 53.7309 46.899 54.1339 46.2827 54.2728L17.3831 60.1134H16.9698C16.3504 60.1077 15.7653 59.8279 15.3718 59.3494C14.9784 58.8709 14.817 58.2428 14.9312 57.6339L20.7166 28.3762C20.8367 27.7445 21.2441 27.2048 21.8186 26.916L37.1913 19.1195C37.988 18.7065 38.9611 18.8631 39.5881 19.5052L40.1666 20.0837C44.1214 16.3368 50.3408 16.4208 54.193 20.273ZM50.7809 23.5748C48.731 21.5248 45.4984 21.26 43.142 22.9489L51.4069 31.2138C53.0958 28.8574 52.8309 25.6248 50.7809 23.5748ZM44.4644 50.4985L23.3063 54.6585L30.7171 47.2477C31.4169 47.5339 32.165 47.6835 32.9211 47.6885C34.4777 47.6982 35.9707 47.0711 37.0535 45.9528C38.9442 44.0774 39.3349 41.164 38.0052 38.8567C36.6755 36.5494 33.9588 35.4268 31.3882 36.1224C28.8176 36.818 27.0377 39.1574 27.053 41.8204C27.0634 42.7295 27.2801 43.6244 27.6867 44.4376L20.3034 51.8209L24.5735 30.3046L37.7147 23.6101L51.2141 37.1094L44.4644 50.4985ZM31.1855 41.9581C31.1768 42.4132 31.3562 42.8518 31.6814 43.1703V43.0326C31.9851 43.4152 32.4341 43.6547 32.9211 43.6938C33.3796 43.692 33.8175 43.5029 34.1333 43.1703C34.4633 42.8534 34.6498 42.4157 34.6498 41.9581C34.6498 41.5006 34.4633 41.0628 34.1333 40.746C33.8215 40.4078 33.381 40.2176 32.9211 40.2225C32.4543 40.2232 32.0074 40.4119 31.6814 40.746C31.3534 41.0626 31.1735 41.5024 31.1855 41.9581Z" fill="black"/>
<path d="M17.4106 19.0919C17.4106 20.2331 18.3357 21.1582 19.4769 21.1582C20.618 21.1582 21.5431 20.2331 21.5431 19.0919V15.6482H25.0419C26.183 15.6482 27.1081 14.7232 27.1081 13.582C27.1081 12.4409 26.183 11.5158 25.0419 11.5158H21.5982V8.07208C21.5982 7.33389 21.2044 6.65178 20.5651 6.28268C19.9258 5.91359 19.1381 5.91359 18.4989 6.28268C17.8596 6.65178 17.4657 7.33389 17.4657 8.07208V11.5158H14.022C12.8809 11.5158 11.9558 12.4409 11.9558 13.582C11.9558 14.7232 12.8809 15.6482 14.022 15.6482H17.4106V19.0919Z" fill="black"/>
</svg>
