<svg width="512" height="512" viewBox="0 0 512 512" fill="none" xmlns="http://www.w3.org/2000/svg">
<path fill-rule="evenodd" clip-rule="evenodd" d="M447.9 48C452.6 48 454.1 48.5 457 50.8C458.9 52.4 462.1 56.5 464.1 60.1C466.1 63.6 469.4 70.5 471.3 75.5C473.3 80.5 476.1 88.8 477.5 94C478.9 99.2 480.7 108.6 481.5 114.8C482.3 120.9 483 129.9 483 134.7C483 139.6 482.5 147.6 482 152.5C481.4 157.4 480.2 164.9 479.4 169C478.5 173.1 476.5 180.8 474.8 186C473.1 191.2 470.1 199.3 468 204C465.9 208.7 461.7 217 458.5 222.5C455.3 228 450 236.3 446.6 241C443.3 245.7 436.5 254.2 431.5 259.9C426.6 265.7 417.6 275 411.5 280.7C405.5 286.3 396.2 294.3 391 298.5C385.8 302.7 376.6 309.6 370.5 313.9C364.5 318.2 353.9 325.2 347 329.5C340.1 333.8 333.5 337.9 332.3 338.6C331 339.4 330.1 340.4 330.3 340.9C330.4 341.3 352.3 366.2 379 396.1C405.7 426 428.8 452 430.3 454C431.8 455.9 433.3 458.9 433.6 460.5C434 462.1 433.9 465.3 433.5 467.5C433 470.4 431.6 472.7 428.4 475.7C424.7 479.3 423.3 480 420 480C417.8 480 415.2 479.6 414.3 479C413.3 478.5 403.7 474.9 393 471.1C382.3 467.3 362.9 460.3 350 455.5C337.1 450.7 314.4 442.2 299.5 436.5C284.7 430.8 262.4 422.1 250 417.2C237.6 412.2 220.5 405.3 212 401.7C203.5 398.1 189.5 392 181 388C172.5 384.1 161 377.9 155.5 374.3C149.3 370.2 141.7 363.9 135.4 357.6C129.8 352 122.9 343.9 120 339.5C117 335.1 112.5 327 109.9 321.5C107.3 316 103.9 307.4 102.5 302.5C101.1 297.6 99.2 289.9 98.4 285.5C97.3 279.7 96.7 268.5 95.8 212.5L92.2 208.6C90.1 206.5 86.1 203.2 83.3 201.4C80.4 199.5 74.7 196.9 70.8 195.5C66.4 194.1 59.9 192.8 54.5 192.5C49.6 192.1 44.2 191.4 42.5 191C40.9 190.5 38 188.5 36.3 186.6C34.4 184.5 32.7 181.4 32.4 179.3C32 177.2 32.3 173.2 32.9 170.5C33.5 167.8 35.6 161.7 37.6 157C39.5 152.3 43.9 144.2 47.4 139C51 133.7 57.1 126.3 61.4 122.2C65.6 118.3 71.6 113.3 74.8 111.3C77.9 109.3 83.7 106.2 87.5 104.4C91.4 102.6 98.6 100.1 103.5 98.9C111 97 115.2 96.6 128 96.6C141.9 96.6 144.4 96.9 152.3 99.3C157.1 100.8 163.6 103.2 166.8 104.6C169.9 106 176.3 109.7 181 112.7C185.7 115.8 193.7 122.4 198.8 127.4C204 132.4 211.4 140.8 215.4 146C219.3 151.2 223.4 156.8 226.3 161.5L234.4 155.5C238.8 152.1 246.8 147.4 252 144.8C257.2 142.3 265.1 139.1 269.5 137.7C273.9 136.3 280.2 134.4 283.5 133.6C286.8 132.8 294.5 131.4 300.5 130.5C306.6 129.6 321.2 128.5 333 128C345.2 127.5 357.6 126.5 361.8 125.6C365.7 124.7 371.8 123.1 375.3 121.9C378.7 120.8 384.9 118.1 389 116C393.1 113.8 399.6 109.5 403.5 106.2C407.4 103 412.7 97.7 415.3 94.4C418 91.2 421.9 85.3 424.1 81.5C426.3 77.7 429.4 70.1 431 64.8C433.7 56.1 434.5 54.6 438.2 51.5C441.9 48.4 443.1 48 447.9 48ZM434.9 120.4C431.4 124.2 424.7 130.2 420 133.7C415.3 137.2 407.2 142.2 402 144.9C396.8 147.6 388.9 151 384.5 152.4C380.1 153.9 372 156 366.5 157.1C359.6 158.5 349.5 159.4 334 160C320.1 160.6 307.1 161.7 300 162.9C293.7 164 285.4 165.9 281.5 167C277.6 168.2 270.9 170.9 266.5 173.1C262.1 175.2 255.8 179.1 252.5 181.7C249.3 184.4 245.3 188.3 243.7 190.5C242.2 192.7 239.4 196.7 237.7 199.5C235.3 203.2 233.3 204.9 230 206.3C227 207.567 224.333 208.033 222 207.7C220.1 207.3 216.9 206 215 204.7C212.4 203 210.1 199.7 206 191.5C202.9 185.4 197.5 176.2 194 171C190.4 165.8 183.3 157.2 178 151.9C171.6 145.5 165.9 140.8 160.5 137.6C156.1 135 149.4 131.9 145.5 130.7C139.8 128.9 136.3 128.5 126.5 128.6C116.2 128.6 113.4 129 106.8 131.3C102.5 132.8 96.5 135.6 93.5 137.5C90.5 139.4 86.1 142.7 83.9 144.7C81.6 146.8 77.7 151.3 75.1 154.8C72.3 158.6 70.9 161.4 71.5 161.9C72.1 162.3 75.9 163.7 80 164.9C84.1 166.2 89.8 168.4 92.5 169.8C95.3 171.1 100.1 174 103.3 176.1C106.4 178.3 111.5 182.5 114.5 185.5C117.5 188.5 121.7 193.5 123.8 196.7L127.5 202.3C128.6 267.3 129.1 277.1 130.4 282.5C131.3 286.4 133 292.4 134.1 296C135.3 299.6 137.9 305.6 139.8 309.5C141.7 313.4 145 319 147 322C149.1 325 152.9 329.9 155.6 332.9C158.3 335.9 164.1 341 168.5 344.3C173.1 347.8 182.4 353.2 190.5 357.1C198.2 360.8 211.9 366.9 221 370.8C230.1 374.7 249.2 382.6 263.5 388.3C277.8 394.1 305.7 404.9 325.5 412.4C345.3 419.9 361.6 425.8 361.8 425.5C361.9 425.2 347 408.2 328.8 387.7C310.5 367.2 294 348.8 292.3 346.7C290.5 344.7 288.7 341.5 288.4 339.7C288.1 338 288.1 334.8 288.4 332.7C288.7 330.7 290.2 327.6 291.8 325.9C293.3 324.2 298.3 320.7 303 318.2C307.7 315.7 316.7 310.5 323 306.7C329.3 302.9 340.1 295.9 347 291.2C353.9 286.6 364.9 278.4 371.5 273.1C378.1 267.8 388.7 258.3 395.1 252C401.4 245.7 409.5 236.9 413 232.5C416.5 228.1 422 220.4 425.3 215.5C428.5 210.5 432.9 203.1 435 199C437.1 194.9 440.3 187.2 442.3 182C444.2 176.8 446.9 167.8 448.1 162C450 153.6 450.4 148.4 450.5 136C450.5 127.5 450 117.2 449.3 113.2C448.7 109.3 447.7 106 447.2 106C446.7 106 445.1 107.7 443.7 109.7C442.4 111.8 438.4 116.6 434.9 120.4Z" fill="#3634A3"/>
</svg>
