<svg width="23" height="23" viewBox="0 0 23 23" fill="none" xmlns="http://www.w3.org/2000/svg">
<path d="M13.61 22.8998C12.5715 22.8998 12.1133 22.126 11.7977 21.057L9.66986 13.7877L2.3496 11.6395C1.30094 11.334 0.557718 10.8759 0.557718 9.84757C0.557718 8.97199 1.22967 8.38148 2.14598 8.02514L19.9936 1.20376C20.411 1.04086 20.7979 0.949233 21.144 0.949233C21.9687 0.949233 22.5083 1.48883 22.5083 2.31351C22.5083 2.64949 22.4167 3.03637 22.2538 3.46398L15.4528 21.2606C15.0761 22.2482 14.4754 22.8998 13.61 22.8998ZM10.464 11.4155L15.2695 6.6405C15.9822 5.938 16.9697 5.11333 17.8046 4.44137C16.6236 4.98097 15.6767 5.41876 14.7095 5.80565L5.17996 9.50141C5.07815 9.54213 5.03743 9.59304 5.03743 9.65412C5.03743 9.71521 5.07815 9.76612 5.19015 9.79666L10.464 11.4155ZM13.8136 18.4303C13.8747 18.4303 13.9256 18.3794 13.9561 18.2776L17.6621 8.748C18.0388 7.78079 18.4867 6.82376 19.0162 5.64275C18.3747 6.45724 17.489 7.5059 16.817 8.19822L12.0421 12.9935L13.6711 18.2572C13.7016 18.3794 13.7423 18.4303 13.8136 18.4303Z" fill="white"/>
</svg>