<svg width="25" height="25" viewBox="0 0 25 25" fill="none" xmlns="http://www.w3.org/2000/svg">
<path fill-rule="evenodd" clip-rule="evenodd" d="M8.05834 8.18485C7.01861 8.19357 5.97864 8.19167 4.93882 8.18588C4.64502 8.18414 4.49947 8.28557 4.5 8.61995C4.50651 12.3486 4.50398 16.0773 4.50475 19.8058C4.50483 19.9478 4.48308 20.1038 4.65789 20.1684C4.66455 20.1912 8.33017 20.1898 8.34004 20.1672C8.533 20.092 8.4941 19.9171 8.49418 19.7659C8.49586 16.0636 8.49288 12.3611 8.5 8.65878C8.50053 8.32281 8.38553 8.18208 8.05834 8.18485Z" fill="white"/>
<path fill-rule="evenodd" clip-rule="evenodd" d="M6.49997 3.18481C5.39547 3.18481 4.5 4.08028 4.5 5.18478C4.5 6.28942 5.39547 7.18481 6.49997 7.18481C7.60453 7.18481 8.5 6.28942 8.5 5.18478C8.5 4.08028 7.60453 3.18481 6.49997 3.18481Z" fill="white"/>
<path fill-rule="evenodd" clip-rule="evenodd" d="M21.4481 19.61C21.4505 17.6988 21.4602 15.7876 21.4447 13.8765C21.4379 13.0394 21.4078 12.2001 21.2319 11.3762C20.9435 10.0255 20.2945 8.97087 19.0054 8.4791C18.1453 8.15105 17.2461 8.12993 16.348 8.2571C15.5935 8.36393 14.8985 8.65131 14.2653 9.18546C14.2653 8.99113 14.2647 8.86224 14.2655 8.73352C14.2674 8.44443 14.1329 8.31375 13.8557 8.31508C12.8708 8.31967 11.8859 8.3185 10.9008 8.31585C10.6297 8.31508 10.4996 8.42705 10.5 8.7318C10.5052 12.3992 10.5033 16.0666 10.5034 19.734C10.5034 19.8747 10.4849 20.0243 10.6477 20.0935C10.6649 20.1162 14.2208 20.1247 14.2207 20.1016C14.4539 19.9968 14.3822 19.7757 14.3826 19.5957C14.3858 17.7869 14.375 15.978 14.3847 14.1692C14.3877 13.6036 14.4086 13.0322 14.6529 12.5055C14.9424 11.8814 15.5415 11.611 16.3854 11.7217C16.9659 11.7977 17.3365 12.1908 17.4519 12.8757C17.4946 13.1287 17.5265 13.3874 17.528 13.6437C17.5393 15.6334 17.5409 17.623 17.5491 19.6127C17.55 19.7964 17.4948 20.0134 17.7315 20.1057C17.7234 20.1318 21.3039 20.116 21.3048 20.0907C21.4975 19.9784 21.4479 19.7825 21.4481 19.61Z" fill="white"/>
</svg>
