<svg width="108" height="34" viewBox="0 0 108 34" fill="none" xmlns="http://www.w3.org/2000/svg">
<path d="M27.3058 27.3061C24.0223 27.3061 22.158 25.2052 22.158 21.7131V12.0853H26.2206V20.8644C26.2206 22.8122 27.1388 23.9391 28.9614 23.9391C30.784 23.9391 31.9388 22.6035 31.9388 20.6557V12.0853H36.0014V27H31.9388V24.5374H31.8553C31.0901 26.2487 29.5597 27.3061 27.3058 27.3061ZM44.5718 27.3061C41.2605 27.3061 39.7023 26.0261 39.7023 22.8261V15.1461H37.6292V12.0853H39.7023V8.44007H43.8066V12.0853H46.5335V15.1461H43.8066V22.3809C43.8066 23.7722 44.4327 24.2452 45.657 24.2452C46.0188 24.2452 46.2831 24.2035 46.5335 24.1757V27.153C46.0744 27.2226 45.4205 27.3061 44.5718 27.3061ZM48.7735 31.8695V12.0853H52.8361V14.687H52.9335C53.7405 12.8783 55.3683 11.7792 57.4831 11.7792C61.2674 11.7792 63.5769 14.6731 63.5769 19.5287V19.5426C63.5769 24.3844 61.2674 27.3061 57.5387 27.3061C55.41 27.3061 53.7266 26.2209 52.9196 24.4539H52.8361V31.8695H48.7735ZM56.1474 23.9391C58.1648 23.9391 59.4448 22.2557 59.4448 19.5426V19.5287C59.4448 16.8018 58.1648 15.1461 56.1474 15.1461C54.1718 15.1461 52.8222 16.8435 52.8222 19.5426V19.5566C52.8222 22.2418 54.1718 23.9391 56.1474 23.9391ZM72.5369 27.3061C68.0013 27.3061 65.1491 24.3983 65.1491 19.5426V19.5148C65.1491 14.7148 68.0708 11.7792 72.523 11.7792C76.9891 11.7792 79.9247 14.687 79.9247 19.5148V19.5426C79.9247 24.4122 77.0447 27.3061 72.5369 27.3061ZM72.5508 24.12C74.5265 24.12 75.7926 22.4505 75.7926 19.5426V19.5148C75.7926 16.6348 74.4986 14.9653 72.523 14.9653C70.5613 14.9653 69.2813 16.6348 69.2813 19.5148V19.5426C69.2813 22.4644 70.5474 24.12 72.5508 24.12ZM88.1612 27.3061C84.029 27.3061 81.7334 25.4 81.4134 22.5757L81.3995 22.4505H85.3647L85.3925 22.5757C85.6569 23.7444 86.5334 24.4261 88.1612 24.4261C89.6916 24.4261 90.6238 23.8278 90.6238 22.8678V22.8539C90.6238 22.0609 90.1229 21.6018 88.6621 21.2818L86.1299 20.7531C83.236 20.1409 81.7751 18.6939 81.7751 16.4679V16.454C81.7751 13.6157 84.2238 11.7792 88.0221 11.7792C91.9873 11.7792 94.1994 13.8801 94.2968 16.4957V16.6348H90.5542L90.5403 16.5235C90.4012 15.4522 89.5247 14.6453 88.0221 14.6453C86.6169 14.6453 85.7403 15.2713 85.7403 16.2313V16.2453C85.7403 17.0105 86.2551 17.5113 87.7577 17.8313L90.2899 18.3739C93.4064 19.0279 94.6864 20.2522 94.6864 22.4505V22.4644C94.6864 25.3861 92.0012 27.3061 88.1612 27.3061ZM102.617 27.3061C99.3055 27.3061 97.7473 26.0261 97.7473 22.8261V15.1461H95.6742V12.0853H97.7473V8.44007H101.852V12.0853H104.579V15.1461H101.852V22.3809C101.852 23.7722 102.478 24.2452 103.702 24.2452C104.064 24.2452 104.328 24.2035 104.579 24.1757V27.153C104.119 27.2226 103.465 27.3061 102.617 27.3061Z" fill="black"/>
<circle cx="9.31181" cy="17.6883" r="9.31181" fill="black"/>
</svg>
