<svg width="87" height="43" viewBox="0 0 87 43" fill="none" xmlns="http://www.w3.org/2000/svg">
<g clip-path="url(#clip0_1361_6269)">
<mask id="mask0_1361_6269" style="mask-type:luminance" maskUnits="userSpaceOnUse" x="0" y="0" width="87" height="43">
<path d="M87 0H0V43H87V0Z" fill="white"/>
</mask>
<g mask="url(#mask0_1361_6269)">
<path d="M75 0.5H12C5.64873 0.5 0.5 5.64873 0.5 12V31C0.5 37.3513 5.64873 42.5 12 42.5H75C81.3513 42.5 86.5 37.3513 86.5 31V12C86.5 5.64873 81.3513 0.5 75 0.5Z" stroke="#AFAFAF"/>
<path d="M14.2998 27.1846C16.887 27.1846 18.9844 25.0872 18.9844 22.5C18.9844 19.9128 16.887 17.8154 14.2998 17.8154C11.7126 17.8154 9.61523 19.9128 9.61523 22.5C9.61523 25.0872 11.7126 27.1846 14.2998 27.1846Z" fill="white"/>
<path d="M24.997 27.1728C23.1438 27.1728 22.0916 25.987 22.0916 24.0161V18.5821H24.3845V23.5371C24.3845 24.6364 24.9028 25.2725 25.9315 25.2725C26.9601 25.2725 27.6119 24.5186 27.6119 23.4193V18.5821H29.9048V27H27.6119V25.6101H27.5648C27.1329 26.576 26.2691 27.1728 24.997 27.1728ZM36.3501 27.1728C34.4813 27.1728 33.6018 26.4503 33.6018 24.6443V20.3097H32.4318V18.5821H33.6018V16.5248H35.9183V18.5821H37.4573V20.3097H35.9183V24.393C35.9183 25.1782 36.2716 25.4452 36.9626 25.4452C37.1668 25.4452 37.316 25.4216 37.4573 25.4059V27.0864C37.1982 27.1256 36.8291 27.1728 36.3501 27.1728ZM40.3298 29.7484V18.5821H42.6227V20.0505H42.6777C43.1331 19.0297 44.0519 18.4094 45.2454 18.4094C47.3813 18.4094 48.6848 20.0427 48.6848 22.7832V22.7911C48.6848 25.5237 47.3813 27.1728 45.2769 27.1728C44.0754 27.1728 43.1253 26.5603 42.6698 25.563H42.6227V29.7484H40.3298ZM44.4916 25.2725C45.6302 25.2725 46.3527 24.3223 46.3527 22.7911V22.7832C46.3527 21.2441 45.6302 20.3097 44.4916 20.3097C43.3766 20.3097 42.6149 21.2677 42.6149 22.7911V22.7989C42.6149 24.3144 43.3766 25.2725 44.4916 25.2725ZM55.35 27.1728C52.7901 27.1728 51.1804 25.5316 51.1804 22.7911V22.7754C51.1804 20.0662 52.8294 18.4094 55.3422 18.4094C57.8628 18.4094 59.5197 20.0505 59.5197 22.7754V22.7911C59.5197 25.5394 57.8942 27.1728 55.35 27.1728ZM55.3578 25.3745C56.4728 25.3745 57.1875 24.4322 57.1875 22.7911V22.7754C57.1875 21.1499 56.4572 20.2076 55.3422 20.2076C54.235 20.2076 53.5126 21.1499 53.5126 22.7754V22.7911C53.5126 24.4401 54.227 25.3745 55.3578 25.3745ZM65.7766 27.1728C63.4444 27.1728 62.1487 26.097 61.9681 24.5029L61.9603 24.4322H64.1982L64.2139 24.5029C64.3631 25.1625 64.8578 25.5473 65.7766 25.5473C66.6404 25.5473 67.1665 25.2096 67.1665 24.6678V24.66C67.1665 24.2124 66.8837 23.9532 66.0592 23.7726L64.6301 23.4742C62.9968 23.1287 62.1722 22.3121 62.1722 21.0557V21.0478C62.1722 19.4459 63.5543 18.4094 65.6981 18.4094C67.936 18.4094 69.1846 19.5951 69.2395 21.0714V21.1499H67.1272L67.1194 21.0871C67.0408 20.4824 66.5461 20.027 65.6981 20.027C64.905 20.027 64.4102 20.3803 64.4102 20.9222V20.93C64.4102 21.3619 64.7008 21.6446 65.5489 21.8252L66.978 22.1315C68.737 22.5005 69.4594 23.1915 69.4594 24.4322V24.4401C69.4594 26.0891 67.9439 27.1728 65.7766 27.1728ZM75.5435 27.1728C73.6746 27.1728 72.7951 26.4503 72.7951 24.6443V20.3097H71.6251V18.5821H72.7951V16.5248H75.1116V18.5821H76.6507V20.3097H75.1116V24.393C75.1116 25.1782 75.465 25.4452 76.156 25.4452C76.3602 25.4452 76.5094 25.4216 76.6507 25.4059V27.0864C76.3916 27.1256 76.0225 27.1728 75.5435 27.1728Z" fill="white"/>
</g>
</g>
<defs>
<clipPath id="clip0_1361_6269">
<rect width="87" height="43" fill="white"/>
</clipPath>
</defs>
</svg>
