<svg width="78" height="102" viewBox="0 0 78 102" fill="none" xmlns="http://www.w3.org/2000/svg">
<rect x="1.26419" y="1.26419" width="75.0087" height="98.607" rx="17.9178" stroke="#D6D6D6" stroke-width="2.52838"/>
<path d="M37.2842 46.6739C37.2842 52.3027 32.7212 56.8658 27.0923 56.8658C21.4635 56.8658 16.9004 52.3027 16.9004 46.6739C16.9004 41.045 21.4635 36.4819 27.0923 36.4819C32.7212 36.4819 37.2842 41.045 37.2842 46.6739Z" fill="black"/>
<path d="M41.2597 64.6533V40.3596H46.2483V43.5543H46.3679C47.3588 41.3334 49.3576 39.9838 51.9544 39.9838C56.6013 39.9838 59.4373 43.5373 59.4373 49.4996V49.5167C59.4373 55.462 56.6013 59.0497 52.0227 59.0497C49.4089 59.0497 47.3417 57.7171 46.3508 55.5474H46.2483V64.6533H41.2597ZM50.3143 54.9153C52.7915 54.9153 54.3633 52.8481 54.3633 49.5167V49.4996C54.3633 46.1511 52.7915 44.1181 50.3143 44.1181C47.8884 44.1181 46.2312 46.2024 46.2312 49.5167V49.5338C46.2312 52.831 47.8884 54.9153 50.3143 54.9153Z" fill="black"/>
</svg>
