<svg width="78" height="102" viewBox="0 0 78 102" fill="none" xmlns="http://www.w3.org/2000/svg">
<rect x="1.26419" y="1.91068" width="75.0087" height="98.607" rx="17.9178" stroke="#D6D6D6" stroke-width="2.52838"/>
<path d="M37.7183 36.8203C37.7183 42.4492 33.1552 47.0123 27.5264 47.0123C21.8976 47.0123 17.3345 42.4492 17.3345 36.8203C17.3345 31.1915 21.8976 26.6284 27.5264 26.6284C33.1552 26.6284 37.7183 31.1915 37.7183 36.8203Z" fill="black"/>
<path d="M41.6938 54.7998V30.5061H46.6824V33.7008H46.802C47.7928 31.4799 49.7917 30.1302 52.3885 30.1302C57.0354 30.1302 59.8713 33.6837 59.8713 39.6461V39.6632C59.8713 45.6085 57.0354 49.1962 52.4568 49.1962C49.8429 49.1962 47.7758 47.8636 46.7849 45.6939H46.6824V54.7998H41.6938ZM50.7484 45.0618C53.2256 45.0618 54.7973 42.9946 54.7973 39.6632V39.6461C54.7973 36.2976 53.2256 34.2646 50.7484 34.2646C48.3225 34.2646 46.6653 36.3489 46.6653 39.6632V39.6803C46.6653 42.9775 48.3225 45.0618 50.7484 45.0618Z" fill="black"/>
<path d="M19.0169 71.7998V59.6663H24.2975C26.5846 59.6663 28.0224 60.8435 28.0224 62.7102V62.727C28.0224 64.0555 27.0134 65.1907 25.6765 65.3673V65.4177C27.3666 65.5439 28.5858 66.7379 28.5858 68.3271V68.3439C28.5858 70.4713 26.9798 71.7998 24.39 71.7998H19.0169ZM23.6416 61.5498H21.5563V64.7366H23.3305C24.7599 64.7366 25.5251 64.1396 25.5251 63.0886V63.0717C25.5251 62.1048 24.8272 61.5498 23.6416 61.5498ZM23.6332 66.4604H21.5563V69.9079H23.7425C25.1972 69.9079 25.996 69.3109 25.996 68.1841V68.1673C25.996 67.0574 25.1888 66.4604 23.6332 66.4604ZM30.0321 71.7998V59.6663H38.0706V61.76H32.5715V64.6694H37.7595V66.6538H32.5715V69.7061H38.0706V71.7998H30.0321ZM42.8047 71.7998V61.76H39.2983V59.6663H48.8588V61.76H45.344V71.7998H42.8047ZM47.8414 71.7998L52.0793 59.6663H55.0643L59.2938 71.7998H56.6283L55.7118 68.8568H51.4234L50.5069 71.7998H47.8414ZM53.5424 62.0207L52.012 66.9565H55.1232L53.5928 62.0207H53.5424Z" fill="#2640A8"/>
</svg>