<svg width="97" height="52" viewBox="0 0 97 52" fill="none" xmlns="http://www.w3.org/2000/svg">
<mask id="mask0_1361_6302" style="mask-type:luminance" maskUnits="userSpaceOnUse" x="0" y="0" width="87" height="44">
<path d="M87 0.646484H0V43.6465H87V0.646484Z" fill="white"/>
</mask>
<g mask="url(#mask0_1361_6302)">
<path d="M75 1.14648H12C5.64873 1.14648 0.5 6.29521 0.5 12.6465V31.6465C0.5 37.9978 5.64873 43.1465 12 43.1465H75C81.3513 43.1465 86.5 37.9978 86.5 31.6465V12.6465C86.5 6.29521 81.3513 1.14648 75 1.14648Z" stroke="#F2F2F7"/>
<path d="M14.2998 27.8311C16.887 27.8311 18.9844 25.7337 18.9844 23.1465C18.9844 20.5593 16.887 18.4619 14.2998 18.4619C11.7126 18.4619 9.61523 20.5593 9.61523 23.1465C9.61523 25.7337 11.7126 27.8311 14.2998 27.8311Z" fill="black"/>
<path d="M24.997 27.8194C23.1438 27.8194 22.0916 26.6336 22.0916 24.6627V19.2287H24.3845V24.1837C24.3845 25.283 24.9028 25.9191 25.9315 25.9191C26.9601 25.9191 27.6119 25.1652 27.6119 24.0659V19.2287H29.9048V27.6466H27.6119V26.2567H27.5648C27.1329 27.2226 26.2691 27.8194 24.997 27.8194ZM36.3501 27.8194C34.4813 27.8194 33.6018 27.0969 33.6018 25.2909V20.9563H32.4318V19.2287H33.6018V17.1714H35.9183V19.2287H37.4573V20.9563H35.9183V25.0396C35.9183 25.8248 36.2716 26.0918 36.9626 26.0918C37.1668 26.0918 37.316 26.0682 37.4573 26.0525V27.733C37.1982 27.7722 36.8291 27.8194 36.3501 27.8194ZM40.3298 30.395V19.2287H42.6227V20.6971H42.6777C43.1331 19.6763 44.0519 19.056 45.2454 19.056C47.3813 19.056 48.6848 20.6893 48.6848 23.4298V23.4377C48.6848 26.1703 47.3813 27.8194 45.2769 27.8194C44.0754 27.8194 43.1253 27.2069 42.6698 26.2096H42.6227V30.395H40.3298ZM44.4916 25.9191C45.6302 25.9191 46.3527 24.9689 46.3527 23.4377V23.4298C46.3527 21.8907 45.6302 20.9563 44.4916 20.9563C43.3766 20.9563 42.6149 21.9143 42.6149 23.4377V23.4455C42.6149 24.961 43.3766 25.9191 44.4916 25.9191ZM55.35 27.8194C52.7901 27.8194 51.1804 26.1782 51.1804 23.4377V23.422C51.1804 20.7128 52.8294 19.056 55.3422 19.056C57.8628 19.056 59.5197 20.6971 59.5197 23.422V23.4377C59.5197 26.186 57.8942 27.8194 55.35 27.8194ZM55.3579 26.0211C56.4729 26.0211 57.1875 25.0788 57.1875 23.4377V23.422C57.1875 21.7965 56.4572 20.8542 55.3422 20.8542C54.235 20.8542 53.5126 21.7965 53.5126 23.422V23.4377C53.5126 25.0867 54.2271 26.0211 55.3579 26.0211ZM65.7766 27.8194C63.4444 27.8194 62.1487 26.7436 61.9681 25.1495L61.9603 25.0788H64.1982L64.2139 25.1495C64.3631 25.8091 64.8578 26.1939 65.7766 26.1939C66.6404 26.1939 67.1665 25.8562 67.1665 25.3144V25.3066C67.1665 24.859 66.8837 24.5998 66.0592 24.4192L64.6301 24.1208C62.9968 23.7753 62.1723 22.9587 62.1723 21.7023V21.6944C62.1723 20.0925 63.5543 19.056 65.6981 19.056C67.936 19.056 69.1846 20.2417 69.2395 21.718V21.7965H67.1272L67.1194 21.7337C67.0408 21.129 66.5461 20.6736 65.6981 20.6736C64.905 20.6736 64.4102 21.0269 64.4102 21.5688V21.5766C64.4102 22.0085 64.7008 22.2912 65.5489 22.4718L66.978 22.7781C68.737 23.1471 69.4594 23.8381 69.4594 25.0788V25.0867C69.4594 26.7357 67.9439 27.8194 65.7766 27.8194ZM75.5435 27.8194C73.6746 27.8194 72.7951 27.0969 72.7951 25.2909V20.9563H71.6251V19.2287H72.7951V17.1714H75.1116V19.2287H76.6507V20.9563H75.1116V25.0396C75.1116 25.8248 75.465 26.0918 76.156 26.0918C76.3602 26.0918 76.5094 26.0682 76.6507 26.0525V27.733C76.3916 27.7722 76.0225 27.8194 75.5435 27.8194Z" fill="black"/>
</g>
<rect x="64.6025" y="35.6572" width="31.6655" height="15.8328" rx="7.91638" fill="#DEEAFC"/>
<path d="M69.6616 47.0737V40.4554H72.5419C73.7895 40.4554 74.5738 41.0975 74.5738 42.1157V42.1249C74.5738 42.8496 74.0234 43.4687 73.2941 43.5651V43.5926C74.216 43.6614 74.8811 44.3127 74.8811 45.1795V45.1887C74.8811 46.3491 74.005 47.0737 72.5924 47.0737H69.6616ZM72.1842 41.4828H71.0467V43.2211H72.0145C72.7942 43.2211 73.2116 42.8954 73.2116 42.3221V42.3129C73.2116 41.7855 72.8309 41.4828 72.1842 41.4828ZM72.1796 44.1613H71.0467V46.0418H72.2392C73.0327 46.0418 73.4684 45.7161 73.4684 45.1015V45.0924C73.4684 44.4869 73.0281 44.1613 72.1796 44.1613ZM75.6699 47.0737V40.4554H80.0546V41.5975H77.0551V43.1844H79.8849V44.2668H77.0551V45.9317H80.0546V47.0737H75.6699ZM82.6368 47.0737V41.5975H80.7243V40.4554H85.9391V41.5975H84.0219V47.0737H82.6368ZM85.3841 47.0737L87.6957 40.4554H89.3239L91.6309 47.0737H90.177L89.6771 45.4685H87.338L86.838 47.0737H85.3841ZM88.4938 41.7396L87.659 44.4319H89.356L88.5213 41.7396H88.4938Z" fill="#2640A8"/>
</svg>
