<svg width="108" height="37" viewBox="0 0 108 37" fill="none" xmlns="http://www.w3.org/2000/svg">
<path d="M27.3058 27.3848C24.0223 27.3848 22.158 25.284 22.158 21.7918V12.164H26.2206V20.9431C26.2206 22.8909 27.1388 24.0179 28.9614 24.0179C30.784 24.0179 31.9388 22.6822 31.9388 20.7344V12.164H36.0014V27.0787H31.9388V24.6161H31.8553C31.0901 26.3274 29.5597 27.3848 27.3058 27.3848ZM44.5718 27.3848C41.2605 27.3848 39.7023 26.1048 39.7023 22.9048V15.2249H37.6292V12.164H39.7023V8.51881H43.8066V12.164H46.5335V15.2249H43.8066V22.4596C43.8066 23.8509 44.4327 24.324 45.657 24.324C46.0188 24.324 46.2831 24.2822 46.5335 24.2544V27.2318C46.0744 27.3013 45.4205 27.3848 44.5718 27.3848ZM48.7735 31.9483V12.164H52.8361V14.7657H52.9335C53.7405 12.9571 55.3683 11.8579 57.4831 11.8579C61.2674 11.8579 63.5769 14.7518 63.5769 19.6075V19.6214C63.5769 24.4631 61.2674 27.3848 57.5387 27.3848C55.41 27.3848 53.7266 26.2996 52.9196 24.5327H52.8361V31.9483H48.7735ZM56.1474 24.0179C58.1648 24.0179 59.4448 22.3344 59.4448 19.6214V19.6075C59.4448 16.8805 58.1648 15.2249 56.1474 15.2249C54.1718 15.2249 52.8222 16.9223 52.8222 19.6214V19.6353C52.8222 22.3205 54.1718 24.0179 56.1474 24.0179ZM72.5369 27.3848C68.0013 27.3848 65.1491 24.477 65.1491 19.6214V19.5935C65.1491 14.7936 68.0708 11.8579 72.523 11.8579C76.9891 11.8579 79.9247 14.7657 79.9247 19.5935V19.6214C79.9247 24.4909 77.0447 27.3848 72.5369 27.3848ZM72.5508 24.1987C74.5265 24.1987 75.7926 22.5292 75.7926 19.6214V19.5935C75.7926 16.7136 74.4986 15.044 72.523 15.044C70.5613 15.044 69.2813 16.7136 69.2813 19.5935V19.6214C69.2813 22.5431 70.5474 24.1987 72.5508 24.1987ZM88.1612 27.3848C84.029 27.3848 81.7334 25.4787 81.4134 22.6544L81.3995 22.5292H85.3647L85.3925 22.6544C85.6569 23.8231 86.5334 24.5048 88.1612 24.5048C89.6916 24.5048 90.6238 23.9066 90.6238 22.9466V22.9327C90.6238 22.1396 90.1229 21.6805 88.6621 21.3605L86.1299 20.8318C83.236 20.2196 81.7751 18.7727 81.7751 16.5466V16.5327C81.7751 13.6944 84.2238 11.8579 88.0221 11.8579C91.9873 11.8579 94.1994 13.9588 94.2968 16.5744V16.7136H90.5542L90.5403 16.6023C90.4012 15.531 89.5247 14.724 88.0221 14.724C86.6169 14.724 85.7403 15.3501 85.7403 16.3101V16.324C85.7403 17.0892 86.2551 17.5901 87.7577 17.9101L90.2899 18.4527C93.4064 19.1066 94.6864 20.3309 94.6864 22.5292V22.5431C94.6864 25.4648 92.0012 27.3848 88.1612 27.3848ZM102.617 27.3848C99.3055 27.3848 97.7473 26.1048 97.7473 22.9048V15.2249H95.6742V12.164H97.7473V8.51881H101.852V12.164H104.579V15.2249H101.852V22.4596C101.852 23.8509 102.478 24.324 103.702 24.324C104.064 24.324 104.328 24.2822 104.579 24.2544V27.2318C104.119 27.3013 103.465 27.3848 102.617 27.3848Z" fill="black"/>
<circle cx="9.31181" cy="17.7669" r="9.31181" fill="black"/>
<rect x="90.3012" y="29" width="15.6046" height="7.80228" rx="3.90114" fill="#DEEAFC"/>
<path d="M92.7943 34.678V31.4165H94.2137C94.8285 31.4165 95.215 31.7329 95.215 32.2347V32.2392C95.215 32.5963 94.9438 32.9015 94.5844 32.9489V32.9625C95.0387 32.9964 95.3664 33.3173 95.3664 33.7445V33.749C95.3664 34.3209 94.9347 34.678 94.2386 34.678H92.7943ZM94.0374 31.9228H93.4769V32.7794H93.9538C94.338 32.7794 94.5437 32.6189 94.5437 32.3364V32.3319C94.5437 32.072 94.3561 31.9228 94.0374 31.9228ZM94.0352 33.2428H93.4769V34.1694H94.0646C94.4556 34.1694 94.6703 34.009 94.6703 33.7061V33.7016C94.6703 33.4032 94.4533 33.2428 94.0352 33.2428ZM95.7552 34.678V31.4165H97.9159V31.9793H96.4378V32.7613H97.8323V33.2947H96.4378V34.1152H97.9159V34.678H95.7552ZM99.1884 34.678V31.9793H98.2459V31.4165H100.816V31.9793H99.871V34.678H99.1884ZM100.542 34.678L101.681 31.4165H102.484L103.621 34.678H102.904L102.658 33.8869H101.505L101.259 34.678H100.542ZM102.075 32.0494L101.663 33.3761H102.5L102.088 32.0494H102.075Z" fill="#2640A8"/>
</svg>
