<svg width="65" height="66" viewBox="0 0 65 66" fill="none" xmlns="http://www.w3.org/2000/svg">
<g clip-path="url(#clip0_1371_1199)">
<path d="M8.62017 16.1225C4.37237 16.1225 0.9375 12.6787 0.9375 8.43992C0.9375 4.20105 4.37684 0.761719 8.62017 0.761719C12.8546 0.761719 16.2984 4.20552 16.2984 8.43992C16.2984 12.6787 12.8546 16.1225 8.62017 16.1225Z" fill="black"/>
<path d="M15.3427 64.5812H2.16602V22.1836H15.3427V64.5812Z" fill="black"/>
<path d="M64.6989 64.5806H51.5311V43.9625C51.5311 39.0447 51.4418 32.7199 44.6837 32.7199C37.8274 32.7199 36.7733 38.0754 36.7733 43.6052V64.5806H23.6055V22.183H36.2462V27.9763H36.4249C38.1847 24.6442 42.4817 21.1289 48.8913 21.1289C62.2333 21.1289 64.6989 29.9103 64.6989 41.3272V64.5806Z" fill="black"/>
</g>
<defs>
<clipPath id="clip0_1371_1199">
<rect width="65" height="65" fill="white" transform="translate(0 0.0859375)"/>
</clipPath>
</defs>
</svg>
