<svg width="72" height="73" viewBox="0 0 72 73" fill="none" xmlns="http://www.w3.org/2000/svg">
<path d="M6 60.7832C6 62.3745 6.63214 63.9006 7.75736 65.0258C8.88258 66.1511 10.4087 66.7832 12 66.7832H60C61.5913 66.7832 63.1174 66.1511 64.2426 65.0258C65.3679 63.9006 66 62.3745 66 60.7832V24.7832L45 39.7832V24.7832L24 39.7832V12.7832C24 11.1919 23.3679 9.66578 22.2426 8.54056C21.1174 7.41534 19.5913 6.7832 18 6.7832H12C10.4087 6.7832 8.88258 7.41534 7.75736 8.54056C6.63214 9.66578 6 11.1919 6 12.7832V60.7832Z" stroke="black" stroke-width="6" stroke-linecap="round" stroke-linejoin="round"/>
<path d="M51 54.7832H54" stroke="black" stroke-width="6" stroke-linecap="round" stroke-linejoin="round"/>
<path d="M36 54.7832H39" stroke="black" stroke-width="6" stroke-linecap="round" stroke-linejoin="round"/>
<path d="M21 54.7832H24" stroke="black" stroke-width="6" stroke-linecap="round" stroke-linejoin="round"/>
</svg>
