<svg width="72" height="73" viewBox="0 0 72 73" fill="none" xmlns="http://www.w3.org/2000/svg">
<path d="M9 33.7832L63 18.7832V54.7832L9 42.7832V33.7832Z" stroke="black" stroke-width="6" stroke-linecap="round" stroke-linejoin="round"/>
<path d="M34.8007 51.1809C34.4855 52.3234 33.9484 53.3926 33.22 54.3275C32.4916 55.2624 31.5862 56.0447 30.5554 56.6297C29.5247 57.2148 28.3888 57.591 27.2127 57.7371C26.0365 57.8831 24.8432 57.796 23.7007 57.4809C22.5581 57.1657 21.4889 56.6286 20.554 55.9002C19.6191 55.1718 18.8368 54.2664 18.2518 53.2356C17.6668 52.2049 17.2905 51.069 17.1445 49.8929C16.9984 48.7167 17.0855 47.5234 17.4007 46.3809" stroke="black" stroke-width="6" stroke-linecap="round" stroke-linejoin="round"/>
</svg>
