<svg width="72" height="73" viewBox="0 0 72 73" fill="none" xmlns="http://www.w3.org/2000/svg">
<path d="M62.7306 27.3009L25.6806 7.47093C24.8445 7.02704 23.9123 6.79492 22.9656 6.79492C22.019 6.79492 21.0868 7.02704 20.2506 7.47093L9.30062 13.1709C8.31331 13.712 7.48732 14.5054 6.90702 15.4702C6.32671 16.4349 6.01291 17.5365 5.99765 18.6622C5.9824 19.7879 6.26625 20.8975 6.82019 21.8777C7.37414 22.8578 8.17834 23.6733 9.15062 24.2409L45.8106 45.0309C46.701 45.5248 47.7025 45.7839 48.7206 45.7839C49.7388 45.7839 50.7402 45.5248 51.6306 45.0309L63.0006 38.3109C63.9529 37.729 64.7353 36.9068 65.2692 35.9269C65.8032 34.9469 66.0698 33.8437 66.0425 32.728C66.0151 31.6124 65.6947 30.5236 65.1134 29.571C64.532 28.6183 63.7103 27.8355 62.7306 27.3009Z" stroke="black" stroke-width="6" stroke-linecap="round" stroke-linejoin="round"/>
<path d="M9.26982 27.3009L46.3198 7.47093C47.1559 7.02704 48.0882 6.79492 49.0348 6.79492C49.9815 6.79492 50.9137 7.02704 51.7498 7.47093L62.6998 13.1709C63.6951 13.6983 64.5324 14.4806 65.1263 15.4377C65.7201 16.3948 66.0491 17.4925 66.0796 18.6184C66.1101 19.7444 65.8411 20.8582 65.2999 21.8461C64.7588 22.834 63.9651 23.6604 62.9998 24.2409L26.1898 45.0309C25.2994 45.5248 24.298 45.7839 23.2798 45.7839C22.2616 45.7839 21.2602 45.5248 20.3698 45.0309L8.99982 38.3109C8.04755 37.729 7.26516 36.9068 6.73122 35.9269C6.19729 34.9469 5.93061 33.8437 5.95797 32.728C5.98533 31.6124 6.30576 30.5236 6.88709 29.571C7.46842 28.6183 8.29017 27.8355 9.26982 27.3009Z" stroke="black" stroke-width="6" stroke-linecap="round" stroke-linejoin="round"/>
<path d="M36 66.7832V39.7832" stroke="black" stroke-width="6" stroke-linecap="round" stroke-linejoin="round"/>
<path d="M60 41.2832V51.3932C60.0012 52.5256 59.6912 53.6365 59.104 54.6046C58.5167 55.5728 57.6748 56.361 56.67 56.8832L38.67 66.1232C37.8453 66.5518 36.9295 66.7756 36 66.7756C35.0705 66.7756 34.1547 66.5518 33.33 66.1232L15.33 56.8832C14.3253 56.361 13.4833 55.5728 12.896 54.6046C12.3088 53.6365 11.9988 52.5256 12 51.3932V41.2832" stroke="black" stroke-width="6" stroke-linecap="round" stroke-linejoin="round"/>
</svg>
