<svg width="117" height="117" viewBox="0 0 117 117" fill="none" xmlns="http://www.w3.org/2000/svg">
<path fill-rule="evenodd" clip-rule="evenodd" d="M17.105 20.8984H21.9708L22.2141 20.9471C28.959 21.0779 34.8524 25.5373 36.8117 31.9926L37.7849 35.3501H88.5359C93.0174 35.3705 97.2729 37.3209 100.214 40.7025C103.147 44.1056 104.444 48.621 103.766 53.0618L100.847 73.2065C99.8741 80.9281 93.3498 86.746 85.5677 86.8309H56.9564C50.1213 86.8055 44.1019 82.3255 42.1155 75.7854L29.8049 34.2796C28.8622 30.7186 25.6543 28.228 21.9708 28.1972H17.105C15.0895 28.1972 13.4556 26.5633 13.4556 24.5478C13.4556 22.5323 15.0895 20.8984 17.105 20.8984ZM49.1224 73.4498C50.1553 76.9143 53.3412 79.2889 56.9564 79.2888H85.5677C89.5951 79.2451 93.0056 76.3072 93.645 72.3306L96.5645 52.1373C96.9622 49.7868 96.3139 47.3798 94.7896 45.5469C93.2653 43.7139 91.0168 42.6378 88.6332 42.6002H39.9745L49.1224 73.4498Z" fill="black"/>
<path d="M55.8373 92.6699C53.1499 92.6699 50.9714 94.8485 50.9714 97.5358C50.9714 100.223 53.1499 102.402 55.8373 102.402C58.5246 102.402 60.7031 100.223 60.7031 97.5358C60.7031 94.8485 58.5246 92.6699 55.8373 92.6699Z" fill="black"/>
<path d="M85.0324 92.6699C82.3451 92.6699 80.1666 94.8485 80.1666 97.5358C80.1666 100.223 82.3451 102.402 85.0324 102.402C87.7198 102.402 89.8983 100.223 89.8983 97.5358C89.8983 94.8485 87.7198 92.6699 85.0324 92.6699Z" fill="black"/>
</svg>
